<?xml version="1.0" encoding="UTF-8"?>
<svg xmlns="http://www.w3.org/2000/svg" viewBox="0 0 512 512" fill="none">
<path d="M0 0 C1.79050781 -0.0299707 1.79050781 -0.0299707 3.6171875 -0.06054688 C11.69608531 -0.05607846 17.79270872 0.64884012 23.68359375 6.47265625 C24.13863281 7.14167969 24.59367187 7.81070312 25.0625 8.5 C25.53558594 9.17160156 26.00867188 9.84320313 26.49609375 10.53515625 C28.85010528 14.50195077 28.71006837 17.9288763 28.625 22.4375 C29.61886719 22.5303125 30.61273438 22.623125 31.63671875 22.71875 C35.97843859 23.34725732 39.55118336 24.95950793 43.4375 26.9375 C44.13746094 27.29279785 44.83742188 27.6480957 45.55859375 28.01416016 C59.04546888 35.14018205 69.47395929 47.07702287 74.625 61.4375 C76.35238614 67.12115764 77.83135414 72.46409072 77.625 78.4375 C78.32625 78.458125 79.0275 78.47875 79.75 78.5 C84.13044968 79.9284075 86.32034106 82.49814111 88.625 86.4375 C89.56834553 89.47897611 90.2519875 92.50946428 90.90625 95.625 C91.84337633 99.29201606 93.3375542 101.46382046 95.625 104.4375 C97.17567464 109.08952391 96.89201158 113.75167443 96.9375 118.625 C96.96650391 119.64142578 96.99550781 120.65785156 97.02539062 121.70507812 C97.09312814 129.77626307 95.47608583 134.95283954 90.375 141.1875 C84.02366375 146.38404784 78.24149414 148.03965308 70.125 148.1875 C67.32 148.27 64.515 148.3525 61.625 148.4375 C58.985 153.7175 56.345 158.9975 53.625 164.4375 C56.1 165.324375 58.575 166.21125 61.125 167.125 C67.95477659 169.63742639 74.37584106 172.18834106 79.625 177.4375 C79.86328125 179.42578125 79.86328125 179.42578125 79.9375 181.75 C80.26657092 185.35823373 80.47984221 186.26008492 82.875 189.1875 C83.7825 189.93 84.69 190.6725 85.625 191.4375 C86.40875 192.365625 87.1925 193.29375 88 194.25 C91.40877011 197.09064176 93.29237637 196.59223656 97.625 196.4375 C102.42106879 198.49403028 104.17848184 201.58775148 106.1875 206.1875 C106.63246826 207.1779834 106.63246826 207.1779834 107.08642578 208.18847656 C113.11849071 222.0974761 114.80836471 236.09709946 114.72265625 251.13671875 C114.72053383 252.57831108 114.72053383 252.57831108 114.71836853 254.04902649 C114.71283675 257.07438466 114.70029773 260.09966475 114.6875 263.125 C114.68247616 265.19466038 114.67791481 267.26432193 114.67382812 269.33398438 C114.66288981 274.368519 114.64567362 279.40299633 114.625 284.4375 C115.56666016 284.74147705 116.50832031 285.0454541 117.47851562 285.35864258 C127.52193889 288.80230237 134.27744054 296.11883478 138.86328125 305.4453125 C139.625 307.4375 139.625 307.4375 140.625 312.4375 C147.885 312.4375 155.145 312.4375 162.625 312.4375 C162.563125 309.715 162.50125 306.9925 162.4375 304.1875 C162.35811189 291.41636922 164.55299866 280.06589068 173.51171875 270.40234375 C181.37480121 263.12628906 190.09436274 259.51995223 200.8359375 259.40234375 C207.87432595 259.738677 213.49354062 260.95883529 219.625 264.4375 C220.635625 264.994375 221.64625 265.55125 222.6875 266.125 C230.8263175 272.53215421 236.4606504 280.22967028 238.625 290.4375 C238.7296389 292.21795604 238.78329217 294.00172614 238.80200195 295.78515625 C238.81483719 296.85306396 238.82767242 297.92097168 238.84089661 299.02124023 C238.85197701 300.74322632 238.85197701 300.74322632 238.86328125 302.5 C238.871353 303.68343994 238.87942474 304.86687988 238.88774109 306.08618164 C238.90156449 308.58771302 238.91229443 311.08926312 238.92016602 313.59082031 C238.93743414 317.42288526 238.98134368 321.25409968 239.02539062 325.0859375 C239.03551296 327.51561866 239.0440305 329.94530714 239.05078125 332.375 C239.06828934 333.52299072 239.08579742 334.67098145 239.10383606 335.85375977 C239.10091049 336.92166748 239.09798492 337.9895752 239.0949707 339.08984375 C239.10377007 340.49737915 239.10377007 340.49737915 239.11274719 341.93334961 C238.47416578 345.21190028 237.23887041 346.41995834 234.625 348.4375 C233.635 348.4375 232.645 348.4375 231.625 348.4375 C231.625 354.3775 231.625 360.3175 231.625 366.4375 C233.275 366.7675 234.925 367.0975 236.625 367.4375 C238.73035242 370.59552862 238.87647788 371.33994714 238.88569641 374.94496155 C238.89278122 375.86860504 238.89986603 376.79224854 238.90716553 377.74388123 C238.90468811 378.75531693 238.90221069 379.76675262 238.8996582 380.80883789 C238.9073246 382.40937012 238.9073246 382.40937012 238.91514587 384.04223633 C238.92908256 387.58159955 238.92808118 391.12076879 238.92578125 394.66015625 C238.92966763 397.12056043 238.93400219 399.58096394 238.93876648 402.04136658 C238.94623869 407.20720591 238.94593138 412.37297693 238.94067383 417.53881836 C238.93489606 424.14392646 238.95176457 430.7487526 238.9750185 437.35381413 C238.98979078 442.44033939 238.99062246 447.52679746 238.98750877 452.61334038 C238.98802083 455.04728183 238.9932367 457.48122716 239.00332069 459.91514778 C239.01572691 463.33041461 239.00886649 466.74514148 238.99731445 470.16040039 C239.00495819 471.15766647 239.01260193 472.15493256 239.02047729 473.18241882 C238.93792798 484.28479815 235.92125649 493.00784444 228.625 501.4375 C219.73591962 510.06271157 210.19547709 513.05068718 197.99658203 512.95507812 C196.32153847 512.96559204 196.32153847 512.96559204 194.61265564 512.97631836 C190.95244885 512.99380505 187.29302598 512.98231293 183.6328125 512.96875 C181.07835747 512.97144643 178.52390344 512.97533011 175.9694519 512.98034668 C170.63186868 512.98622813 165.29456304 512.97810312 159.95703125 512.95898438 C153.79124596 512.93715362 147.62598853 512.94432256 141.46021569 512.96629 C135.51211728 512.98663026 129.56418275 512.98447883 123.61605453 512.97276306 C121.09063518 512.97009305 118.56520235 512.97337511 116.03979874 512.98268127 C112.51851621 512.99281623 108.99825687 512.97739011 105.47705078 512.95507812 C103.90918571 512.96722351 103.90918571 512.96722351 102.30964661 512.97961426 C95.29215002 512.89704984 95.29215002 512.89704984 91.94674683 510.59265137 C90.625 508.4375 90.625 508.4375 90.625 505.4375 C85.015 505.4375 79.405 505.4375 73.625 505.4375 C73.295 506.7575 72.965 508.0775 72.625 509.4375 C71.01656345 511.62487362 70.17220765 512.34160887 67.47906572 512.81354749 C66.64004344 512.81403455 65.80102117 512.81452161 64.93657398 512.81502342 C63.96715046 512.82284666 62.99772693 512.83066991 61.99892694 512.83873022 C60.93143879 512.83203805 59.86395065 512.82534589 58.76411438 512.81845093 C57.06589492 512.82547089 57.06589492 512.82547089 55.333368 512.83263266 C51.51940994 512.84464954 47.70580677 512.83509896 43.8918457 512.82568359 C41.16549432 512.82809532 38.43915826 512.83497778 35.71281433 512.84161377 C29.06297548 512.85497556 22.41323804 512.8520619 15.76339517 512.84337585 C10.35734781 512.83660645 4.95132892 512.83567936 -0.45472145 512.8389473 C-1.22355562 512.839407 -1.99238979 512.83986669 -2.78452197 512.84034032 C-4.34635753 512.84129949 -5.90819308 512.84227213 -7.47002862 512.8432581 C-22.12808946 512.85181989 -36.78609409 512.841967 -51.44414572 512.825857 C-64.01674711 512.81246644 -76.58926536 512.81476995 -89.16186523 512.82861328 C-103.75897125 512.84467821 -118.35602788 512.85098177 -132.95314151 512.84177649 C-134.51082757 512.84082085 -136.06851364 512.83987774 -137.62619972 512.8389473 C-138.39261172 512.83848447 -139.15902371 512.83802164 -139.94866031 512.83754479 C-145.34458187 512.83495664 -150.74047207 512.83932241 -156.13638878 512.84638596 C-162.71787588 512.85481188 -169.29925568 512.85249847 -175.88073053 512.83654372 C-179.23771079 512.82867348 -182.59436473 512.82716965 -185.95136642 512.83549118 C-189.59415458 512.84368837 -193.23644003 512.83340602 -196.87919617 512.81845093 C-198.46369797 512.82848918 -198.46369797 512.82848918 -200.08020991 512.83873022 C-211.19934103 512.75018976 -220.07600146 508.71677153 -228.125 501.0625 C-235.143816 493.67595559 -237.68558694 485.43524428 -237.64242554 475.30474854 C-237.64695665 474.51431963 -237.65148776 473.72389072 -237.65615618 472.90950942 C-237.66875908 470.27587557 -237.66718248 467.64244962 -237.66552734 465.00878906 C-237.6715152 463.11429582 -237.67832134 461.219805 -237.68588257 459.32531738 C-237.70352452 454.1887804 -237.70823722 449.05231009 -237.70951414 443.91574574 C-237.71093743 440.70328138 -237.71521043 437.49083388 -237.72050858 434.27837372 C-237.73900358 423.06154813 -237.74717994 411.84477002 -237.74560547 400.62792969 C-237.74440454 390.18795981 -237.76549886 379.74819682 -237.7970928 369.30827928 C-237.82328435 360.33223447 -237.83397154 351.35625711 -237.83269465 342.3801744 C-237.83218582 337.02490317 -237.83782509 331.66981584 -237.85905075 326.31458282 C-237.87848135 321.27477704 -237.87852463 316.23532964 -237.86401749 311.19551086 C-237.86193421 309.35212935 -237.86660145 307.50872512 -237.8787384 305.66538239 C-237.95902872 292.6197975 -237.09918 281.88061777 -228.359375 271.44140625 C-220.51686213 263.5217033 -211.34822171 260.08840003 -200.390625 259.44140625 C-190.62602667 259.42875781 -182.83997083 263.00600669 -174.6875 268.125 C-166.98979827 275.82270173 -162.29390131 284.38426361 -162.08203125 295.34765625 C-162.09889187 297.39866952 -162.13744528 299.44952829 -162.1875 301.5 C-162.249375 305.109375 -162.31125 308.71875 -162.375 312.4375 C-154.785 312.4375 -147.195 312.4375 -139.375 312.4375 C-139.045 310.4575 -138.715 308.4775 -138.375 306.4375 C-134.35610933 296.39889756 -127.10901037 289.78291665 -117.4765625 285.25 C-115.375 284.4375 -115.375 284.4375 -113.375 284.4375 C-113.38499275 283.52906593 -113.38499275 283.52906593 -113.39518738 282.60227966 C-113.46222133 276.22554911 -113.50707895 269.84892068 -113.53979492 263.47192383 C-113.55476238 261.10078863 -113.5751436 258.72968054 -113.60131836 256.35864258 C-113.94242758 224.63548514 -113.94242758 224.63548514 -107.1875 210.1875 C-106.88706787 209.52548584 -106.58663574 208.86347168 -106.27709961 208.18139648 C-103.37729361 202.02891383 -99.69532108 196.68719248 -95.375 191.4375 C-94.77171875 190.66019531 -94.1684375 189.88289062 -93.546875 189.08203125 C-84.36842115 177.87891847 -70.20935257 169.44071104 -56.375 165.4375 C-55.055 165.4375 -53.735 165.4375 -52.375 165.4375 C-52.86871094 164.46167969 -53.36242187 163.48585937 -53.87109375 162.48046875 C-54.51833531 161.19536595 -55.16546488 159.91020675 -55.8125 158.625 C-56.13798828 157.98240234 -56.46347656 157.33980469 -56.79882812 156.67773438 C-58.16732676 153.95484534 -59.40983265 151.33300206 -60.375 148.4375 C-61.55835938 148.42332031 -62.74171875 148.40914062 -63.9609375 148.39453125 C-82.7881805 147.93042338 -82.7881805 147.93042338 -90.234375 140.609375 C-97.30299546 132.05971025 -97.11491041 122.07651489 -96.375 111.4375 C-95.55963926 107.0758785 -94.662933 103.04658852 -91.85546875 99.5390625 C-90.00266189 96.90895672 -89.61108413 94.64668645 -89 91.5 C-87.81571838 86.42979433 -86.69237602 83.62413468 -82.375 80.4375 C-81.52808594 80.03917969 -80.68117187 79.64085938 -79.80859375 79.23046875 C-76.45895448 76.76259648 -76.44344774 74.86291976 -75.8125 70.8125 C-74.69964306 64.79070745 -73.25140792 59.82458699 -70.375 54.4375 C-69.98957031 53.66277344 -69.60414063 52.88804688 -69.20703125 52.08984375 C-62.14824183 39.02797829 -49.62410557 27.80092604 -35.265625 23.5078125 C-32.961644 23.03269777 -30.71594867 22.65325564 -28.375 22.4375 C-28.31183594 21.73625 -28.24867188 21.035 -28.18359375 20.3125 C-27.23466878 12.96082867 -25.21518604 8.16314672 -19.375 3.4375 C-13.49164285 -0.71151245 -6.90906705 -0.04077239 0 0 Z " fill="#010101" transform="translate(255.375,-0.4375)"/>
<path d="M0 0 C7.59 0 15.18 0 23 0 C24.155 2.495625 25.31 4.99125 26.5 7.5625 C29.67264295 14.0904076 32.7869743 18.97907006 39 23 C39.598125 23.40347656 40.19625 23.80695313 40.8125 24.22265625 C49.14806672 29.41377927 57.96901318 30.03494939 67.4375 28.375 C76.65845741 26.02487988 84.80486755 21.05457864 90 13 C91.58533721 9.73721118 92.86279146 6.44219575 94 3 C94.33 2.01 94.66 1.02 95 0 C139.55 0 184.1 0 230 0 C232.64 5.28 235.28 10.56 238 16 C245.61602214 23.9247798 253.59253438 28.98802324 264.875 29.25 C276.20161557 28.95869521 285.89792494 25.10207506 294 17 C297.97801901 11.40024662 300.0851346 6.70202891 302 0 C309.92 0 317.84 0 326 0 C326.00364563 1.91742508 326.00729126 3.83485016 326.01104736 5.81037903 C326.04801195 23.89319813 326.10556521 41.97584875 326.18390274 60.05853748 C326.22365021 69.35470162 326.25606447 78.65078163 326.27099609 87.94702148 C326.2840349 96.05308379 326.31105628 104.15896066 326.35461307 112.26491851 C326.3771779 116.55386734 326.39291368 120.84258788 326.39188385 125.13160133 C326.39113428 129.17580953 326.4092032 133.21951401 326.44116783 137.26359177 C326.44962555 138.74088808 326.45144506 140.21824117 326.44580269 141.69555092 C326.41045401 152.38122989 328.15623909 160.52173995 333 170 C332.06705612 170.01030746 331.13411224 170.02061493 330.17289734 170.03123474 C321.38822853 170.12891746 312.60363137 170.2316467 303.8190794 170.33933926 C299.30266958 170.39454451 294.78625325 170.44796073 290.26977539 170.49731445 C285.91255331 170.54499331 281.55541015 170.59733747 277.19828224 170.65294075 C275.5345029 170.67334833 273.87070193 170.69206406 272.20688438 170.70907402 C269.87962389 170.73315336 267.55251237 170.76320309 265.2253418 170.79467773 C264.53482224 170.8004332 263.84430267 170.80618866 263.13285828 170.81211853 C260.14913134 170.85810062 257.85574352 171.04808549 255 172 C254.34 173.98 253.68 175.96 253 178 C247.39 178 241.78 178 236 178 C235.34 176.02 234.68 174.04 234 172 C231.28343696 171.09447899 229.70499066 170.87161227 226.91392231 170.8613348 C226.07890102 170.85586036 225.24387972 170.85038591 224.38355476 170.84474558 C223.46624759 170.84376747 222.54894042 170.84278936 221.60383606 170.84178162 C220.62938732 170.83684364 219.65493859 170.83190566 218.6509611 170.82681805 C215.37123169 170.81140556 212.09152191 170.80307227 208.81176758 170.79467773 C206.46652553 170.78510216 204.12128523 170.77509227 201.77604675 170.76467896 C195.39627366 170.73758909 189.01649314 170.71660164 182.63669419 170.69667697 C176.64878881 170.67705325 170.66090247 170.65289738 164.67301401 170.62875474 C152.8117259 170.58107918 140.95042595 170.5378149 129.08911133 170.49731445 C117.56598998 170.45795934 106.04287915 170.41653308 94.51977539 170.37231445 C93.80965861 170.36959018 93.09954184 170.36686591 92.36790637 170.36405908 C88.80550918 170.3503796 85.24311215 170.33665933 81.6807152 170.32291877 C52.12049905 170.20895456 22.56025913 170.1022184 -7 170 C-6.02200777 167.52856085 -5.03283436 165.07352161 -3.94887924 162.64636517 C-0.62161317 154.65501893 -0.4212075 147.1698 -0.45410156 138.61450195 C-0.44534933 137.09564667 -0.43485785 135.57680058 -0.42277527 134.05796814 C-0.39509627 129.9677664 -0.39150654 125.8778682 -0.39249516 121.78758645 C-0.38935036 117.50075373 -0.36369978 113.21405461 -0.34051514 108.92729187 C-0.30007098 100.82448658 -0.27964178 92.72176153 -0.26654124 84.61887091 C-0.2506318 75.38776452 -0.21219969 66.15679392 -0.17194796 56.92576659 C-0.08970768 37.95055077 -0.03631541 18.9753555 0 0 Z " fill="#1583F8" transform="translate(93,327)"/>
<path d="M0 0 C3.70624444 2.13542289 7.50553234 3.30455085 11.58984375 4.4921875 C12.51539063 4.84152344 13.4409375 5.19085938 14.39453125 5.55078125 C29.52900833 10.00971643 47.3527206 5.30721887 60.796875 -1.88671875 C62.76636631 -3.02985007 64.69509784 -4.24464856 66.58984375 -5.5078125 C76.20772342 -6.16129213 85.38529281 -2.21623765 93.75 2.13671875 C97.27637396 3.81987111 99.72291045 3.85023688 103.58984375 3.4921875 C105.94354182 2.61153823 105.94354182 2.61153823 107.58984375 1.4921875 C110.66450623 3.75296874 113.38519469 6.1895314 115.96484375 8.9921875 C116.48820313 9.559375 117.0115625 10.1265625 117.55078125 10.7109375 C118.58984375 12.4921875 118.58984375 12.4921875 118.31640625 14.3359375 C118.07664062 15.0475 117.836875 15.7590625 117.58984375 16.4921875 C115.85851937 22.39558136 117.67041063 25.64128768 120.40234375 30.8046875 C121.14729426 32.23348439 121.88303049 33.66712405 122.609375 35.10546875 C122.94042236 35.73235596 123.27146973 36.35924316 123.61254883 37.00512695 C126.64752114 44.72865006 126.86446641 52.31317153 126.78515625 60.52734375 C126.78232635 61.64660751 126.77949646 62.76587128 126.77658081 63.91905212 C126.76546107 67.46437655 126.74037165 71.00944051 126.71484375 74.5546875 C126.70480335 76.97069945 126.69567936 79.3867154 126.6875 81.80273438 C126.66554865 87.69930636 126.63215354 93.59572831 126.58984375 99.4921875 C125.77942627 99.8226709 124.96900879 100.1531543 124.1340332 100.49365234 C123.0637085 100.93402832 121.99338379 101.3744043 120.890625 101.828125 C119.83270752 102.2617334 118.77479004 102.6953418 117.68481445 103.14208984 C108.35782045 107.21073991 103.22393821 112.38197907 98.58984375 121.4921875 C97.67403352 123.86348184 97.08979877 125.99241238 96.58984375 128.4921875 C94.27984375 128.4921875 91.96984375 128.4921875 89.58984375 128.4921875 C89.58397751 127.53418747 89.57811127 126.57618744 89.57206726 125.5891571 C89.51489949 116.56892962 89.44216933 107.5489446 89.35412884 98.52896404 C89.30936634 93.89147866 89.27012335 89.25408233 89.2434082 84.61645508 C89.21743365 80.14239711 89.17707321 75.66868075 89.12665749 71.19483376 C89.10994906 69.48642024 89.0984596 67.77794759 89.09222984 66.06946373 C89.08263167 63.67965095 89.05462549 61.29071998 89.0222168 58.90112305 C89.02365189 58.19190201 89.02508698 57.48268097 89.02656555 56.75196838 C88.97152982 53.88997788 88.89748408 51.93944294 87.25032043 49.54475403 C84.69358749 47.92405586 82.54346907 48.24605206 79.58984375 48.4921875 C78.59984375 48.8221875 77.60984375 49.1521875 76.58984375 49.4921875 C75.42322206 52.99205258 75.41450002 56.16633494 75.38452148 59.80932617 C75.37448876 60.56301389 75.36445604 61.3167016 75.3541193 62.09322834 C75.32274467 64.53217307 75.29796744 66.97113407 75.2734375 69.41015625 C75.2550331 70.91622446 75.23619636 72.42228744 75.21691895 73.92834473 C75.14848442 79.51206386 75.08842321 85.09588307 75.02734375 90.6796875 C74.88296875 103.1578125 74.73859375 115.6359375 74.58984375 128.4921875 C43.89984375 128.4921875 13.20984375 128.4921875 -18.41015625 128.4921875 C-18.72265625 90.1796875 -18.72265625 90.1796875 -18.7980957 78.08081055 C-18.83465866 74.50294599 -18.83465866 74.50294599 -18.87516785 70.92512512 C-18.89132117 69.33113622 -18.90160705 67.73708132 -18.90727234 66.14302063 C-18.91699062 63.72869565 -18.94530274 61.31523466 -18.9777832 58.90112305 C-18.97635724 58.19055346 -18.97493128 57.47998388 -18.9734621 56.74788189 C-19.02849933 53.88965263 -19.09994256 51.94137489 -20.74967957 49.55256653 C-23.36538157 47.88218141 -25.39221213 48.11494448 -28.41015625 48.4921875 C-30.21514843 49.49382339 -30.21514843 49.49382339 -31.41015625 51.4921875 C-31.71957259 54.04058886 -31.84769055 56.3504327 -31.8425293 58.90112305 C-31.85272095 59.65258606 -31.8629126 60.40404907 -31.87341309 61.17828369 C-31.90360513 63.66189977 -31.91281825 66.14513057 -31.921875 68.62890625 C-31.93871713 70.35099068 -31.95686674 72.07306279 -31.97627258 73.79512024 C-32.02382951 78.32752632 -32.05360193 82.85988244 -32.07971191 87.39245605 C-32.1094888 92.01759717 -32.15602895 96.64256598 -32.20117188 101.26757812 C-32.28726968 110.34235789 -32.35458608 119.41717306 -32.41015625 128.4921875 C-34.72015625 128.4921875 -37.03015625 128.4921875 -39.41015625 128.4921875 C-39.62929687 127.863125 -39.8484375 127.2340625 -40.07421875 126.5859375 C-44.20595331 115.43361333 -50.17339267 108.62748097 -60.47265625 102.7421875 C-63.72698787 101.35736553 -67.00554929 100.43858001 -70.41015625 99.4921875 C-70.51286834 92.94935764 -70.58216213 86.40674087 -70.62988281 79.86328125 C-70.64980857 77.64445223 -70.67695922 75.42567439 -70.71191406 73.20703125 C-71.06101566 50.45382104 -68.3513392 31.97766923 -52.91015625 14.05859375 C-39.12677313 -0.09091048 -18.09543911 -11.37427601 0 0 Z " fill="#FB3D80" transform="translate(227.41015625,183.5078125)"/>
<path d="M0 0 C2.4375 1.75 2.4375 1.75 4 4 C4 5.32 4 6.64 4 8 C5.19625 8.185625 6.3925 8.37125 7.625 8.5625 C21.39056051 11.68413892 33.11539998 19.83203413 40.9375 31.5 C43.7434487 36.19202272 45.53496143 40.7430969 47 46 C47.7425 45.9175 48.485 45.835 49.25 45.75 C52 46 52 46 54.3125 47.625 C56.50197249 50.7064798 56.61793165 52.29241009 56 56 C54.1875 58.375 54.1875 58.375 52 60 C51.01 60 50.02 60 49 60 C48.99742187 60.77601563 48.99484375 61.55203125 48.9921875 62.3515625 C48.50215576 76.03978251 43.3498805 87.08022202 34 97 C33.39542969 97.64582031 32.79085937 98.29164063 32.16796875 98.95703125 C21.63213206 109.1379766 7.72676896 112.41462541 -6.43701172 112.36572266 C-13.27923337 112.22905376 -18.89722788 111.24147241 -25 108 C-25.86882812 107.54109375 -26.73765625 107.0821875 -27.6328125 106.609375 C-42.29837805 98.29159156 -49.70542831 86.88371506 -55 71 C-55.90104369 59.87428532 -56.44481652 48.0218654 -51 38 C-50.5875 37.16855469 -50.175 36.33710938 -49.75 35.48046875 C-42.20576852 21.52792701 -30.27655485 13.3582893 -15.46875 8.6640625 C-13 8 -13 8 -11 8 C-10.896875 7.236875 -10.79375 6.47375 -10.6875 5.6875 C-9.14344149 -0.34836508 -5.91118319 -0.72593478 0 0 Z " fill="#000204" transform="translate(176,359)"/>
<path d="M0 0 C5.82251604 3.69292772 9.93401879 9.59350397 11.84765625 16.171875 C12.27353514 20.08468514 12.26501123 23.97323449 12.25390625 27.90625 C12.26474243 29.02122864 12.27557861 30.13620728 12.28674316 31.28497314 C12.33252088 36.03678302 12.34413894 40.7885362 12.35888672 45.54052734 C12.37453066 49.01680181 12.40750625 52.49261357 12.44140625 55.96875 C12.43838501 57.04686951 12.43536377 58.12498901 12.43225098 59.23577881 C12.44236206 60.23401672 12.45247314 61.23225464 12.46289062 62.26074219 C12.46494507 63.13897644 12.46699951 64.01721069 12.46911621 64.92205811 C12.93438985 67.68736792 13.59656522 68.53430539 15.84765625 70.171875 C17.16765625 70.501875 18.48765625 70.831875 19.84765625 71.171875 C19.84765625 77.111875 19.84765625 83.051875 19.84765625 89.171875 C17.37265625 90.161875 17.37265625 90.161875 14.84765625 91.171875 C11.9613714 94.05815985 12.56991986 96.14928709 12.52880859 100.19189453 C12.51374016 101.27497894 12.51374016 101.27497894 12.49836731 102.37994385 C12.46742553 104.77151681 12.45046999 107.16297729 12.43359375 109.5546875 C12.41489091 111.21093725 12.39531817 112.86717739 12.37490845 114.52340698 C12.3234877 118.88647809 12.28391539 123.24958012 12.24676514 127.61279297 C12.20678763 132.06355502 12.15566685 136.51418732 12.10546875 140.96484375 C12.00859182 149.70043234 11.92422493 158.43608492 11.84765625 167.171875 C9.36088087 166.1843991 6.88963009 165.19057554 4.4453125 164.1015625 C-4.09147312 160.55004922 -12.66557742 159.43398521 -21.60546875 162.265625 C-24.51243889 163.47335173 -27.32794793 164.78469187 -30.15234375 166.171875 C-31.14234375 166.501875 -32.13234375 166.831875 -33.15234375 167.171875 C-33.26926677 147.37865658 -33.35737582 127.58550847 -33.41140461 107.79201603 C-33.43716056 98.60105389 -33.47226103 89.41030662 -33.52954102 80.21948242 C-33.57945607 72.20655798 -33.61165373 64.1937892 -33.62278622 56.18071359 C-33.62929133 51.93975355 -33.64452519 47.69923873 -33.68099403 43.45842171 C-33.71508194 39.46187129 -33.72537121 35.46594698 -33.71788216 31.46926498 C-33.71925103 30.00719608 -33.72910765 28.54510495 -33.74837112 27.08316231 C-33.85439864 18.61702456 -33.51718644 12.00555327 -28.15234375 5.171875 C-25.71484375 2.796875 -25.71484375 2.796875 -23.15234375 1.171875 C-22.28609375 0.594375 -21.41984375 0.016875 -20.52734375 -0.578125 C-13.97505619 -3.00489817 -6.44658149 -2.80631474 0 0 Z " fill="#4B5FDF" transform="translate(467.15234375,276.828125)"/>
<path d="M0 0 C6.351909 3.6889933 11.24525458 9.15207175 13.59375 16.1171875 C13.83984566 19.10626698 13.83984566 19.10626698 13.83425903 22.4889679 C13.83700836 23.77479263 13.83975769 25.06061737 13.84259033 26.38540649 C13.83551293 27.80291842 13.82824333 29.2204294 13.82080078 30.63793945 C13.82023641 32.13619479 13.82055374 33.63445068 13.82168579 35.13270569 C13.82225929 39.19431212 13.81050549 43.25580027 13.79653788 47.31737924 C13.78403001 51.56413437 13.78285997 55.81089225 13.78048706 60.05766296 C13.77427246 68.09694716 13.7578619 76.13617692 13.73778808 84.17543715 C13.71542847 93.32893841 13.70443549 102.48244227 13.69439721 111.63596404 C13.67349567 130.46306938 13.63832006 149.29012406 13.59375 168.1171875 C11.0982133 167.12530509 8.61527173 166.12663775 6.15625 165.046875 C-4.21988697 160.77620887 -13.59261303 160.77620887 -23.96875 165.046875 C-25.1753125 165.57667969 -25.1753125 165.57667969 -26.40625 166.1171875 C-28.07162377 166.78707736 -29.73812776 167.45417136 -31.40625 168.1171875 C-31.49976118 148.43705794 -31.57026244 128.75697357 -31.61349869 109.07666779 C-31.63410914 99.93840602 -31.66220068 90.80028244 -31.70800781 81.66210938 C-31.74792209 73.69570684 -31.77369384 65.7294044 -31.78260398 57.76290464 C-31.78781098 53.54607977 -31.80001749 49.32954119 -31.82917023 45.11280823 C-31.85641203 41.14012211 -31.86467743 37.16783901 -31.85868073 33.19506836 C-31.85977706 31.74065457 -31.86767891 30.28622667 -31.8830719 28.83189392 C-31.98008228 19.1896864 -31.44657862 12.92190261 -25.09375 5.3671875 C-17.59503024 -0.91081044 -9.71295667 -3.56351982 0 0 Z " fill="#4B5FE0" transform="translate(64.40625,275.8828125)"/>
<path d="M0 0 C31.68 0 63.36 0 96 0 C96 37.38873626 96 37.38873626 81.9375 52.6875 C71.01992283 63.0711653 58.98829721 66.39514879 44.37792969 66.37133789 C34.01944355 66.09604067 26.19127217 62.13138448 18 56 C16.96875 55.2575 15.9375 54.515 14.875 53.75 C7.04111934 46.25672284 3.97526307 38.33568397 0 28 C0 18.76 0 9.52 0 0 Z " fill="#FCC9A9" transform="translate(208,110)"/>
<path d="M0 0 C0.00410889 0.94842773 0.00821777 1.89685547 0.01245117 2.87402344 C0.03945746 6.40082816 0.08856376 9.9258964 0.15258789 13.45214844 C0.17575217 14.97677933 0.19016 16.50156988 0.19555664 18.02636719 C0.20485895 20.22171322 0.24586696 22.41455412 0.29296875 24.609375 C0.3086792 25.92905273 0.32438965 27.24873047 0.34057617 28.60839844 C0.73520628 32.06616044 0.73520628 32.06616044 2.98046875 34.42382812 C7.07605649 36.56169314 10.46042311 36.60260395 15.01953125 36.609375 C15.87810226 36.62591125 16.73667328 36.64244751 17.6212616 36.65948486 C20.35174763 36.70790033 23.081677 36.72932106 25.8125 36.75 C27.6686477 36.77816514 29.52476954 36.80809334 31.38085938 36.83984375 C35.92052707 36.91365738 40.45988693 36.96327128 45 37 C44.18174616 48.4028527 40.67969073 57.19162957 32 65 C24.26766081 70.52309942 17.18658612 73.39611612 7.6875 73.375 C6.9349292 73.37338867 6.1823584 73.37177734 5.40698242 73.37011719 C-0.47483538 73.24041328 -4.98495912 72.19338489 -10 69 C-11.0725 68.360625 -12.145 67.72125 -13.25 67.0625 C-21.17041326 61.12219006 -26.7936354 53.71003778 -29 44 C-30.18315804 33.21277139 -29.65234568 23.33893944 -23.08203125 14.38671875 C-17.43017143 7.63449685 -9.4151366 0 0 0 Z " fill="#1584F9" transform="translate(165,383)"/>
<path d="M0 0 C7.69352057 3.98414458 12.7610086 9.59552581 15.5 17.8125 C16.33095599 27.64774954 14.99556106 34.31947548 9.75 42.5625 C3.52923572 48.78326428 -2.5182565 50.93953484 -11.1875 51.1875 C-18.89618146 51.11545625 -23.64889143 49.38368218 -29.2734375 44.16796875 C-36.03758938 36.85938514 -37.13313837 30.30137689 -36.91015625 20.48046875 C-36.0508145 12.79549825 -32.28478248 7.91706773 -26.44140625 3.1015625 C-18.47257374 -2.18961402 -9.15138878 -3.0916854 0 0 Z " fill="#040002" transform="translate(266.5,218.1875)"/>
<path d="M0 0 C4.91431785 3.33159271 8.15883576 7.91476597 10.1953125 13.48828125 C11.40746647 21.16081627 9.5057573 27.11336025 5.1953125 33.48828125 C1.19467728 38.0824173 -4.14580256 40.99723614 -10.19140625 41.80859375 C-16.23607387 42.0862967 -20.90978578 41.12652083 -25.8046875 37.48828125 C-30.59028234 32.96697961 -34.27838057 28.58245956 -35.140625 21.875 C-35.2501252 14.30853615 -34.22022457 9.09634338 -28.93359375 3.51171875 C-19.96568999 -4.72722497 -10.80994939 -6.01494049 0 0 Z " fill="#41A0F5" transform="translate(67.8046875,455.51171875)"/>
<path d="M0 0 C4.19893204 3.02814548 6.97294479 7.04354584 9.26953125 11.63671875 C9.90368243 19.5584105 10.3680688 27.13332101 5.26953125 33.63671875 C0.07985583 38.82639417 -5.29752162 41.73560709 -12.66796875 42.07421875 C-19.17222859 41.8567511 -23.52484643 39.44131883 -28.48046875 35.38671875 C-33.64903711 29.06957965 -35.48780063 23.79326923 -35.17578125 15.53515625 C-34.11341586 8.62046223 -29.75357861 4.0379595 -24.40625 -0.17578125 C-16.74235109 -5.60660938 -7.88848853 -4.33556299 0 0 Z " fill="#42A0F5" transform="translate(468.73046875,455.36328125)"/>
<path d="M0 0 C5.74841562 3.32865134 9.60440035 8.15992367 11.6875 14.4375 C12.84545744 22.37255572 11.38325213 28.91758351 6.6875 35.4375 C4.53164817 37.52951112 2.33236346 39.02895644 -0.3125 40.4375 C-1.09625 40.870625 -1.88 41.30375 -2.6875 41.75 C-9.88517077 43.63510425 -15.49300616 42.6219982 -22.0078125 39.0703125 C-26.54429575 35.85632945 -29.5626054 31.6871838 -31.3125 26.4375 C-31.94833951 18.72403714 -32.2390776 12.62730262 -27.3125 6.4375 C-19.84186295 -1.1747605 -10.29365361 -4.61234864 0 0 Z " fill="#FAC8A7" transform="translate(162.3125,299.5625)"/>
<path d="M0 0 C5.74030722 3.32395613 9.62027381 8.16064957 11.6875 14.4375 C12.61028893 21.61593948 11.84952497 27.46055922 7.6875 33.4375 C3.66803528 38.3501791 -1.21079585 41.6378898 -7.4765625 42.859375 C-13.902524 43.2680934 -19.03231398 40.96377808 -24.3125 37.4375 C-28.6382372 33.57667848 -31.02160753 29.10965179 -31.6484375 23.3515625 C-31.73070022 16.42504185 -31.68378549 11.92962793 -27.3125 6.4375 C-19.84186295 -1.1747605 -10.29365361 -4.61234864 0 0 Z " fill="#FAC8A7" transform="translate(369.3125,299.5625)"/>
<path d="M0 0 C11.53617584 3.1090403 19.93887789 9.34229264 27 19 C31.10222322 26.16384055 32.96271342 31.70170735 34 40 C15.85 40 -2.3 40 -21 40 C-21 34.72 -21 29.44 -21 24 C-19.494375 23.62875 -17.98875 23.2575 -16.4375 22.875 C-9.68215534 20.82734595 -5.56285908 17.81314634 -2.125 11.625 C-0.89575374 7.66409539 -0.36165899 4.12291252 0 0 Z " fill="#B6D7EB" transform="translate(284,38)"/>
<path d="M0 0 C0.14695312 1.06927734 0.14695312 1.06927734 0.296875 2.16015625 C1.47423425 9.70134525 2.69217714 15.21842168 8.75 20.3125 C12.52648738 22.27336845 15.84261509 23.1398514 20 24 C20 28.95 20 33.9 20 39 C2.18 39 -15.64 39 -34 39 C-30.94488819 23.72444093 -24.77436181 13.25541694 -11.84765625 4.18359375 C-7.6797749 1.51368244 -5.00178307 0 0 0 Z " fill="#BBDDF1" transform="translate(228,38)"/>
<path d="M0 0 C1.16188591 -0.01073296 1.16188591 -0.01073296 2.34724426 -0.02168274 C4.89868778 -0.03854375 7.44836786 -0.0191859 9.99975586 0.00219727 C11.77664841 0.0013684 13.55354088 -0.00109163 15.33042908 -0.00511169 C19.05027405 -0.00796779 22.76951627 0.00671423 26.48925781 0.03417969 C31.25668682 0.06828729 36.02303992 0.06223441 40.79052067 0.04351711 C44.45801255 0.03294855 48.1252541 0.04188315 51.7927227 0.05690193 C53.55058486 0.06208361 55.30847316 0.0616021 57.06633186 0.05535698 C59.52265789 0.04990537 61.97744331 0.07027518 64.43359375 0.09765625 C65.52232788 0.08786743 65.52232788 0.08786743 66.63305664 0.07788086 C70.00687003 0.1418213 71.86020923 0.41501716 74.60325623 2.44569397 C76.8722129 5.64717943 76.69857135 7.80580132 76.15209961 11.63110352 C74.60424805 13.8184967 74.60424805 13.8184967 72.15209961 15.63110352 C69.4374407 16.02082555 67.12956502 16.16885623 64.41772461 16.1328125 C63.25605774 16.14091698 63.25605774 16.14091698 62.07092285 16.14918518 C59.51425813 16.1616794 56.95871803 16.14517765 54.40209961 16.12719727 C52.6237787 16.12735224 50.84545744 16.12884093 49.06713867 16.13160706 C45.34140072 16.13299135 41.61604759 16.12042798 37.89038086 16.09765625 C33.11522011 16.06927143 28.34069878 16.07200848 23.56549072 16.08474636 C19.8937433 16.09170212 16.2221436 16.08391545 12.55041504 16.07148933 C10.78975999 16.06697383 9.0290891 16.0666389 7.26843262 16.07055473 C4.80744939 16.07346597 2.34734657 16.05696489 -0.11352539 16.03515625 C-1.20461609 16.04190872 -1.20461609 16.04190872 -2.31774902 16.04879761 C-5.3831829 16.00367317 -7.54982483 15.79319151 -10.26489258 14.31678772 C-12.84754744 11.56661777 -12.91154247 9.32234414 -12.84790039 5.63110352 C-9.13520322 0.67610424 -5.91488536 -0.09554872 0 0 Z " fill="#000103" transform="translate(314.847900390625,389.368896484375)"/>
<path d="M0 0 C0.78405212 -0.00686325 1.56810425 -0.0137265 2.37591553 -0.02079773 C4.97027648 -0.03911396 7.56403546 -0.03522139 10.15844727 -0.02954102 C11.96061908 -0.03410066 13.76278914 -0.03940557 15.56495667 -0.04542542 C19.34366922 -0.05436609 23.12217055 -0.05192273 26.90087891 -0.04199219 C31.74452719 -0.03050375 36.58744633 -0.05070698 41.4309988 -0.07990932 C45.15335222 -0.09825188 48.8755303 -0.09798273 52.59791756 -0.0922718 C54.38370855 -0.09211834 56.16951124 -0.09818363 57.95525932 -0.11056328 C60.4524094 -0.12543439 62.94820495 -0.1148257 65.4453125 -0.09765625 C66.55278587 -0.1121582 66.55278587 -0.1121582 67.68263245 -0.12695312 C71.08484697 -0.0779457 72.97568704 0.17516081 75.75013733 2.2127533 C77.97504708 5.3843589 77.76801295 7.62744292 77.28735352 11.40405273 C75.45620145 14.01998426 74.37766985 14.37394729 71.28735352 15.40405273 C68.80504935 15.52531015 66.34933136 15.59241848 63.8659668 15.61279297 C63.11278168 15.62257675 62.35959656 15.63236053 61.58358765 15.6424408 C59.09163168 15.6723506 56.59972908 15.69376517 54.10766602 15.71264648 C52.83034418 15.72250422 52.83034418 15.72250422 51.52721786 15.73256111 C47.02166148 15.76513183 42.51612857 15.78959092 38.01049805 15.80908203 C34.28163342 15.82691141 30.55352272 15.86175992 26.82495117 15.91162109 C22.32156847 15.9717711 17.81888598 16.00254969 13.3151207 16.01225471 C11.59986088 16.0208174 9.88462019 16.03965576 8.16959 16.06899834 C5.7680714 16.10788131 3.36928751 16.1089536 0.9675293 16.10107422 C0.26086121 16.12107483 -0.44580688 16.14107544 -1.17388916 16.16168213 C-3.94630892 16.12089318 -6.09646622 15.89790727 -8.29779434 14.13359261 C-10.71337359 11.40798909 -11.71264648 9.90395163 -11.71264648 6.21655273 C-9.50007813 -0.00629577 -6.1364017 -0.03731249 0 0 Z " fill="#000205" transform="translate(313.712646484375,370.595947265625)"/>
<path d="M0 0 C0.78419815 -0.0071553 1.5683963 -0.01431061 2.37635803 -0.02168274 C4.96569269 -0.03857641 7.5532975 -0.01916479 10.14257812 0.00219727 C11.94332014 0.00136862 13.74406209 -0.00109059 15.5447998 -0.00511169 C19.31769596 -0.00797014 23.08999862 0.00673573 26.86279297 0.03417969 C31.69862734 0.0682628 36.53340041 0.06224485 41.36928558 0.04351711 C45.08739057 0.03294779 48.80524866 0.04188427 52.52333069 0.05690193 C54.30631273 0.06208472 56.08932055 0.06160076 57.87229919 0.05535698 C60.36464871 0.04990547 62.85547977 0.07027603 65.34765625 0.09765625 C66.08440079 0.09113037 66.82114532 0.08460449 67.58021545 0.07788086 C70.97581437 0.14130285 72.86835297 0.40642205 75.63562012 2.44178772 C77.86283214 5.61175592 77.6544462 7.85481865 77.17382812 11.63110352 C75.34267606 14.24703504 74.26414446 14.60099807 71.17382812 15.63110352 C68.72162794 15.74213599 66.29705515 15.79870183 63.84423828 15.80810547 C63.10080673 15.81467667 62.35737518 15.82124786 61.59141541 15.82801819 C59.1319061 15.84772455 56.67245772 15.85940667 54.21289062 15.86938477 C52.95211763 15.87549806 52.95211763 15.87549806 51.66587448 15.88173485 C47.21865841 15.90258239 42.7714731 15.91689083 38.32421875 15.92626953 C33.73183052 15.93734238 29.1399257 15.97175583 24.54770851 16.01144123 C21.01493427 16.0375841 17.48227577 16.04595918 13.9494133 16.04955101 C12.25653181 16.05442157 10.56365565 16.06604899 8.87086868 16.084589 C6.50092425 16.10893593 4.13223822 16.10802436 1.76220703 16.10107422 C1.06488968 16.11388428 0.36757233 16.12669434 -0.35087585 16.13989258 C-3.85502956 16.10248304 -5.7483868 15.68047787 -8.73403931 13.7853241 C-10.82617188 11.63110352 -10.82617188 11.63110352 -11.88867188 8.69360352 C-11.82617188 5.63110352 -11.82617188 5.63110352 -10.31140137 2.97914124 C-7.0085031 -0.1414276 -4.31977214 -0.06855516 0 0 Z " fill="#000307" transform="translate(313.826171875,409.368896484375)"/>
<path d="M0 0 C3.3125 2 3.3125 2 6 4 C6.70125 3.319375 7.4025 2.63875 8.125 1.9375 C11 0 11 0 14.0625 0 C17.45720755 1.15564512 18.93751175 2.06492057 21 5 C21.68543938 9.02695637 21.34966143 10.49736169 19 13.875 C18.34 14.57625 17.68 15.2775 17 16 C17.66 16.70125 18.32 17.4025 19 18.125 C21.34966143 21.50263831 21.68543938 22.97304363 21 27 C19.4375 29.375 19.4375 29.375 17 31 C13.11959911 31.48505011 10.9238388 31.56851618 7.5625 29.5 C7.046875 29.005 6.53125 28.51 6 28 C3.3094472 29.22007944 3.3094472 29.22007944 1 31 C-2.85797355 31.36395977 -5.15988698 31.56007535 -8.4375 29.375 C-10.45932313 26.30182885 -10.52755517 24.61752119 -10 21 C-9.195625 19.9790625 -9.195625 19.9790625 -8.375 18.9375 C-7.92125 18.298125 -7.4675 17.65875 -7 17 C-7.66771183 14.60736593 -8.22097385 12.77902615 -10 11 C-10.375 7.6875 -10.375 7.6875 -10 4 C-6.95317187 0.60496294 -4.55213072 -0.88822063 0 0 Z " fill="#000306" transform="translate(261,370)"/>
<path d="M0 0 C1.9375 1.5 1.9375 1.5 3 3 C6.24983135 1.91215032 6.24983135 1.91215032 9 0 C12.85797355 -0.36395977 15.15988698 -0.56007535 18.4375 1.625 C20.45932313 4.69817115 20.52755517 6.38247881 20 10 C18.625 12.375 18.625 12.375 17 14 C16.34 14 15.68 14 15 14 C15.825 14.86625 16.65 15.7325 17.5 16.625 C19.47719198 19.01340285 19.99224907 19.95693927 20.5625 23.125 C19.85705887 26.73058798 18.98487098 27.87917062 16 30 C13.125 31 13.125 31 10 31 C6.625 29.0625 6.625 29.0625 4 27 C3.319375 27.680625 2.63875 28.36125 1.9375 29.0625 C-1 31 -1 31 -4.625 31 C-8 30 -8 30 -9.9375 28.3125 C-11.32431433 25.2941394 -11.4112874 23.29029921 -11 20 C-9.5 17.625 -9.5 17.625 -8 16 C-8.309375 15.38125 -8.61875 14.7625 -8.9375 14.125 C-10.79410319 10.41179362 -11.42429362 8.24293623 -11 4 C-8.05323917 -0.47907646 -5.13567732 -0.65363166 0 0 Z " fill="#000306" transform="translate(262,412)"/>
<path d="M0 0 C1.28874023 -0.0299707 1.28874023 -0.0299707 2.60351562 -0.06054688 C3.43431641 -0.05990234 4.26511719 -0.05925781 5.12109375 -0.05859375 C5.87704834 -0.06044678 6.63300293 -0.0622998 7.41186523 -0.06420898 C10.49183979 0.65430023 11.66831512 1.93908544 13.5625 4.4375 C14.06420898 7.03125 14.06420898 7.03125 14.05859375 9.9375 C14.05923828 10.989375 14.05988281 12.04125 14.06054688 13.125 C14.04056641 14.218125 14.02058594 15.31125 14 16.4375 C14.00708984 17.530625 14.01417969 18.62375 14.02148438 19.75 C13.95815144 27.70071877 13.95815144 27.70071877 12.32055664 30.75024414 C10.09858596 32.88273121 9.04439008 32.94061833 6 32.93359375 C5.12085938 32.93423828 4.24171875 32.93488281 3.3359375 32.93554688 C2.42070312 32.91556641 1.50546875 32.89558594 0.5625 32.875 C-0.35273438 32.88208984 -1.26796875 32.88917969 -2.2109375 32.89648438 C-8.83679099 32.83333474 -8.83679099 32.83333474 -11.19775391 31.27758789 C-12.95794863 28.66502633 -12.82588358 26.69549296 -12.8359375 23.5625 C-12.83980469 22.41265625 -12.84367188 21.2628125 -12.84765625 20.078125 C-12.83605469 18.87671875 -12.82445312 17.6753125 -12.8125 16.4375 C-12.82410156 15.23609375 -12.83570313 14.0346875 -12.84765625 12.796875 C-12.84378906 11.64703125 -12.83992187 10.4971875 -12.8359375 9.3125 C-12.83255371 8.25804687 -12.82916992 7.20359375 -12.82568359 6.1171875 C-12.4375 3.4375 -12.4375 3.4375 -11.18188477 1.59741211 C-7.82266866 -0.63626679 -3.90815951 -0.03210587 0 0 Z " fill="#DFF0FB" transform="translate(255.4375,14.5625)"/>
<path d="M0 0 C1.28197266 -0.00064453 2.56394531 -0.00128906 3.88476562 -0.00195312 C4.88141235 0.01363647 4.88141235 0.01363647 5.89819336 0.02954102 C7.931003 0.05855677 9.96121192 0.05013309 11.99414062 0.03710938 C21.84322772 0.10154729 21.84322772 0.10154729 24.25219727 1.90209961 C25.6482442 3.8909258 25.77354487 5.08039493 25.74609375 7.49609375 C25.75769531 8.51703125 25.75769531 8.51703125 25.76953125 9.55859375 C25.23313143 12.16696933 24.50722645 12.89946971 22.37109375 14.49609375 C18.25083611 15.06250511 14.1304244 14.96876398 9.97436523 14.94213867 C7.94346556 14.93363508 5.91538685 14.96237754 3.88476562 14.99414062 C1.96180664 14.99317383 1.96180664 14.99317383 0 14.9921875 C-1.1748999 14.99404053 -2.3497998 14.99589355 -3.56030273 14.99780273 C-7.23939326 14.39628065 -8.41655059 13.44668073 -10.62890625 10.49609375 C-11.12890625 7.49609375 -11.12890625 7.49609375 -10.62890625 4.49609375 C-7.49167401 0.31201216 -5.10253988 -0.00804762 0 0 Z " fill="#000103" transform="translate(365.62890625,462.50390625)"/>
<path d="M0 0 C1.28197266 -0.00064453 2.56394531 -0.00128906 3.88476562 -0.00195312 C4.88141235 0.01363647 4.88141235 0.01363647 5.89819336 0.02954102 C7.931003 0.05855677 9.96121192 0.05013309 11.99414062 0.03710938 C21.84322772 0.10154729 21.84322772 0.10154729 24.25219727 1.90209961 C25.6482442 3.8909258 25.77354487 5.08039493 25.74609375 7.49609375 C25.75769531 8.51703125 25.75769531 8.51703125 25.76953125 9.55859375 C25.23313143 12.16696933 24.50722645 12.89946971 22.37109375 14.49609375 C18.25083611 15.06250511 14.1304244 14.96876398 9.97436523 14.94213867 C7.94346556 14.93363508 5.91538685 14.96237754 3.88476562 14.99414062 C1.96180664 14.99317383 1.96180664 14.99317383 0 14.9921875 C-1.1748999 14.99404053 -2.3497998 14.99589355 -3.56030273 14.99780273 C-7.23939326 14.39628065 -8.41655059 13.44668073 -10.62890625 10.49609375 C-11.12890625 7.49609375 -11.12890625 7.49609375 -10.62890625 4.49609375 C-7.49167401 0.31201216 -5.10253988 -0.00804762 0 0 Z " fill="#000102" transform="translate(314.62890625,462.50390625)"/>
<path d="M0 0 C1.28197266 -0.00064453 2.56394531 -0.00128906 3.88476562 -0.00195312 C4.88141235 0.01363647 4.88141235 0.01363647 5.89819336 0.02954102 C7.931003 0.05855677 9.96121192 0.05013309 11.99414062 0.03710938 C21.84322772 0.10154729 21.84322772 0.10154729 24.25219727 1.90209961 C25.6482442 3.8909258 25.77354487 5.08039493 25.74609375 7.49609375 C25.75769531 8.51703125 25.75769531 8.51703125 25.76953125 9.55859375 C25.23313143 12.16696933 24.50722645 12.89946971 22.37109375 14.49609375 C18.25083611 15.06250511 14.1304244 14.96876398 9.97436523 14.94213867 C7.94346556 14.93363508 5.91538685 14.96237754 3.88476562 14.99414062 C1.96180664 14.99317383 1.96180664 14.99317383 0 14.9921875 C-1.1748999 14.99404053 -2.3497998 14.99589355 -3.56030273 14.99780273 C-7.23939326 14.39628065 -8.41655059 13.44668073 -10.62890625 10.49609375 C-11.12890625 7.49609375 -11.12890625 7.49609375 -10.62890625 4.49609375 C-7.49167401 0.31201216 -5.10253988 -0.00804762 0 0 Z " fill="#000102" transform="translate(263.62890625,462.50390625)"/>
<path d="M0 0 C48.84 0 97.68 0 148 0 C148 0.99 148 1.98 148 3 C99.16 3 50.32 3 0 3 C0 2.01 0 1.02 0 0 Z " fill="#B2C0C9" transform="translate(182,92)"/>
<path d="M0 0 C0.33 0 0.66 0 1 0 C1 23.1 1 46.2 1 70 C31.36 70 61.72 70 93 70 C93 71.32 93 72.64 93 74 C62.31 74 31.62 74 0 74 C0 49.58 0 25.16 0 0 Z " fill="#E21353" transform="translate(209,238)"/>
<path d="M0 0 C12.5218683 2.7826374 18.33889078 7.23852928 25.6015625 17.64453125 C27 20 27 20 27 22 C18.09 22 9.18 22 0 22 C0 14.74 0 7.48 0 0 Z " fill="#157FF0" transform="translate(180,383)"/>
<path d="M0 0 C4.101939 0.01760489 4.95892934 0.14333151 8.3125 2.8125 C8.951875 3.658125 9.59125 4.50375 10.25 5.375 C10.58 5.705 10.91 6.035 11.25 6.375 C11.9466351 10.57855949 12.32304489 14.65610991 10.00390625 18.37109375 C6.83881308 21.41923198 4.02249065 22.77522674 -0.375 23.0625 C-4.02201883 22.8260039 -4.74550696 22.37865059 -7.75 19.9375 C-8.41 19.091875 -9.07 18.24625 -9.75 17.375 C-10.08 17.045 -10.41 16.715 -10.75 16.375 C-11.18836682 12.99331307 -11.23685233 9.75155645 -10.75 6.375 C-8.3125 3.3125 -8.3125 3.3125 -5.75 1.375 C-4.10843264 -0.26656736 -2.25784199 0.08684008 0 0 Z " fill="#F73C7E" transform="translate(255.75,231.625)"/>
<path d="M0 0 C0.94166016 -0.02384766 1.88332031 -0.04769531 2.85351562 -0.07226562 C7.55860693 -0.06230425 9.8523289 0.03514523 13.71875 2.90625 C15.5625 5.5625 15.5625 5.5625 15.625 8.625 C14.36559356 12.10688839 13.55928705 13.37289708 10.5625 15.5625 C7.4064414 16.13394393 4.32337684 16.07517034 1.125 16 C-0.1444043 16.01063477 -0.1444043 16.01063477 -1.43945312 16.02148438 C-6.22467288 15.97277031 -9.57903645 15.69989879 -13.4375 12.5625 C-14.85791821 9.72166359 -14.75202272 7.70772722 -14.4375 4.5625 C-10.9998386 -0.86900501 -5.78044605 -0.0669854 0 0 Z " fill="#050102" transform="translate(255.4375,274.4375)"/>
<path d="M0 0 C5.3880015 0 9.01597481 2.7457556 13.41015625 5.5078125 C17.11640069 7.64323539 20.91568859 8.81236335 25 10 C26.38832031 10.52400391 26.38832031 10.52400391 27.8046875 11.05859375 C42.93916458 15.51752893 60.76287685 10.81503137 74.20703125 3.62109375 C76.17652256 2.47796243 78.10525409 1.26316394 80 0 C83.1875 -0.125 83.1875 -0.125 86 0 C77.33263286 9.82301609 63.91204868 15.8033456 51 17 C30.94524714 18.11801984 14.1459518 14.68610499 -2 2 C-1.34 1.34 -0.68 0.68 0 0 Z " fill="#E71051" transform="translate(214,178)"/>
<path d="M0 0 C2.86912909 0.09103685 5.70100779 0.23777556 8.5625 0.4375 C11.346875 0.623125 14.13125 0.80875 17 1 C17 8.26 17 15.52 17 23 C4.89918079 23.61115249 4.89918079 23.61115249 1.09765625 21.02734375 C-1.71940178 16.96175721 -1.61052906 14.06616322 -1.375 9.25 C-1.36082031 8.47011719 -1.34664062 7.69023438 -1.33203125 6.88671875 C-1.18324498 1.18324498 -1.18324498 1.18324498 0 0 Z " fill="#F5A780" transform="translate(176,109)"/>
<path d="M0 0 C0.08139142 2.39652528 0.14067009 4.79025436 0.1875 7.1875 C0.21263672 7.86103516 0.23777344 8.53457031 0.26367188 9.22851562 C0.32907829 13.69795374 -0.15948381 16.5083992 -3 20 C-7 22 -7 22 -18 22 C-18 14.74 -18 7.48 -18 0 C-3.53571429 -1.20535714 -3.53571429 -1.20535714 0 0 Z " fill="#F9AA82" transform="translate(337,110)"/>
<path d="M0 0 C0.33 0 0.66 0 1 0 C1 14.52 1 29.04 1 44 C4.3 44.66 7.6 45.32 11 46 C16.81668188 48.59279545 21.80204511 52.20233727 26 57 C26.845625 57.9075 27.69125 58.815 28.5625 59.75 C31.17434392 62.89571139 32.61657876 66.3621171 34.10546875 70.14453125 C34.85478034 72.18217002 34.85478034 72.18217002 37 73 C37 49.57 37 26.14 37 2 C37.33 2 37.66 2 38 2 C38 26.75 38 51.5 38 77 C35.69 77 33.38 77 31 77 C30.78085938 76.3709375 30.56171875 75.741875 30.3359375 75.09375 C26.20420294 63.94142583 20.23676358 57.13529347 9.9375 51.25 C6.39512341 49.67107577 6.39512341 49.67107577 0 48 C0 32.16 0 16.32 0 0 Z " fill="#BB1347" transform="translate(157,235)"/>
<path d="M0 0 C0.81533203 -0.00708984 1.63066406 -0.01417969 2.47070312 -0.02148438 C8.45115302 0.04239882 8.45115302 0.04239882 10.66821289 1.84350586 C12.25009773 3.83006599 12.34108979 4.92159853 12.3125 7.4375 C12.32023437 8.118125 12.32796875 8.79875 12.3359375 9.5 C11.81564321 12.03005851 10.92799976 12.82044708 8.9375 14.4375 C5.98787331 15.05519355 3.00717159 14.90114932 0 14.875 C-0.81146484 14.89498047 -1.62292969 14.91496094 -2.45898438 14.93554688 C-6.32929332 14.93237189 -8.40100819 14.91756571 -11.59765625 12.59765625 C-13.60295958 9.64050228 -13.64611635 7.93919811 -13.0625 4.4375 C-9.63871456 -0.61144226 -5.56789111 -0.1370966 0 0 Z " fill="#000203" transform="translate(379.0625,428.5625)"/>
<path d="M0 0 C0.33 0 0.66 0 1 0 C1 23.1 1 46.2 1 70 C1.66 70 2.32 70 3 70 C3.13535156 69.45472656 3.27070313 68.90945313 3.41015625 68.34765625 C6.61256728 57.12962957 14.04269545 49.80275203 24 44 C28.31844239 42.22006109 32.31698137 41 37 41 C37 42.32 37 43.64 37 45 C36.23816406 45.29132813 35.47632813 45.58265625 34.69140625 45.8828125 C22.62623996 50.67272871 15.03136623 55.1428823 9 67 C8.08418977 69.37129434 7.49995502 71.50022488 7 74 C4.69 74 2.38 74 0 74 C0 49.58 0 25.16 0 0 Z " fill="#DC1755" transform="translate(317,238)"/>
<path d="M0 0 C2.9375 0.5625 2.9375 0.5625 5.3125 2.125 C7.56090519 5.49760779 7.50533945 7.58762383 6.9375 11.5625 C5.375 14 5.375 14 2.9375 15.5625 C-1.03737617 16.13033945 -3.12739221 16.18590519 -6.5 13.9375 C-8.56041771 10.80566508 -8.7392545 9.24705227 -8.0625 5.5625 C-5.57647551 2.19905511 -4.14824477 0.76192251 0 0 Z " fill="#0E0B09" transform="translate(281.0625,114.4375)"/>
<path d="M0 0 C2.4375 1.625 2.4375 1.625 4 4 C4.60605429 7.63632575 4.47161336 9.28314769 2.4375 12.375 C-0.93510779 14.62340519 -3.02512383 14.56783945 -7 14 C-9.4375 12.375 -9.4375 12.375 -11 10 C-11.60605429 6.36367425 -11.47161336 4.71685231 -9.4375 1.625 C-6.06489221 -0.62340519 -3.97487617 -0.56783945 0 0 Z " fill="#000409" transform="translate(236,338)"/>
<path d="M0 0 C2.375 1.5625 2.375 1.5625 4 4 C4.56783945 7.97487617 4.62340519 10.06489221 2.375 13.4375 C-0.71685231 15.47161336 -2.36367425 15.60605429 -6 15 C-8.375 13.4375 -8.375 13.4375 -10 11 C-10.56783945 7.02512383 -10.62340519 4.93510779 -8.375 1.5625 C-5.28314769 -0.47161336 -3.63632575 -0.60605429 0 0 Z " fill="#090706" transform="translate(234,115)"/>
<path d="M0 0 C2.5 1.5625 2.5 1.5625 4 4 C3.93913078 7.46954545 3.6274029 9.91947278 1.875 12.9375 C-1.18452459 14.6712306 -3.56817525 14.42145216 -7 14 C-9.4375 12.375 -9.4375 12.375 -11 10 C-11.60605429 6.36367425 -11.47161336 4.71685231 -9.4375 1.625 C-6.06489221 -0.62340519 -3.97487617 -0.56783945 0 0 Z " fill="#000408" transform="translate(306,338)"/>
<path d="M0 0 C2.4375 1.625 2.4375 1.625 4 4 C4.60605429 7.63632575 4.47161336 9.28314769 2.4375 12.375 C-0.93510779 14.62340519 -3.02512383 14.56783945 -7 14 C-9.4375 12.375 -9.4375 12.375 -11 10 C-11.60605429 6.36367425 -11.47161336 4.71685231 -9.4375 1.625 C-6.06489221 -0.62340519 -3.97487617 -0.56783945 0 0 Z " fill="#000408" transform="translate(213,338)"/>
<path d="M0 0 C2.375 1.5625 2.375 1.5625 4 4 C4.56783945 7.97487617 4.62340519 10.06489221 2.375 13.4375 C-0.71685231 15.47161336 -2.36367425 15.60605429 -6 15 C-8.375 13.4375 -8.375 13.4375 -10 11 C-10.56783945 7.02512383 -10.62340519 4.93510779 -8.375 1.5625 C-5.28314769 -0.47161336 -3.63632575 -0.60605429 0 0 Z " fill="#000407" transform="translate(131,467)"/>
<path d="M0 0 C2 1 2 1 3 3 C3.52265149 6.5838959 3.66071832 9.75629493 1.9375 13 C-1.17909511 14.60856522 -3.56262469 14.42213381 -7 14 C-9.4375 12.4375 -9.4375 12.4375 -11 10 C-11.42213381 6.56262469 -11.60856522 4.17909511 -10 1.0625 C-6.75629493 -0.66071832 -3.5838959 -0.52265149 0 0 Z " fill="#000306" transform="translate(283,338)"/>
<path d="M0 0 C2.4375 1.625 2.4375 1.625 4 4 C4.60605429 7.63632575 4.47161336 9.28314769 2.4375 12.375 C-0.8994213 14.5996142 -3.06905293 14.50030235 -7 14 C-8.9375 13 -8.9375 13 -10 11 C-10.52960415 7.41957756 -10.65886567 4.24021772 -8.9375 1 C-5.82090489 -0.60856522 -3.43737531 -0.42213381 0 0 Z " fill="#000204" transform="translate(259,338)"/>
</svg>
