<?xml version="1.0" encoding="UTF-8"?>
<svg xmlns="http://www.w3.org/2000/svg" viewBox="0 0 512 512" fill="none">
<path d="M0 0 C1.59724663 -0.01925285 1.59724663 -0.01925285 3.22676086 -0.03889465 C4.95952522 -0.04997505 4.95952522 -0.04997505 6.72729492 -0.0612793 C7.91119308 -0.06935104 9.09509125 -0.07742279 10.31486511 -0.08573914 C12.82415294 -0.09958868 15.33345969 -0.11030692 17.84277344 -0.11816406 C21.68159651 -0.13538069 25.51955949 -0.17926123 29.3581543 -0.22338867 C31.79369483 -0.23351493 34.22924269 -0.24203124 36.66479492 -0.2487793 C37.81389847 -0.26628738 38.96300201 -0.28379547 40.14692688 -0.30183411 C48.12559206 -0.2801061 48.12559206 -0.2801061 52.09716797 2.07861328 C55.55037265 6.10852425 55.02402686 9.82430213 54.99291992 14.90356445 C54.9907975 16.19778824 54.9907975 16.19778824 54.9886322 17.51815796 C54.98302555 20.27947426 54.97047194 23.04071008 54.95776367 25.80200195 C54.95274953 27.67179245 54.94818647 29.54158422 54.9440918 31.41137695 C54.93305396 35.99994973 54.91578487 40.58846219 54.89526367 45.17700195 C56.5645074 45.17008851 56.5645074 45.17008851 58.26747322 45.16303539 C85.33301572 45.05208509 112.39852876 44.96989579 139.46425056 44.91794109 C152.55299075 44.89214899 165.64158079 44.85697894 178.73022461 44.79980469 C190.13701122 44.75000089 201.54368911 44.71771827 212.95058143 44.70655948 C218.9916472 44.70003568 225.03240191 44.68468143 231.07336807 44.64835167 C236.75819616 44.61444034 242.44258472 44.60393935 248.12750435 44.61146355 C250.21488266 44.61008684 252.30227551 44.6001257 254.38956642 44.58097458 C257.23877785 44.55611281 260.08632788 44.56207187 262.93557739 44.57572937 C263.76243612 44.56116516 264.58929486 44.54660096 265.44120991 44.53159541 C269.83331155 44.5885399 273.51492874 45.03744691 276.82459891 48.28199607 C279.36840855 52.78437104 278.70196109 58.29471009 278.64370728 63.31066895 C278.64918886 64.67674228 278.6572934 66.04280718 278.66779459 67.40885115 C278.68898237 71.16215324 278.67270355 74.91450372 278.65029359 78.66776443 C278.63262095 82.71556864 278.64949317 86.76324754 278.66201782 90.81105042 C278.68100485 98.74041742 278.66778489 106.66942069 278.64349194 114.59876072 C278.61626356 123.82976472 278.61952661 133.06068186 278.6237586 142.2917158 C278.63013998 158.76055129 278.60679396 175.22921384 278.56762695 191.69799805 C278.52961789 207.68405424 278.51545162 223.66990772 278.52661133 239.65600586 C278.53872306 257.05737043 278.53837988 274.45864583 278.51563966 291.86000299 C278.51322504 293.71502336 278.51081307 295.57004372 278.50840378 297.42506409 C278.50659316 298.79417709 278.50659316 298.79417709 278.50474597 300.19094893 C278.4969826 306.62775204 278.49777685 313.06452198 278.50157547 319.50132751 C278.50581686 327.34404824 278.49539058 335.1865913 278.46634836 343.02926195 C278.45184677 347.03192178 278.44371765 351.03432268 278.45283508 355.03700447 C278.46097562 358.69987579 278.4506937 362.36221201 278.42558293 366.02500206 C278.41693429 367.98052277 278.42792227 369.93609971 278.43956149 371.8916049 C278.4278971 373.05148058 278.41623271 374.21135627 278.40421486 375.4063797 C278.4024813 376.40727017 278.40074775 377.40816064 278.39896166 378.43938112 C277.75141849 381.95880688 276.37731676 383.64181706 273.89526367 386.17700195 C270.41419853 387.337357 267.71054038 387.29702899 264.03710938 387.29052734 C263.34416779 387.29067337 262.6512262 387.2908194 261.93728638 387.29096985 C259.6485073 387.29027358 257.35980977 387.28249456 255.07104492 387.2746582 C253.48349553 387.27279301 251.89594556 387.27136958 250.30839539 387.27037048 C246.13103647 387.2665533 241.95371236 387.25672981 237.77636719 387.2456665 C233.51326976 387.23543523 229.25016671 387.23086918 224.98706055 387.22583008 C216.62311229 387.21510684 208.25919231 387.19803998 199.89526367 387.17700195 C203.36348418 400.15587699 206.83200876 413.13467073 210.30091572 426.11336231 C211.91185874 432.1406395 213.52269916 438.16794407 215.13330078 444.1953125 C216.6891942 450.01793052 218.24536277 455.84047493 219.80171776 461.66296959 C220.39383826 463.87834776 220.98586158 466.09375191 221.57778358 468.30918312 C222.41031813 471.42510481 223.24320613 474.54093184 224.07617188 477.65673828 C224.31785599 478.56161484 224.5595401 479.46649139 224.80854797 480.39878845 C225.03985413 481.26373932 225.27116028 482.12869019 225.50947571 483.01985168 C225.73368509 483.85866693 225.95789448 484.69748219 226.18889809 485.56171608 C226.69330445 487.42925727 227.2051141 489.29480534 227.72185326 491.15897179 C227.99319902 492.13858187 228.26454479 493.11819195 228.54411316 494.12748718 C228.91599904 495.45885476 228.91599904 495.45885476 229.29539776 496.81711864 C230.52423351 501.65138061 230.49566798 504.11628767 228.02026367 508.48950195 C225.89526367 511.17700195 225.89526367 511.17700195 223.89526367 512.17700195 C222.13514104 512.29311928 220.37072894 512.34661573 218.60693359 512.36987305 C217.502061 512.38593597 216.39718842 512.4019989 215.25883484 512.41854858 C210.20364943 512.4629223 205.14859622 512.50405996 200.09326172 512.52709961 C197.42434806 512.54043483 194.7572418 512.57095997 192.08837891 512.60913086 C188.24642854 512.66381547 184.40551924 512.68576182 180.56323242 512.70043945 C179.37038132 512.72310883 178.17753021 512.7457782 176.9485321 512.76913452 C168.83945324 512.74839453 168.83945324 512.74839453 164.81469727 510.31274414 C162.11464979 505.90172789 160.83238354 501.45974367 159.51635742 496.48168945 C159.07724281 494.89951126 159.07724281 494.89951126 158.6292572 493.28536987 C157.70059269 489.9203774 156.79659474 486.54940816 155.89526367 483.17700195 C155.30373107 481.00264344 154.71145516 478.82848699 154.1184082 476.65454102 C152.66202374 471.28897787 151.23141938 465.91697034 149.81298828 460.54125977 C148.93769989 457.22600818 148.05637678 453.91239757 147.17456055 450.59887695 C146.61366459 448.48178191 146.05310398 446.36459798 145.49291992 444.24731445 C145.23052017 443.26111115 144.96812042 442.27490784 144.69776917 441.25881958 C144.46009323 440.3554184 144.2224173 439.45201721 143.97753906 438.52124023 C143.76770889 437.72759064 143.55787872 436.93394104 143.34169006 436.11624146 C142.89526367 434.17700195 142.89526367 434.17700195 142.89526367 432.17700195 C63.03526367 432.17700195 -16.82473633 432.17700195 -99.10473633 432.17700195 C-100.42473633 437.78700195 -101.74473633 443.39700195 -103.10473633 449.17700195 C-105.21016883 457.48560857 -107.3936021 465.77215621 -109.59545898 474.05566406 C-110.27318797 476.61329587 -110.94597221 479.17224265 -111.61401367 481.73242188 C-112.58965947 485.47081332 -113.57988171 489.20506779 -114.57348633 492.9387207 C-114.86839966 494.07935471 -115.16331299 495.21998871 -115.46716309 496.39518738 C-116.98149929 502.01708351 -118.36123336 506.66032164 -122.10473633 511.17700195 C-124.66491669 512.45709213 -126.52638913 512.33207318 -129.39306641 512.36987305 C-130.497939 512.38593597 -131.60281158 512.4019989 -132.74116516 512.41854858 C-137.79635057 512.4629223 -142.85140378 512.50405996 -147.90673828 512.52709961 C-150.57565194 512.54043483 -153.2427582 512.57095997 -155.91162109 512.60913086 C-159.75357146 512.66381547 -163.59448076 512.68576182 -167.43676758 512.70043945 C-168.62961868 512.72310883 -169.82246979 512.7457782 -171.0514679 512.76913452 C-180.26567254 512.74556804 -180.26567254 512.74556804 -183.33398438 509.76928711 C-186.81837193 504.66833204 -185.98510275 501.14141757 -185.10473633 495.17700195 C-184.41700352 491.85035717 -183.55272295 488.58673705 -182.65209961 485.31201172 C-182.40317963 484.38212433 -182.15425964 483.45223694 -181.89779663 482.49417114 C-181.08098419 479.45019246 -180.25312243 476.40934081 -179.42504883 473.3684082 C-178.85005692 471.23447208 -178.27575813 469.10034908 -177.70211792 466.96604919 C-176.19447564 461.36414185 -174.67740376 455.76483092 -173.1583252 450.16601562 C-171.62036194 444.49089683 -170.09148274 438.81333278 -168.56176758 433.13598633 C-164.43017685 417.81073544 -160.29290801 402.48690571 -156.10473633 387.17700195 C-156.98312668 387.18366379 -157.86151703 387.19032562 -158.76652527 387.19718933 C-167.05012754 387.257335 -175.33365632 387.30299395 -183.61742687 387.33243847 C-187.87606825 387.34808517 -192.13452899 387.36930513 -196.39306641 387.40332031 C-200.50387151 387.43594948 -204.614503 387.45386246 -208.72542763 387.46163368 C-210.29270472 387.46717082 -211.85997246 387.4779836 -213.42717552 387.49419212 C-215.62483525 387.51601424 -217.82178036 387.51896696 -220.01953125 387.51757812 C-221.26973557 387.52423996 -222.51993988 387.53090179 -223.80802917 387.5377655 C-227.40958735 387.14364165 -229.24400366 386.36133341 -232.10473633 384.17700195 C-234.36560471 380.78569938 -234.35769695 379.62810822 -234.36759186 375.65247536 C-234.37527415 374.49658177 -234.38295644 373.34068818 -234.39087152 372.14976752 C-234.38913856 370.87401276 -234.3874056 369.59825799 -234.38562012 368.28384399 C-234.39078628 366.91950595 -234.39681228 365.55517093 -234.40362692 364.19084013 C-234.41978672 360.43333508 -234.42334714 356.6759064 -234.42482185 352.91837072 C-234.42851949 348.86918933 -234.4436123 344.82004773 -234.45709229 340.77088928 C-234.4842729 331.91358121 -234.49631021 323.05629122 -234.5051136 314.19894838 C-234.51063548 308.6709012 -234.51910958 303.14286102 -234.52812195 297.61481857 C-234.55250795 282.31606548 -234.5731072 267.01731802 -234.57987213 251.71854591 C-234.58031126 250.73912976 -234.5807504 249.75971361 -234.58120283 248.75061818 C-234.58163939 247.76883199 -234.58207595 246.78704581 -234.58252573 245.77550852 C-234.58341267 243.78596727 -234.5843058 241.79642602 -234.58520508 239.80688477 C-234.58586937 238.32655662 -234.58586937 238.32655662 -234.58654708 236.81632285 C-234.59444634 220.81838756 -234.62936403 204.8206343 -234.67592412 188.82276936 C-234.72331596 172.40695281 -234.74827418 155.99122767 -234.75060797 139.57534158 C-234.75244337 130.35472921 -234.76399532 121.13435406 -234.80024719 111.91380692 C-234.8310018 104.06370681 -234.84131849 96.21391722 -234.82477099 88.36376835 C-234.81694098 84.35691682 -234.81889723 80.35069103 -234.84688568 76.34391594 C-234.87226573 72.67710223 -234.87005899 69.01138751 -234.84570426 65.3445764 C-234.8399076 63.38691516 -234.86373819 61.42923581 -234.88854837 59.4717232 C-234.78095504 49.99292545 -234.78095504 49.99292545 -231.61878014 46.89288616 C-227.21764065 44.74383904 -223.97700807 44.49061974 -219.14505005 44.57572937 C-218.25379264 44.57145725 -217.36253523 44.56718512 -216.44427001 44.56278354 C-213.46355298 44.55456024 -210.48424907 44.58202779 -207.50366211 44.609375 C-205.36487359 44.61078561 -203.22608265 44.60999324 -201.08729553 44.60716248 C-195.28390478 44.60572744 -189.48103037 44.63513198 -183.67775965 44.67003226 C-177.61193106 44.70128086 -171.54609075 44.70422534 -165.48019409 44.7101593 C-153.99488151 44.72570208 -142.50980678 44.76673668 -131.02459896 44.81690675 C-117.94856323 44.87278648 -104.87251617 44.90028332 -91.79639077 44.92538393 C-64.89904073 44.97765194 -38.00190186 45.06560292 -11.10473633 45.17700195 C-11.12568359 44.02176025 -11.14663086 42.86651855 -11.16821289 41.67626953 C-11.24074031 37.38066048 -11.28658226 33.0851053 -11.32446289 28.7890625 C-11.34454938 26.93154797 -11.37182411 25.07409644 -11.40649414 23.21679688 C-11.4551437 20.54321732 -11.47773442 17.87047539 -11.49536133 15.1965332 C-11.51600647 14.36926224 -11.53665161 13.54199127 -11.55792236 12.68965149 C-11.55948676 8.6485917 -11.41941112 6.67421239 -9.20532227 3.17578125 C-6.04098813 0.1648092 -4.26751228 0.04470215 0 0 Z " fill="#B0D852" transform="translate(234.104736328125,-0.177001953125)"/>
<path d="M0 0 C1.59724663 -0.01925285 1.59724663 -0.01925285 3.22676086 -0.03889465 C4.95952522 -0.04997505 4.95952522 -0.04997505 6.72729492 -0.0612793 C7.91119308 -0.06935104 9.09509125 -0.07742279 10.31486511 -0.08573914 C12.82415294 -0.09958868 15.33345969 -0.11030692 17.84277344 -0.11816406 C21.68159651 -0.13538069 25.51955949 -0.17926123 29.3581543 -0.22338867 C31.79369483 -0.23351493 34.22924269 -0.24203124 36.66479492 -0.2487793 C37.81389847 -0.26628738 38.96300201 -0.28379547 40.14692688 -0.30183411 C48.12559206 -0.2801061 48.12559206 -0.2801061 52.09716797 2.07861328 C55.55037265 6.10852425 55.02402686 9.82430213 54.99291992 14.90356445 C54.9907975 16.19778824 54.9907975 16.19778824 54.9886322 17.51815796 C54.98302555 20.27947426 54.97047194 23.04071008 54.95776367 25.80200195 C54.95274953 27.67179245 54.94818647 29.54158422 54.9440918 31.41137695 C54.93305396 35.99994973 54.91578487 40.58846219 54.89526367 45.17700195 C56.5645074 45.17008851 56.5645074 45.17008851 58.26747322 45.16303539 C85.33301572 45.05208509 112.39852876 44.96989579 139.46425056 44.91794109 C152.55299075 44.89214899 165.64158079 44.85697894 178.73022461 44.79980469 C190.13701122 44.75000089 201.54368911 44.71771827 212.95058143 44.70655948 C218.9916472 44.70003568 225.03240191 44.68468143 231.07336807 44.64835167 C236.75819616 44.61444034 242.44258472 44.60393935 248.12750435 44.61146355 C250.21488266 44.61008684 252.30227551 44.6001257 254.38956642 44.58097458 C257.23877785 44.55611281 260.08632788 44.56207187 262.93557739 44.57572937 C263.76243612 44.56116516 264.58929486 44.54660096 265.44120991 44.53159541 C269.83331155 44.5885399 273.51492874 45.03744691 276.82459891 48.28199607 C279.36840855 52.78437104 278.70196109 58.29471009 278.64370728 63.31066895 C278.64918886 64.67674228 278.6572934 66.04280718 278.66779459 67.40885115 C278.68898237 71.16215324 278.67270355 74.91450372 278.65029359 78.66776443 C278.63262095 82.71556864 278.64949317 86.76324754 278.66201782 90.81105042 C278.68100485 98.74041742 278.66778489 106.66942069 278.64349194 114.59876072 C278.61626356 123.82976472 278.61952661 133.06068186 278.6237586 142.2917158 C278.63013998 158.76055129 278.60679396 175.22921384 278.56762695 191.69799805 C278.52961789 207.68405424 278.51545162 223.66990772 278.52661133 239.65600586 C278.53872306 257.05737043 278.53837988 274.45864583 278.51563966 291.86000299 C278.51322504 293.71502336 278.51081307 295.57004372 278.50840378 297.42506409 C278.50659316 298.79417709 278.50659316 298.79417709 278.50474597 300.19094893 C278.4969826 306.62775204 278.49777685 313.06452198 278.50157547 319.50132751 C278.50581686 327.34404824 278.49539058 335.1865913 278.46634836 343.02926195 C278.45184677 347.03192178 278.44371765 351.03432268 278.45283508 355.03700447 C278.46097562 358.69987579 278.4506937 362.36221201 278.42558293 366.02500206 C278.41693429 367.98052277 278.42792227 369.93609971 278.43956149 371.8916049 C278.4278971 373.05148058 278.41623271 374.21135627 278.40421486 375.4063797 C278.4024813 376.40727017 278.40074775 377.40816064 278.39896166 378.43938112 C277.75141849 381.95880688 276.37731676 383.64181706 273.89526367 386.17700195 C270.41419853 387.337357 267.71054038 387.29702899 264.03710938 387.29052734 C263.34416779 387.29067337 262.6512262 387.2908194 261.93728638 387.29096985 C259.6485073 387.29027358 257.35980977 387.28249456 255.07104492 387.2746582 C253.48349553 387.27279301 251.89594556 387.27136958 250.30839539 387.27037048 C246.13103647 387.2665533 241.95371236 387.25672981 237.77636719 387.2456665 C233.51326976 387.23543523 229.25016671 387.23086918 224.98706055 387.22583008 C216.62311229 387.21510684 208.25919231 387.19803998 199.89526367 387.17700195 C203.36348418 400.15587699 206.83200876 413.13467073 210.30091572 426.11336231 C211.91185874 432.1406395 213.52269916 438.16794407 215.13330078 444.1953125 C216.6891942 450.01793052 218.24536277 455.84047493 219.80171776 461.66296959 C220.39383826 463.87834776 220.98586158 466.09375191 221.57778358 468.30918312 C222.41031813 471.42510481 223.24320613 474.54093184 224.07617188 477.65673828 C224.31785599 478.56161484 224.5595401 479.46649139 224.80854797 480.39878845 C225.03985413 481.26373932 225.27116028 482.12869019 225.50947571 483.01985168 C225.73368509 483.85866693 225.95789448 484.69748219 226.18889809 485.56171608 C226.69330445 487.42925727 227.2051141 489.29480534 227.72185326 491.15897179 C227.99319902 492.13858187 228.26454479 493.11819195 228.54411316 494.12748718 C228.91599904 495.45885476 228.91599904 495.45885476 229.29539776 496.81711864 C230.52423351 501.65138061 230.49566798 504.11628767 228.02026367 508.48950195 C225.89526367 511.17700195 225.89526367 511.17700195 223.89526367 512.17700195 C222.13514104 512.29311928 220.37072894 512.34661573 218.60693359 512.36987305 C217.502061 512.38593597 216.39718842 512.4019989 215.25883484 512.41854858 C210.20364943 512.4629223 205.14859622 512.50405996 200.09326172 512.52709961 C197.42434806 512.54043483 194.7572418 512.57095997 192.08837891 512.60913086 C188.24642854 512.66381547 184.40551924 512.68576182 180.56323242 512.70043945 C179.37038132 512.72310883 178.17753021 512.7457782 176.9485321 512.76913452 C168.83945324 512.74839453 168.83945324 512.74839453 164.81469727 510.31274414 C162.11464979 505.90172789 160.83238354 501.45974367 159.51635742 496.48168945 C159.07724281 494.89951126 159.07724281 494.89951126 158.6292572 493.28536987 C157.70059269 489.9203774 156.79659474 486.54940816 155.89526367 483.17700195 C155.30373107 481.00264344 154.71145516 478.82848699 154.1184082 476.65454102 C152.66202374 471.28897787 151.23141938 465.91697034 149.81298828 460.54125977 C148.93769989 457.22600818 148.05637678 453.91239757 147.17456055 450.59887695 C146.61366459 448.48178191 146.05310398 446.36459798 145.49291992 444.24731445 C145.23052017 443.26111115 144.96812042 442.27490784 144.69776917 441.25881958 C144.46009323 440.3554184 144.2224173 439.45201721 143.97753906 438.52124023 C143.76770889 437.72759064 143.55787872 436.93394104 143.34169006 436.11624146 C142.89526367 434.17700195 142.89526367 434.17700195 142.89526367 432.17700195 C63.03526367 432.17700195 -16.82473633 432.17700195 -99.10473633 432.17700195 C-100.42473633 437.78700195 -101.74473633 443.39700195 -103.10473633 449.17700195 C-105.21016883 457.48560857 -107.3936021 465.77215621 -109.59545898 474.05566406 C-110.27318797 476.61329587 -110.94597221 479.17224265 -111.61401367 481.73242188 C-112.58965947 485.47081332 -113.57988171 489.20506779 -114.57348633 492.9387207 C-114.86839966 494.07935471 -115.16331299 495.21998871 -115.46716309 496.39518738 C-116.98149929 502.01708351 -118.36123336 506.66032164 -122.10473633 511.17700195 C-124.66491669 512.45709213 -126.52638913 512.33207318 -129.39306641 512.36987305 C-130.497939 512.38593597 -131.60281158 512.4019989 -132.74116516 512.41854858 C-137.79635057 512.4629223 -142.85140378 512.50405996 -147.90673828 512.52709961 C-150.57565194 512.54043483 -153.2427582 512.57095997 -155.91162109 512.60913086 C-159.75357146 512.66381547 -163.59448076 512.68576182 -167.43676758 512.70043945 C-168.62961868 512.72310883 -169.82246979 512.7457782 -171.0514679 512.76913452 C-180.26567254 512.74556804 -180.26567254 512.74556804 -183.33398438 509.76928711 C-186.81837193 504.66833204 -185.98510275 501.14141757 -185.10473633 495.17700195 C-184.41700352 491.85035717 -183.55272295 488.58673705 -182.65209961 485.31201172 C-182.40317963 484.38212433 -182.15425964 483.45223694 -181.89779663 482.49417114 C-181.08098419 479.45019246 -180.25312243 476.40934081 -179.42504883 473.3684082 C-178.85005692 471.23447208 -178.27575813 469.10034908 -177.70211792 466.96604919 C-176.19447564 461.36414185 -174.67740376 455.76483092 -173.1583252 450.16601562 C-171.62036194 444.49089683 -170.09148274 438.81333278 -168.56176758 433.13598633 C-164.43017685 417.81073544 -160.29290801 402.48690571 -156.10473633 387.17700195 C-156.98312668 387.18366379 -157.86151703 387.19032562 -158.76652527 387.19718933 C-167.05012754 387.257335 -175.33365632 387.30299395 -183.61742687 387.33243847 C-187.87606825 387.34808517 -192.13452899 387.36930513 -196.39306641 387.40332031 C-200.50387151 387.43594948 -204.614503 387.45386246 -208.72542763 387.46163368 C-210.29270472 387.46717082 -211.85997246 387.4779836 -213.42717552 387.49419212 C-215.62483525 387.51601424 -217.82178036 387.51896696 -220.01953125 387.51757812 C-221.26973557 387.52423996 -222.51993988 387.53090179 -223.80802917 387.5377655 C-227.40958735 387.14364165 -229.24400366 386.36133341 -232.10473633 384.17700195 C-234.36560471 380.78569938 -234.35769695 379.62810822 -234.36759186 375.65247536 C-234.37527415 374.49658177 -234.38295644 373.34068818 -234.39087152 372.14976752 C-234.38913856 370.87401276 -234.3874056 369.59825799 -234.38562012 368.28384399 C-234.39078628 366.91950595 -234.39681228 365.55517093 -234.40362692 364.19084013 C-234.41978672 360.43333508 -234.42334714 356.6759064 -234.42482185 352.91837072 C-234.42851949 348.86918933 -234.4436123 344.82004773 -234.45709229 340.77088928 C-234.4842729 331.91358121 -234.49631021 323.05629122 -234.5051136 314.19894838 C-234.51063548 308.6709012 -234.51910958 303.14286102 -234.52812195 297.61481857 C-234.55250795 282.31606548 -234.5731072 267.01731802 -234.57987213 251.71854591 C-234.58031126 250.73912976 -234.5807504 249.75971361 -234.58120283 248.75061818 C-234.58163939 247.76883199 -234.58207595 246.78704581 -234.58252573 245.77550852 C-234.58341267 243.78596727 -234.5843058 241.79642602 -234.58520508 239.80688477 C-234.58586937 238.32655662 -234.58586937 238.32655662 -234.58654708 236.81632285 C-234.59444634 220.81838756 -234.62936403 204.8206343 -234.67592412 188.82276936 C-234.72331596 172.40695281 -234.74827418 155.99122767 -234.75060797 139.57534158 C-234.75244337 130.35472921 -234.76399532 121.13435406 -234.80024719 111.91380692 C-234.8310018 104.06370681 -234.84131849 96.21391722 -234.82477099 88.36376835 C-234.81694098 84.35691682 -234.81889723 80.35069103 -234.84688568 76.34391594 C-234.87226573 72.67710223 -234.87005899 69.01138751 -234.84570426 65.3445764 C-234.8399076 63.38691516 -234.86373819 61.42923581 -234.88854837 59.4717232 C-234.78095504 49.99292545 -234.78095504 49.99292545 -231.61878014 46.89288616 C-227.21764065 44.74383904 -223.97700807 44.49061974 -219.14505005 44.57572937 C-218.25379264 44.57145725 -217.36253523 44.56718512 -216.44427001 44.56278354 C-213.46355298 44.55456024 -210.48424907 44.58202779 -207.50366211 44.609375 C-205.36487359 44.61078561 -203.22608265 44.60999324 -201.08729553 44.60716248 C-195.28390478 44.60572744 -189.48103037 44.63513198 -183.67775965 44.67003226 C-177.61193106 44.70128086 -171.54609075 44.70422534 -165.48019409 44.7101593 C-153.99488151 44.72570208 -142.50980678 44.76673668 -131.02459896 44.81690675 C-117.94856323 44.87278648 -104.87251617 44.90028332 -91.79639077 44.92538393 C-64.89904073 44.97765194 -38.00190186 45.06560292 -11.10473633 45.17700195 C-11.12568359 44.02176025 -11.14663086 42.86651855 -11.16821289 41.67626953 C-11.24074031 37.38066048 -11.28658226 33.0851053 -11.32446289 28.7890625 C-11.34454938 26.93154797 -11.37182411 25.07409644 -11.40649414 23.21679688 C-11.4551437 20.54321732 -11.47773442 17.87047539 -11.49536133 15.1965332 C-11.51600647 14.36926224 -11.53665161 13.54199127 -11.55792236 12.68965149 C-11.55948676 8.6485917 -11.41941112 6.67421239 -9.20532227 3.17578125 C-6.04098813 0.1648092 -4.26751228 0.04470215 0 0 Z M-214.10473633 65.17700195 C-214.10473633 164.50700195 -214.10473633 263.83700195 -214.10473633 366.17700195 C-58.34473633 366.17700195 97.41526367 366.17700195 257.89526367 366.17700195 C257.89526367 266.84700195 257.89526367 167.51700195 257.89526367 65.17700195 C102.13526367 65.17700195 -53.62473633 65.17700195 -214.10473633 65.17700195 Z " fill="#062A74" transform="translate(234.104736328125,-0.177001953125)"/>
<path d="M0 0 C64.35 0 128.7 0 195 0 C193.39732872 4.80801384 191.56072278 9.04103565 189.25 13.5 C180.05650649 31.63288502 173.57937702 50.22786627 169 70 C167.89398438 70.12503906 166.78796875 70.25007813 165.6484375 70.37890625 C161.60586411 71.06709594 160.48469226 71.84635213 158 75 C156.57337781 77.85324437 156.68966132 79.83454549 157 83 C159.25823323 86.54865222 161.24032914 88.262337 165 90 C164.9278125 91.0003125 164.855625 92.000625 164.78125 93.03125 C163.37630122 114.47730646 162.489306 136.73835945 166 158 C166.21033258 159.45934867 166.41858064 160.91899893 166.625 162.37890625 C173.67333322 210.35404466 196.88707684 256.17407501 230.28125 291.10546875 C233.29083129 294.30963504 236.13916219 297.66235589 239 301 C160.13 301 81.26 301 0 301 C0 201.67 0 102.34 0 0 Z " fill="#91B606" transform="translate(20,65)"/>
<path d="M0 0 C0.84531389 0.00291284 1.69062777 0.00582568 2.56155723 0.00882679 C3.45262607 0.00797237 4.34369491 0.00711794 5.26176584 0.00623763 C8.27133844 0.00458009 11.28085628 0.01010865 14.29042381 0.01555592 C16.43832724 0.01583776 18.58623076 0.01568012 20.73413414 0.01511341 C26.58513636 0.01482531 32.43611827 0.02072411 38.28711575 0.02768737 C44.3943728 0.03391878 50.50163026 0.03452454 56.60889 0.03571278 C68.18279932 0.03882673 79.75669925 0.04704096 91.33060443 0.05706227 C104.5032899 0.06822144 117.67597581 0.07373336 130.84866482 0.0787577 C157.95417499 0.08922353 185.0596768 0.10682419 212.16517967 0.12908131 C212.64263032 1.3792969 213.11785749 2.63036174 213.59218162 3.88176686 C213.85706886 4.57835911 214.1219561 5.27495136 214.39487022 5.99265248 C215.57571678 9.26769296 216.46237321 12.57479022 217.35267967 15.94158131 C217.52992576 16.59578053 217.70717186 17.24997975 217.88978904 17.92400318 C218.6379323 20.7519269 219.16517967 23.18963176 219.16517967 26.12908131 C142.60517967 26.12908131 66.04517967 26.12908131 -12.83482033 26.12908131 C-11.53443195 20.27733358 -10.21538505 14.44523571 -8.77232033 8.62908131 C-8.59894142 7.91494068 -8.42556252 7.20080006 -8.24692971 6.46501881 C-6.70052413 0.2319971 -6.44888004 0.01686435 0 0 Z " fill="#EFAB73" transform="translate(152.83482033014297,385.8709186911583)"/>
<path d="M0 0 C1.38415674 0.40760444 2.75830641 0.84970429 4.125 1.3125 C5.11371094 1.6425 6.10242188 1.9725 7.12109375 2.3125 C24.53813715 8.54899139 38.06720338 19.77809777 48.125 35.3125 C48.8241792 37.03697733 49.51305055 38.76570142 50.1875 40.5 C51.18670158 42.76979741 51.18670158 42.76979741 53.125 44.3125 C57.16568799 45.04144371 61.01999769 45.13234995 65.11328125 45.17578125 C74.29146388 45.32357462 80.45324355 49.7533757 86.92578125 55.94140625 C94.3350842 63.92976662 96.62001192 71.88179318 96.4375 82.70703125 C95.60501515 92.31182515 91.40864373 100.66289351 84.171875 107.03125 C74.37771675 114.65723581 65.41382228 116.28411067 53.125 115.3125 C44.23030964 113.00304776 36.41632244 106.66155894 31.125 99.3125 C26.05131679 90.46783602 24.69715034 81.42942473 26.125 71.3125 C27.93847868 66.10084127 30.19274051 61.24475949 34.125 57.3125 C33.55789336 48.3270103 26.5352228 39.38534265 20.125 33.3125 C11.77696819 26.38827972 2.53661484 21.76762502 -8.25 20.3125 C-13.65226994 19.57614866 -16.1808993 18.30612238 -19.875 14.3125 C-21.28500664 11.49248673 -21.12048451 9.44242745 -20.875 6.3125 C-16.56325768 -2.72162677 -8.71811737 -1.54676276 0 0 Z " fill="#FDFEFD" transform="translate(196.875,135.6875)"/>
<path d="M0 0 C7.57797011 5.86830612 11.99462328 12.98386983 15 22 C15.12117236 24.26845929 15.17540383 26.54083894 15.1875 28.8125 C15.20167969 30.01519531 15.21585937 31.21789062 15.23046875 32.45703125 C15 36 15 36 13.92578125 39.13671875 C12.67976369 42.9904355 13.06974541 45.13740152 14.86962891 48.74121094 C15.59576974 50.07397983 16.33543215 51.39944232 17.08618164 52.71850586 C27.8935585 71.72339532 30.51034158 92.7130518 25.08935547 114.06201172 C21.55077263 126.59050773 21.55077263 126.59050773 16 131 C12.5625 132.0625 12.5625 132.0625 9 132 C3.53164557 129.06329114 3.53164557 129.06329114 2 126 C1.37344798 120.30078643 2.1747994 115.55160153 4.24609375 110.23828125 C9.05601769 95.95804075 6.78516098 78.53364558 0.3125 65.3125 C-0.44821087 63.86961773 -1.21523722 62.42994324 -2 61 C-2.71542969 61.28875 -3.43085938 61.5775 -4.16796875 61.875 C-14.10597935 65.57764819 -23.05757381 66.79799135 -33.1875 63.0625 C-43.27765543 58.31105115 -49.97433144 51.37311805 -54 41 C-56.39304431 33.82086708 -56.35913037 22.98301941 -53.375 15.9375 C-52.25 13.91015625 -52.25 13.91015625 -51 12 C-50.5875 11.31808594 -50.175 10.63617188 -49.75 9.93359375 C-38.84555648 -6.39209299 -16.4154032 -10.21190781 0 0 Z " fill="#FDFEFC" transform="translate(397,101)"/>
<path d="M0 0 C3.65318534 3.19653718 4.88957648 4.89576478 5.375 9.75 C5 13 5 13 4 15 C2.64111948 33.50168098 7.75032309 52.15155995 19 67 C19.99 67.495 19.99 67.495 21 68 C22.051875 67.525625 23.10375 67.05125 24.1875 66.5625 C33.00104211 63.10118165 43.80083666 63.90202947 52.43359375 67.54296875 C62.10799846 73.035439 69.01019991 81.31471447 72 92 C73.01568433 102.52296204 72.36539318 112.02224156 66.01171875 120.72265625 C58.86716563 129.10115637 51.58412027 134.29488179 40.38671875 135.3359375 C27.830475 135.46852719 20.34500438 133.16691548 11.19921875 124.4375 C3.51173756 115.91709456 1.61643456 106.81117532 1.7265625 95.578125 C2.05188297 91.3210743 3.08436149 88.74798839 5 85 C4.63603139 81.22580376 2.59672349 78.92380607 0.3125 76 C-11.69985149 59.79729334 -16.35310961 41.22180792 -16.375 21.3125 C-16.39949219 20.12849609 -16.42398438 18.94449219 -16.44921875 17.72460938 C-16.47208215 10.9227475 -16.14710815 6.49064693 -12 1 C-8.54618395 -1.96041376 -4.11984474 -1.38687843 0 0 Z " fill="#FDFEFC" transform="translate(102,201)"/>
<path d="M0 0 C8.58 0 17.16 0 26 0 C28.0345252 6.10357559 29.82766891 12.0238976 31.3125 18.25 C33.03159628 25.30033737 34.90247975 32.28450332 36.9375 39.25 C39.13673106 46.79384936 41.12863839 54.36834386 43 62 C45.35246562 71.5889134 47.94254532 81.08739923 50.703125 90.56640625 C50.92291016 91.32195801 51.14269531 92.07750977 51.36914062 92.85595703 C51.77625973 94.2395948 52.1910774 95.62100154 52.61523438 96.99951172 C53.58723237 100.21307349 54 102.58761572 54 106 C45.42 106 36.84 106 28 106 C25.07970607 96.38020824 22.39458687 86.76385452 20 77 C18.31144535 70.11696603 16.56452614 63.28023336 14.5 56.5 C12.15612293 48.79694076 10.22725574 41.01045472 8.31396484 33.19067383 C6.35152255 25.23624953 4.16529094 17.36302862 1.82836914 9.51074219 C1.58852295 8.69637695 1.34867676 7.88201172 1.1015625 7.04296875 C0.88838379 6.33164795 0.67520508 5.62032715 0.45556641 4.88745117 C0 3 0 3 0 0 Z " fill="#FADEBD" transform="translate(386,386)"/>
<path d="M0 0 C8.58 0 17.16 0 26 0 C22.28569306 16.71438123 18.16222629 33.33420011 13.34301758 49.765625 C11.03212261 57.71565156 8.98265259 65.72868393 6.9375 73.75 C4.17734887 84.57328518 1.25657617 95.31435944 -2 106 C-10.58 106 -19.16 106 -28 106 C-27.03446181 100.20677087 -25.74188831 94.62610359 -24.3125 88.9375 C-24.04630859 87.87402344 -23.78011719 86.81054688 -23.50585938 85.71484375 C-21.57384585 78.07770792 -19.46354176 70.50657632 -17.25341797 62.94604492 C-15.31396518 56.25272171 -13.59756913 49.51756445 -11.9375 42.75 C-9.86758443 34.3149427 -7.60979441 25.97342496 -5.09765625 17.66015625 C-3.84796028 13.49302057 -2.69738204 9.30528369 -1.578125 5.1015625 C-1.1059914 3.38529306 -0.5628935 1.6886805 0 0 Z " fill="#FADEBD" transform="translate(100,386)"/>
<path d="M0 0 C4.28253747 1.24510812 7.0752132 4.48863748 10.109375 7.61328125 C11.12837891 8.61488281 11.12837891 8.61488281 12.16796875 9.63671875 C13.83347018 11.27876241 15.4787115 12.93675534 17.109375 14.61328125 C21.95947257 12.78872073 25.03273273 8.60003435 28.3359375 4.78125 C30.47417278 2.49344904 32.03497219 0.84082442 35.16015625 0.17895508 C38.69235081 0.08910529 41.8335037 0.26068742 44.609375 2.55078125 C47.48825432 6.07740842 48.06814823 7.8257156 47.7578125 12.28125 C46.51871431 16.73752482 43.378779 19.49535542 40.109375 22.61328125 C38.79659347 23.9463374 37.48407745 25.27965508 36.171875 26.61328125 C35.15360213 27.61588838 34.13375955 28.61691938 33.109375 29.61328125 C36.78959801 34.01159656 40.563667 38.15086537 44.69140625 42.1328125 C47.09362632 44.64091554 47.12605697 45.81680134 47.421875 49.42578125 C47.35597484 52.4462054 47.04535682 53.74410101 45.671875 56.55078125 C42.57041696 59.04707675 40.42291467 59.77100678 36.4765625 60.00390625 C31.8617547 59.24238681 29.19357255 55.90350819 26.109375 52.61328125 C24.77758528 51.29921497 23.44434062 49.98662099 22.109375 48.67578125 C21.10676787 47.65750838 20.10573687 46.6376658 19.109375 45.61328125 C15.26525753 47.17940318 12.94987291 49.63422246 10.109375 52.61328125 C6.32633369 56.58086117 3.72160195 59.21576845 -1.765625 60.05078125 C-6.1588621 59.43572806 -7.73628469 57.6942648 -10.890625 54.61328125 C-12.39951969 51.59549188 -12.39088776 49.99005488 -11.890625 46.61328125 C-9.33870278 42.88005378 -6.12443672 39.76749222 -2.83203125 36.6875 C-2.19136719 36.08550781 -1.55070312 35.48351562 -0.890625 34.86328125 C-0.2925 34.3321875 0.305625 33.80109375 0.921875 33.25390625 C2.28613409 31.69972939 2.28613409 31.69972939 2.13671875 29.75390625 C0.62253611 26.59887929 -1.80517497 24.46632486 -4.328125 22.11328125 C-10.66094967 16.16156126 -10.66094967 16.16156126 -11.890625 12.61328125 C-11.81360813 8.37735358 -11.27360638 6.15873958 -8.828125 2.67578125 C-5.78535205 0.5393662 -3.74649286 -0.24647979 0 0 Z " fill="#FDFEFC" transform="translate(100.890625,112.38671875)"/>
<path d="M0 0 C4.28253747 1.24510812 7.0752132 4.48863748 10.109375 7.61328125 C11.12837891 8.61488281 11.12837891 8.61488281 12.16796875 9.63671875 C13.83347018 11.27876241 15.4787115 12.93675534 17.109375 14.61328125 C21.95947257 12.78872073 25.03273273 8.60003435 28.3359375 4.78125 C32.04323922 0.81462925 32.04323922 0.81462925 35.19970703 0.21850586 C38.90971325 0.17851827 42.07182269 0.39353149 45.109375 2.61328125 C47.46287904 6.14353732 47.71130008 8.06326172 47.6171875 12.2109375 C46.65266692 16.77386177 43.38459555 19.48980837 40.109375 22.61328125 C38.79659347 23.9463374 37.48407745 25.27965508 36.171875 26.61328125 C35.15360213 27.61588838 34.13375955 28.61691938 33.109375 29.61328125 C36.97512087 34.29205114 36.97512087 34.29205114 41.2890625 38.54296875 C46.77257711 43.40202618 46.77257711 43.40202618 47.7578125 46.9453125 C47.92106541 50.73152418 47.31393864 53.18636582 45.671875 56.61328125 C42.56844823 59.035468 40.38314071 59.77335409 36.4765625 60.00390625 C31.8617547 59.24238681 29.19357255 55.90350819 26.109375 52.61328125 C24.77758528 51.29921497 23.44434062 49.98662099 22.109375 48.67578125 C21.10676787 47.65750838 20.10573687 46.6376658 19.109375 45.61328125 C15.26525753 47.17940318 12.94987291 49.63422246 10.109375 52.61328125 C6.30485893 56.60338347 3.72285372 59.27964567 -1.828125 59.98828125 C-5.67528122 59.5172009 -7.17368391 58.33022234 -9.890625 55.61328125 C-11.84345579 53.03909521 -11.89122857 51.71130119 -11.87109375 48.44140625 C-10.52780498 43.19669312 -7.72326768 40.77393358 -3.828125 37.17578125 C-2.83329102 36.22155273 -2.83329102 36.22155273 -1.81835938 35.24804688 C-0.18856687 33.68860513 1.45351068 32.14493186 3.109375 30.61328125 C-0.54091597 26.27988165 -4.25206628 22.17984905 -8.375 18.2890625 C-11.12203955 15.25174299 -11.90307232 13.29788383 -11.828125 9.17578125 C-10.1767653 2.90061438 -6.79085935 -0.44676706 0 0 Z " fill="#FEFEFD" transform="translate(378.890625,259.38671875)"/>
<path d="M0 0 C1.38415674 0.40760444 2.75830641 0.84970429 4.125 1.3125 C5.11371094 1.6425 6.10242188 1.9725 7.12109375 2.3125 C27.39725715 9.57275168 42.1171141 23.76264916 52.34765625 42.5703125 C53.125 44.3125 53.125 44.3125 53.125 46.3125 C52.48433594 46.54324219 51.84367187 46.77398437 51.18359375 47.01171875 C45.48237966 49.16135685 40.9233036 51.55730588 36.125 55.3125 C33.80629217 52.32129685 31.79507933 49.22226112 29.8125 46 C21.93593409 33.64363723 12.30730511 25.80714468 -1.875 21.3125 C-3.99255237 20.93473277 -6.11832405 20.6000652 -8.25 20.3125 C-13.65226994 19.57614866 -16.1808993 18.30612238 -19.875 14.3125 C-21.28500664 11.49248673 -21.12048451 9.44242745 -20.875 6.3125 C-16.56325768 -2.72162677 -8.71811737 -1.54676276 0 0 Z " fill="#6966F3" transform="translate(196.875,135.6875)"/>
<path d="M0 0 C4.37069868 3.89098785 6.70878984 7.76689315 9.125 13.0625 C9.45886719 13.75021484 9.79273438 14.43792969 10.13671875 15.14648438 C14.82965092 25.22248579 16.58696321 35.37422439 16.5625 46.4375 C16.56080811 47.55406982 16.55911621 48.67063965 16.55737305 49.82104492 C16.3954266 57.44552713 15.39495735 64.47789074 13.3125 71.8125 C13.06894775 72.67093506 12.82539551 73.52937012 12.57446289 74.41381836 C10.97793603 79.40390943 9.21400623 82.65242495 5 86 C1.5625 87.0625 1.5625 87.0625 -2 87 C-7.46835443 84.06329114 -7.46835443 84.06329114 -9 81 C-9.62655202 75.30078643 -8.8252006 70.55160153 -6.75390625 65.23828125 C-2.43718014 52.42230165 -3.65899962 35.28922403 -9.3125 23.19140625 C-10.18427052 21.44538858 -11.08125417 19.71155205 -12.01171875 17.99609375 C-13 16 -13 16 -13 14 C-11.42578125 12.7734375 -11.42578125 12.7734375 -9.3125 11.375 C-4.93301521 8.23235017 -2.49369798 4.72363945 0 0 Z " fill="#6966F4" transform="translate(408,146)"/>
<path d="M0 0 C3.65318534 3.19653718 4.88957648 4.89576478 5.375 9.75 C5 13 5 13 4 15 C2.68398432 32.91805968 7.45050792 49.96443987 17.546875 64.7578125 C19 67 19 67 20 70 C19.46890625 70.37511719 18.9378125 70.75023437 18.390625 71.13671875 C14.29875248 74.10108625 10.98677884 76.86446007 8 81 C7.01 81.99 7.01 81.99 6 83 C-3.50486266 72.93271943 -8.77126907 62.02475168 -13 49 C-13.34417969 47.94683594 -13.68835938 46.89367187 -14.04296875 45.80859375 C-16.22087194 37.63890058 -16.33567756 29.47963506 -16.4375 21.0625 C-16.45989746 19.88840576 -16.48229492 18.71431152 -16.50537109 17.50463867 C-16.48707171 10.78442992 -16.07325335 6.43355185 -12 1 C-8.54618395 -1.96041376 -4.11984474 -1.38687843 0 0 Z " fill="#6865F3" transform="translate(102,201)"/>
<path d="M0 0 C8.58 0 17.16 0 26 0 C29.37469287 10.12407862 29.37469287 10.12407862 30.31640625 13.97265625 C30.52330078 14.80990234 30.73019531 15.64714844 30.94335938 16.50976562 C31.14767578 17.35216797 31.35199219 18.19457031 31.5625 19.0625 C31.87477539 20.3319043 31.87477539 20.3319043 32.19335938 21.62695312 C32.58446255 23.21711242 32.97409209 24.80763564 33.36157227 26.39868164 C34.22954507 29.93529742 35.11678968 33.46715872 36 37 C27.09 37 18.18 37 9 37 C8.03857749 33.17744581 7.07792859 29.35470891 6.11914062 25.53149414 C5.63495445 23.60216533 5.14952152 21.67314955 4.6640625 19.74414062 C4.2 17.89272461 4.2 17.89272461 3.7265625 16.00390625 C3.44377441 14.87799072 3.16098633 13.7520752 2.86962891 12.59204102 C1.85666584 8.40795185 0.93387734 4.20244803 0 0 Z " fill="#F0AC73" transform="translate(386,386)"/>
<path d="M0 0 C8.58 0 17.16 0 26 0 C24.80843128 5.36205924 23.61004425 10.68223122 22.2734375 16.00390625 C21.9640625 17.23818359 21.6546875 18.47246094 21.3359375 19.74414062 C21.01882812 21.00419922 20.70171875 22.26425781 20.375 23.5625 C20.04676443 24.87041496 19.71863862 26.17835748 19.390625 27.48632812 C18.59482575 30.65782221 17.79756103 33.82894851 17 37 C8.09 37 -0.82 37 -10 37 C-7.16534391 24.50651576 -4.05383599 12.16150797 0 0 Z " fill="#F0AC73" transform="translate(100,386)"/>
<path d="M0 0 C5.35755096 1.92063148 8.45837216 4.91674432 11 10 C11.59106487 15.68331608 11.27243416 20.14777003 8 25 C3.29669595 29.35055624 -0.47167687 30.35621669 -6.71484375 30.28515625 C-11.17320993 29.72881312 -13.94033507 27.20582561 -16.8125 23.9375 C-19.50896422 19.53800575 -19.60840848 15.00437398 -19 10 C-14.96099355 1.7666407 -8.84592308 -1.30227234 0 0 Z " fill="#92B80A" transform="translate(143,286)"/>
<path d="M0 0 C4.85901474 2.29698879 7.66907123 5.15884024 10 10 C10.90066003 15.09251699 10.77214176 19.50719897 7.9375 23.9375 C4.14086886 28.45933035 -0.19745705 29.74249386 -5.9375 30.5625 C-11.04608941 30.36333472 -14.4930584 27.5069416 -18 24 C-20.68229183 19.8648001 -20.68622211 14.79508286 -20 10 C-15.40596065 0.9820709 -9.76089687 -1.40671749 0 0 Z " fill="#B2D954" transform="translate(263,201)"/>
<path d="M0 0 C4.85857844 2.29678253 7.63468979 5.17840611 10 10 C10.82978405 14.7162216 10.49402523 18.03024677 8.3125 22.3125 C4.27567887 27.00394078 1.02052143 29.70956525 -5.25 30.3125 C-11.12238983 29.82313418 -14.42066471 27.66032684 -18.4375 23.4375 C-20.65308539 18.56321214 -20.77631226 14.2695135 -20 9 C-15.7215243 0.12612448 -9.21071151 -1.20551959 0 0 Z " fill="#B2D954" transform="translate(382,116)"/>
<path d="M0 0 C7.92 0 15.84 0 24 0 C24 8.25 24 16.5 24 25 C16.08 25 8.16 25 0 25 C0 16.75 0 8.5 0 0 Z " fill="#FDE0BE" transform="translate(244,20)"/>
</svg>
