<?xml version="1.0" encoding="UTF-8"?>
<svg xmlns="http://www.w3.org/2000/svg" viewBox="0 0 512 512" fill="none">
<path d="M0 0 C8.93265882 6.43390836 15.13797648 14.69782609 17.58203125 25.4921875 C18.32233547 32.55126412 18.14604986 39.68163614 18.11328125 46.76953125 C18.1159795 48.82931196 18.11986469 50.88909142 18.12487793 52.9488678 C18.13074802 57.24476365 18.12228436 61.54032491 18.10351562 65.83618164 C18.08062666 71.34322657 18.09392771 76.84949591 18.11780548 82.35651302 C18.13224498 86.60042697 18.12766768 90.84415619 18.11729431 95.08807564 C18.11462713 97.11947281 18.11789647 99.15088677 18.12721252 101.18226433 C18.13735865 104.01380987 18.1219088 106.8440863 18.09960938 109.67553711 C18.1077063 110.51349319 18.11580322 111.35144928 18.12414551 112.21479797 C18.07156652 115.81406418 17.88771661 118.05466604 15.79968262 121.04322815 C13.58203125 122.4921875 13.58203125 122.4921875 9.58203125 122.4921875 C9.58203125 127.7721875 9.58203125 133.0521875 9.58203125 138.4921875 C11.56203125 138.8221875 13.54203125 139.1521875 15.58203125 139.4921875 C17.78551661 142.79741554 17.8276651 143.76879749 17.80908203 147.60620117 C17.80893097 148.64705368 17.80877991 149.68790619 17.80862427 150.76029968 C17.7983017 151.88225235 17.78797913 153.00420502 17.77734375 154.16015625 C17.77309891 155.88508049 17.77309891 155.88508049 17.76876831 157.64485168 C17.75755958 161.32323546 17.73245349 165.00137712 17.70703125 168.6796875 C17.69700236 171.17122045 17.68787635 173.6627572 17.6796875 176.15429688 C17.65761794 182.26702059 17.62308313 188.37956297 17.58203125 194.4921875 C22.86203125 194.4921875 28.14203125 194.4921875 33.58203125 194.4921875 C33.91203125 192.5121875 34.24203125 190.5321875 34.58203125 188.4921875 C37.79639654 186.34927731 39.75629734 186.19192959 43.546875 186.03125 C46.75812946 186.75855907 47.64713202 187.78579494 49.58203125 190.4921875 C50.20160982 194.17866602 50.12092709 197.84576271 50.08996582 201.57617188 C50.09932576 203.29215702 50.09932576 203.29215702 50.1088748 205.04280853 C50.12208309 208.21869766 50.11731097 211.39397686 50.10492992 214.56985092 C50.09589185 217.99459863 50.10984293 221.41926292 50.12084961 224.84399414 C50.13865282 231.55320552 50.13478691 238.26223809 50.12319905 244.97145653 C50.11417205 250.4232874 50.11293753 255.8750681 50.11729431 261.3269043 C50.11790724 262.10230859 50.11852018 262.87771289 50.11915168 263.67661428 C50.12043056 265.25174524 50.12172741 266.82687618 50.12304205 268.4020071 C50.13445312 283.1782373 50.1213259 297.9543683 50.09984058 312.73058224 C50.0819691 325.41418785 50.08507306 338.09764703 50.10351562 350.78125 C50.12491306 365.50395367 50.13335443 380.22657036 50.12106657 394.94928741 C50.11979235 396.51868183 50.11853487 398.08807626 50.11729431 399.6574707 C50.11636866 400.81578282 50.11636866 400.81578282 50.11542431 401.99749517 C50.11196801 407.44390796 50.11780574 412.89026566 50.12721252 418.33666992 C50.1384214 424.9724424 50.13541606 431.60802558 50.11408955 438.24377632 C50.10356394 441.63065131 50.09948254 445.01721047 50.11268616 448.40408325 C50.12356054 452.07244174 50.10997479 455.73990239 50.08996582 459.40820312 C50.10335015 461.02083164 50.10335015 461.02083164 50.11700487 462.66603851 C50.10657388 463.64688667 50.09614289 464.62773483 50.08539581 465.63830566 C50.0847464 466.48519203 50.08409699 467.3320784 50.08342791 468.20462799 C49.37293426 471.44616637 48.27361979 472.5684871 45.58203125 474.4921875 C42.33546066 474.99358416 42.33546066 474.99358416 38.39227295 474.99555206 C37.66356367 475.00136583 36.93485439 475.00717959 36.18406302 475.01316953 C33.72882183 475.02783124 31.27457074 475.01385615 28.81933594 475.00012207 C27.04664185 475.00472862 25.27395158 475.01107988 23.50126934 475.01903105 C18.61929247 475.03578259 13.73762698 475.02745149 8.85564876 475.01508617 C3.59434154 475.00606123 -1.66691094 475.01999304 -6.9282074 475.03100586 C-17.24158234 475.04882601 -27.55484107 475.04493469 -37.86822063 475.0333553 C-46.25237694 475.02433106 -54.63650063 475.02309261 -63.0206604 475.02745056 C-64.21283446 475.02806349 -65.40500852 475.02867643 -66.63330907 475.02930793 C-69.05510117 475.03058682 -71.47689326 475.03188367 -73.89868534 475.0331983 C-96.63019665 475.04461534 -119.36164355 475.03147481 -142.0931443 475.00999683 C-161.5919137 474.9921432 -181.0905878 474.99521348 -200.58935547 475.01367188 C-223.22571444 475.03509039 -245.86201679 475.04349724 -268.49838448 475.03122282 C-270.91383997 475.02994863 -273.32929547 475.02869114 -275.74475098 475.02745056 C-277.52744552 475.02652491 -277.52744552 475.02652491 -279.34615409 475.02558056 C-287.71479202 475.02212924 -296.08339401 475.02795171 -304.45202637 475.03736877 C-314.65912494 475.04860182 -324.8661005 475.04552195 -335.07318503 475.0242458 C-340.27970335 475.01375021 -345.48601679 475.00958795 -350.69253349 475.02284241 C-355.4635352 475.03480405 -360.23414308 475.02814157 -365.00510931 475.0069322 C-366.72658765 475.00248187 -368.44809959 475.00469693 -370.16955614 475.01443535 C-386.24421018 475.09835931 -401.53045709 471.54282773 -413.734375 460.3046875 C-425.0527062 448.11975554 -430.72993635 434.65384626 -430.69212341 418.1973877 C-430.69736009 417.06676265 -430.70259677 415.93613761 -430.70799214 414.7712512 C-430.72298273 410.98613679 -430.7236971 407.20115768 -430.72436523 403.41601562 C-430.73090871 400.70043292 -430.74036666 397.98486186 -430.74958801 395.26928711 C-430.77240028 387.8928972 -430.78035495 380.51653614 -430.78541446 373.14011574 C-430.78867668 368.52858174 -430.79520244 363.91705603 -430.80241585 359.30552673 C-430.82197895 346.52180501 -430.83838416 333.73809099 -430.84129238 320.95435333 C-430.84147995 320.13687668 -430.84166752 319.31940003 -430.84186077 318.47715136 C-430.84222701 316.8201189 -430.84259071 315.16308644 -430.84295189 313.50605398 C-430.8431347 312.68356789 -430.84331751 311.86108179 -430.84350586 311.01367188 C-430.84368641 310.19017414 -430.84386696 309.3666764 -430.84405298 308.51822418 C-430.84759116 295.18828594 -430.8745925 281.8585096 -430.91200375 268.52862746 C-430.95016125 254.82240437 -430.96945041 241.11626145 -430.96975189 227.40998411 C-430.97033489 219.72279111 -430.97872397 212.03579113 -431.00774956 204.34864807 C-431.03236359 197.79999348 -431.03947947 191.25160226 -431.02450203 184.70291382 C-431.01737274 181.36710815 -431.02078153 178.03224097 -431.04091263 174.69642639 C-431.14572074 156.19295961 -430.53771496 141.40462691 -418.41796875 126.4921875 C-417.79921875 125.66976562 -417.18046875 124.84734375 -416.54296875 124 C-408.50998057 114.51989263 -395.67197454 107.37682926 -383.18237305 106.29931641 C-365.92349229 105.72948843 -352.31284351 107.19944383 -338.41796875 118.4921875 C-337.59554687 119.1109375 -336.773125 119.7296875 -335.92578125 120.3671875 C-327.4019447 127.58987766 -322.68168199 137.00168065 -319.41796875 147.4921875 C-319.23693604 148.04422852 -319.05590332 148.59626953 -318.86938477 149.16503906 C-318.20084926 152.61148605 -318.29609051 156.04306159 -318.3203125 159.5390625 C-318.32172745 160.31026428 -318.3231424 161.08146606 -318.32460022 161.8760376 C-318.33018341 164.33146088 -318.3427328 166.78679192 -318.35546875 169.2421875 C-318.36048592 170.91015493 -318.36504845 172.57812379 -318.36914062 174.24609375 C-318.38014734 178.32816037 -318.39740039 182.41015831 -318.41796875 186.4921875 C-317.59071289 186.47124023 -316.76345703 186.45029297 -315.91113281 186.42871094 C-312.16353505 186.34557131 -308.41613126 186.29353219 -304.66796875 186.2421875 C-303.36601562 186.20867187 -302.0640625 186.17515625 -300.72265625 186.140625 C-299.47226562 186.12773437 -298.221875 186.11484375 -296.93359375 186.1015625 C-295.78149414 186.08061523 -294.62939453 186.05966797 -293.44238281 186.03808594 C-290.41796875 186.4921875 -290.41796875 186.4921875 -288.01074219 188.26660156 C-286.41796875 190.4921875 -286.41796875 190.4921875 -286.41796875 194.4921875 C-276.51796875 193.9971875 -276.51796875 193.9971875 -266.41796875 193.4921875 C-267.73796875 190.8521875 -269.05796875 188.2121875 -270.41796875 185.4921875 C-271.43811765 178.65118899 -271.48530983 171.30913843 -267.82421875 165.2421875 C-264.22781479 160.76666257 -260.23591688 156.51812032 -254.41796875 155.4921875 C-256.44796715 151.84203264 -258.67254845 149.07606285 -261.60546875 146.1171875 C-275.50650042 130.81246859 -279.43638895 112.17559 -278.79296875 91.98828125 C-277.66403479 71.3817086 -267.54588867 55.98803342 -253.01953125 42.21875 C-237.13340051 28.44373298 -217.54364872 25.32409635 -197.12792969 26.28076172 C-186.7486962 27.09052894 -173.8087529 30.46302102 -166.63671875 38.484375 C-164.95854218 41.24906333 -165.14201202 43.31868514 -165.41796875 46.4921875 C-165.74796875 47.1521875 -166.07796875 47.8121875 -166.41796875 48.4921875 C-165.88171875 48.6984375 -165.34546875 48.9046875 -164.79296875 49.1171875 C-161.49818866 51.02469176 -158.82433247 53.54038134 -156.41796875 56.4921875 C-156.41796875 57.1521875 -156.41796875 57.8121875 -156.41796875 58.4921875 C-155.75796875 58.1621875 -155.09796875 57.8321875 -154.41796875 57.4921875 C-150.79672791 57.08982741 -148.99639191 57.11228711 -145.9140625 59.13671875 C-137.56054846 67.01961229 -134.61481033 80.98766623 -134.1015625 92.0546875 C-133.53955952 112.06453358 -137.05363088 130.44940204 -150.85717773 145.65942383 C-152.2811738 147.16370385 -153.73356927 148.63409205 -155.1953125 150.1015625 C-157.60479905 152.36205658 -157.60479905 152.36205658 -158.41796875 155.4921875 C-157.75796875 155.6778125 -157.09796875 155.8634375 -156.41796875 156.0546875 C-150.93688259 158.68104129 -146.73637271 162.47338143 -143.41796875 167.5546875 C-141.24196614 173.84091726 -141.21433763 181.9125573 -143.3203125 188.17578125 C-144.41796875 190.3671875 -144.41796875 190.3671875 -146.41796875 193.4921875 C-142.45796875 193.8221875 -138.49796875 194.1521875 -134.41796875 194.4921875 C-134.31484375 193.5434375 -134.21171875 192.5946875 -134.10546875 191.6171875 C-133.41796875 188.4921875 -133.41796875 188.4921875 -130.41796875 186.4921875 C-128.26185608 186.22476196 -128.26185608 186.22476196 -125.73461914 186.20166016 C-124.78676041 186.18890045 -123.83890167 186.17614075 -122.86231995 186.16299438 C-121.32945595 186.15965591 -121.32945595 186.15965591 -119.765625 186.15625 C-118.71394638 186.1495932 -117.66226776 186.1429364 -116.57872009 186.13607788 C-114.35368602 186.12594904 -112.12862156 186.12126093 -109.90356445 186.12158203 C-106.4970504 186.11720879 -103.09183162 186.08089023 -99.68554688 186.04296875 C-97.52474402 186.03710073 -95.363935 186.03313124 -93.203125 186.03125 C-92.1832399 186.01687897 -91.1633548 186.00250793 -90.11256409 185.98770142 C-83.10823089 186.03302106 -83.10823089 186.03302106 -79.74389648 188.27099609 C-78.41796875 190.4921875 -78.41796875 190.4921875 -78.41796875 194.4921875 C-73.13796875 194.4921875 -67.85796875 194.4921875 -62.41796875 194.4921875 C-62.4268512 192.39936935 -62.43573364 190.30655121 -62.44488525 188.15031433 C-62.52670521 168.41942266 -62.5861896 148.68855342 -62.62521744 128.95753002 C-62.64581622 118.81382219 -62.6738854 108.67023909 -62.71972656 98.52661133 C-62.75967661 89.6823168 -62.78542107 80.83811263 -62.79432273 71.99373037 C-62.79952366 67.31348276 -62.81169153 62.63349361 -62.84088898 57.95332909 C-62.86818732 53.54152914 -62.87638482 49.13009233 -62.87039948 44.71821594 C-62.8714933 43.10542129 -62.87936097 41.49261356 -62.89479065 39.87989235 C-63.01752889 26.38069455 -61.05716369 15.58948279 -51.41796875 5.4921875 C-37.63784493 -7.66275112 -16.31305228 -10.17259803 0 0 Z " fill="#4790D2" transform="translate(446.41796875,21.5078125)"/>
<path d="M0 0 C2.44225447 1.66159248 4.74768159 3.38773224 7.0390625 5.25 C7.86148438 5.86875 8.68390625 6.4875 9.53125 7.125 C18.05508655 14.34769016 22.77534926 23.75949315 26.0390625 34.25 C26.22009521 34.80204102 26.40112793 35.35408203 26.58764648 35.92285156 C27.25618199 39.36929855 27.16094074 42.80087409 27.13671875 46.296875 C27.1353038 47.06807678 27.13388885 47.83927856 27.13243103 48.6338501 C27.12684784 51.08927338 27.11429845 53.54460442 27.1015625 56 C27.09654533 57.66796743 27.0919828 59.33593629 27.08789062 61.00390625 C27.07688391 65.08597287 27.05963086 69.16797081 27.0390625 73.25 C28.27994629 73.2185791 28.27994629 73.2185791 29.54589844 73.18652344 C33.2934962 73.10338381 37.04089999 73.05134469 40.7890625 73 C42.09101563 72.96648437 43.39296875 72.93296875 44.734375 72.8984375 C45.98476562 72.88554687 47.23515625 72.87265625 48.5234375 72.859375 C49.67553711 72.83842773 50.82763672 72.81748047 52.01464844 72.79589844 C55.67216159 73.34505685 56.82407456 74.34636618 59.0390625 77.25 C59.38671875 79.50390625 59.38671875 79.50390625 59.1015625 81.8125 C59.03066406 82.57691406 58.95976562 83.34132813 58.88671875 84.12890625 C57.65860839 87.20201189 55.97625203 87.81329819 53.0390625 89.25 C50.0847168 89.59057617 50.0847168 89.59057617 46.86328125 89.54296875 C45.70634766 89.53330078 44.54941406 89.52363281 43.35742188 89.51367188 C42.15923828 89.48853516 40.96105469 89.46339844 39.7265625 89.4375 C37.9002832 89.41719727 37.9002832 89.41719727 36.03710938 89.39648438 C33.03730905 89.36119261 30.03841275 89.31188481 27.0390625 89.25 C27.04182788 90.36890468 27.04459326 91.48780935 27.04744244 92.64062023 C27.11399799 119.84771244 27.16331929 147.05479411 27.19449902 174.26195049 C27.2099775 187.41904783 27.23108582 200.57609144 27.26538086 213.7331543 C27.29525311 225.19889432 27.31463036 236.66459544 27.32132798 248.1303733 C27.32524391 254.20317736 27.33446738 260.2758701 27.35625267 266.34863853 C27.37658339 272.06211622 27.38290318 277.7754365 27.37838554 283.48894691 C27.37921227 285.58801757 27.38519813 287.68709339 27.39667892 289.78613281 C27.41156946 292.64848455 27.40802855 295.51023928 27.39982605 298.37260437 C27.40856457 299.20626689 27.4173031 300.03992941 27.42630643 300.89885443 C27.39057516 305.50100753 27.0244615 308.50968616 24.0390625 312.25 C21.22990776 313.65457737 19.15095716 313.49895157 16.0390625 313.25 C13.90234375 312.10546875 13.90234375 312.10546875 12.0390625 310.25 C11.38671875 307.53515625 11.38671875 307.53515625 11.1015625 304.3125 C9.57213535 292.3696689 4.76034407 281.66087563 -4.7109375 274 C-14.57176049 267.02712517 -25.17501932 265.42990629 -36.9609375 266.25 C-47.73750346 268.49174179 -56.07518742 275.0098592 -62.453125 283.8203125 C-68.45732387 293.49547234 -69.76957336 304.22290828 -67.265625 315.3359375 C-63.6203759 326.27168481 -57.20140765 335.14245552 -46.8984375 340.5 C-41.16916808 343.26167743 -36.11129458 344.50017997 -29.72582436 344.51171303 C-28.66189458 344.51770712 -28.66189458 344.51770712 -27.57647127 344.52382231 C-25.19972378 344.53479129 -22.82320931 344.53159606 -20.44644165 344.5284729 C-18.72534369 344.53347606 -17.00424809 344.53935191 -15.2831558 344.54602563 C-10.55364516 344.5618372 -5.82419392 344.56525695 -1.09466004 344.56667423 C4.00550388 344.57036625 9.10563515 344.58552074 14.20578003 344.59928894 C23.04216546 344.62157181 31.87853929 344.63657893 40.71494675 344.64665604 C53.49093351 344.66123637 66.26687987 344.6867714 79.04284294 344.71498732 C99.770576 344.76046703 120.49831488 344.79707697 141.22607422 344.828125 C161.36215232 344.85830571 181.49821618 344.89265378 201.63427734 344.93261719 C202.87529116 344.93507874 204.11630498 344.93754028 205.39492528 344.94007643 C211.62067525 344.95245093 217.84642506 344.96490749 224.07217479 344.97740483 C275.72778417 345.08099029 327.3834113 345.17018772 379.0390625 345.25 C379.03754362 344.68443901 379.03602474 344.11887803 379.03445983 343.53617883 C378.94499325 310.03394443 378.87633944 276.53173992 378.83480118 243.02941288 C378.82979821 239.0088662 378.82462094 234.98831976 378.81933594 230.96777344 C378.8182867 230.16733792 378.81723745 229.3669024 378.81615642 228.54221126 C378.79874 215.57302387 378.76719553 202.60390723 378.73045132 189.63476184 C378.69307626 176.33224096 378.67083393 163.0297572 378.66270852 149.72718596 C378.65721359 141.51539938 378.63984388 133.30381276 378.60739663 125.09208772 C378.5862911 119.46486996 378.57985343 113.83775594 378.58505699 108.21050146 C378.58762502 104.96132156 378.58145376 101.71256664 378.5622406 98.46343231 C378.54244203 94.94378358 378.54708701 91.4250018 378.55804443 87.90533447 C378.54639307 86.8742117 378.5347417 85.84308892 378.52273726 84.78072 C378.58108525 77.8829143 378.58108525 77.8829143 380.94412613 74.61724472 C383.20162191 73.1439068 384.36505237 72.70821859 387.0390625 72.75 C388.0290625 72.73453125 388.0290625 72.73453125 389.0390625 72.71875 C392.18893281 73.5554343 393.1152531 74.5666538 395.0390625 77.25 C395.65893426 80.93639673 395.57795799 84.60361766 395.54699707 88.33398438 C395.55635701 90.04996952 395.55635701 90.04996952 395.56590605 91.80062103 C395.57911434 94.97651016 395.57434222 98.15178936 395.56196117 101.32766342 C395.5529231 104.75241113 395.56687418 108.17707542 395.57788086 111.60180664 C395.59568407 118.31101802 395.59181816 125.02005059 395.5802303 131.72926903 C395.5712033 137.1810999 395.56996878 142.6328806 395.57432556 148.0847168 C395.57493849 148.86012109 395.57555143 149.63552539 395.57618293 150.43442678 C395.57746181 152.00955774 395.57875866 153.58468868 395.5800733 155.1598196 C395.59148437 169.9360498 395.57835715 184.7121808 395.55687183 199.48839474 C395.53900035 212.17200035 395.54210431 224.85545953 395.56054688 237.5390625 C395.58194431 252.26176617 395.59038568 266.98438286 395.57809782 281.70709991 C395.5768236 283.27649433 395.57556612 284.84588876 395.57432556 286.4152832 C395.57339991 287.57359532 395.57339991 287.57359532 395.57245556 288.75530767 C395.56899926 294.20172046 395.57483699 299.64807816 395.58424377 305.09448242 C395.59545265 311.7302549 395.59244731 318.36583808 395.5711208 325.00158882 C395.56059519 328.38846381 395.55651379 331.77502297 395.56971741 335.16189575 C395.58059179 338.83025424 395.56700604 342.49771489 395.54699707 346.16601562 C395.5603814 347.77864414 395.5603814 347.77864414 395.57403612 349.42385101 C395.56360513 350.40469917 395.55317414 351.38554733 395.54242706 352.39611816 C395.54177765 353.24300453 395.54112824 354.0898909 395.54045916 354.96244049 C394.82996551 358.20397887 393.73065104 359.3262996 391.0390625 361.25 C387.79249191 361.75139666 387.79249191 361.75139666 383.8493042 361.75336456 C383.12059492 361.75917833 382.39188564 361.76499209 381.64109427 361.77098203 C379.18585308 361.78564374 376.73160199 361.77166865 374.27636719 361.75793457 C372.5036731 361.76254112 370.73098283 361.76889238 368.95830059 361.77684355 C364.07632372 361.79359509 359.19465823 361.78526399 354.31268001 361.77289867 C349.05137279 361.76387373 343.79012031 361.77780554 338.52882385 361.78881836 C328.21544891 361.80663851 317.90219018 361.80274719 307.58881062 361.7911678 C299.20465431 361.78214356 290.82053062 361.78090511 282.43637085 361.78526306 C281.24419679 361.78587599 280.05202273 361.78648893 278.82372218 361.78712043 C276.40193008 361.78839932 273.98013799 361.78969617 271.55834591 361.7910108 C248.8268346 361.80242784 226.0953877 361.78928731 203.36388695 361.76780933 C183.86511755 361.7499557 164.36644345 361.75302598 144.86767578 361.77148438 C122.23131681 361.79290289 99.59501446 361.80130974 76.95864677 361.78903532 C74.54319128 361.78776113 72.12773578 361.78650364 69.71228027 361.78526306 C67.92958573 361.78433741 67.92958573 361.78433741 66.11087716 361.78339306 C57.74223923 361.77994174 49.37363724 361.78576421 41.00500488 361.79518127 C30.79790631 361.80641432 20.59093075 361.80333445 10.38384622 361.7820583 C5.1773279 361.77156271 -0.02898554 361.76740045 -5.23550224 361.78065491 C-10.00650395 361.79261655 -14.77711183 361.78595407 -19.54807806 361.7647447 C-21.2695564 361.76029437 -22.99106834 361.76250943 -24.71252489 361.77224785 C-40.78717893 361.85617181 -56.07342584 358.30064023 -68.27734375 347.0625 C-79.59567495 334.87756804 -85.2729051 321.41165876 -85.23509216 304.9552002 C-85.24032884 303.82457515 -85.24556552 302.69395011 -85.25096089 301.5290637 C-85.26595148 297.74394929 -85.26666585 293.95897018 -85.26733398 290.17382812 C-85.27387746 287.45824542 -85.28333541 284.74267436 -85.29255676 282.02709961 C-85.31536903 274.6507097 -85.3233237 267.27434864 -85.32838321 259.89792824 C-85.33164543 255.28639424 -85.33817119 250.67486853 -85.3453846 246.06333923 C-85.3649477 233.27961751 -85.38135291 220.49590349 -85.38426113 207.71216583 C-85.3844487 206.89468918 -85.38463627 206.07721253 -85.38482952 205.23496386 C-85.38519576 203.5779314 -85.38555946 201.92089894 -85.38592064 200.26386648 C-85.38610345 199.44138039 -85.38628626 198.61889429 -85.38647461 197.77148438 C-85.38665516 196.94798664 -85.38683571 196.1244889 -85.38702173 195.27603668 C-85.39055991 181.94609844 -85.41756125 168.6163221 -85.4549725 155.28643996 C-85.49313 141.58021687 -85.51241916 127.87407395 -85.51272064 114.16779661 C-85.51330364 106.48060361 -85.52169272 98.79360363 -85.55071831 91.10646057 C-85.57533234 84.55780598 -85.58244822 78.00941476 -85.56747078 71.46072632 C-85.56034149 68.12492065 -85.56375028 64.79005347 -85.58388138 61.45423889 C-85.68868949 42.95077211 -85.08068371 28.16243941 -72.9609375 13.25 C-72.3421875 12.42757812 -71.7234375 11.60515625 -71.0859375 10.7578125 C-54.25015514 -9.11088653 -22.01325939 -13.01047521 0 0 Z " fill="#323232" transform="translate(100.9609375,134.75)"/>
<path d="M0 0 C2.35231726 2.63088114 2.96321269 3.54015862 3.25 7.125 C3 10 3 10 2 12 C2.804375 12.309375 2.804375 12.309375 3.625 12.625 C6.91978009 14.53250426 9.59363628 17.04819384 12 20 C12 20.66 12 21.32 12 22 C12.99 21.505 12.99 21.505 14 21 C17.62124084 20.59763991 19.42157684 20.62009961 22.50390625 22.64453125 C30.85742029 30.52742479 33.80315842 44.49547873 34.31640625 55.5625 C34.87840923 75.57234608 31.36433787 93.95721454 17.56079102 109.16723633 C16.13679495 110.67151635 14.68439948 112.14190455 13.22265625 113.609375 C10.8131697 115.86986908 10.8131697 115.86986908 10 119 C10.66 119.185625 11.32 119.37125 12 119.5625 C17.48108616 122.18885379 21.68159604 125.98119393 25 131.0625 C27.34363765 137.83300876 27.35504891 146.91435385 24.5 153.5 C21.67532353 158.19098057 17.02930683 162.11119296 11.75 163.66015625 C10.88375 163.82837891 10.88375 163.82837891 10 164 C9.97421875 164.81082031 9.9484375 165.62164062 9.921875 166.45703125 C9.17071295 181.12176317 4.12632408 192.86154232 -6.54296875 203.08203125 C-13.01340583 208.13288118 -20.63200272 211.68719248 -28.6875 213.1875 C-34.347734 214.51786157 -37.14238402 217.97906999 -40.73730469 222.23950195 C-53.03897893 236.6399269 -72.58577333 244.69707274 -90.9375 247.9375 C-96.99738842 249.22363311 -101.94491393 252.26467566 -105.67578125 257.23046875 C-109.11899468 263.331261 -110.19323603 269.08712021 -109 276 C-106.85015545 283.12843192 -103.41553097 287.12852827 -97.0859375 290.94140625 C-93.48734564 292.76765792 -90.61217013 293.13797703 -86.6328125 293.2109375 C-85.58222656 293.23929687 -84.53164062 293.26765625 -83.44921875 293.296875 C-81.24105145 293.34877082 -79.0326927 293.3930974 -76.82421875 293.4296875 C-75.77105469 293.460625 -74.71789062 293.4915625 -73.6328125 293.5234375 C-72.67262207 293.54325684 -71.71243164 293.56307617 -70.72314453 293.58349609 C-67.52838551 294.07213325 -65.60767282 295.11812081 -63 297 C-61.59542263 299.80915474 -61.75104843 301.88810534 -62 305 C-63.77984405 308.1359157 -64.52308207 308.84102736 -68 310 C-72.16171709 310.28856588 -76.32941324 310.27789889 -80.5 310.3125 C-81.634375 310.34150391 -82.76875 310.37050781 -83.9375 310.40039062 C-96.69637346 310.49549691 -105.97639256 306.71431097 -115.12890625 297.96484375 C-124.0379045 288.66207762 -126.47719531 278.32849211 -126.33203125 265.69921875 C-125.38399153 255.13694098 -119.8350931 246.89579831 -112 240 C-105.51840599 234.85983018 -99.13558518 232.49361192 -91.1875 230.4375 C-89.05082287 229.84567782 -86.9153819 229.24937316 -84.78125 228.6484375 C-83.77449219 228.36581055 -82.76773438 228.08318359 -81.73046875 227.79199219 C-71.51675011 224.82942931 -60.09340525 220.14010787 -54 211 C-54.804375 210.79375 -55.60875 210.5875 -56.4375 210.375 C-69.08460499 205.49366123 -76.79846116 196.36550705 -82.5546875 184.46484375 C-84.77236679 179.14840718 -86.28357078 174.35033339 -86.125 168.5625 C-86.10695312 167.69753906 -86.08890625 166.83257812 -86.0703125 165.94140625 C-86.04710937 165.30074219 -86.02390625 164.66007813 -86 164 C-86.845625 163.79375 -87.69125 163.5875 -88.5625 163.375 C-94.09302396 161.16279042 -97.71099999 157.99587098 -100.9375 153 C-103.34201801 146.25232134 -103.38964596 137.13804993 -100.5 130.5625 C-97.65563779 125.84898547 -93.09867191 120.95219606 -87.75 119.30859375 C-86.88375 119.15583984 -86.88375 119.15583984 -86 119 C-88.0299984 115.34984514 -90.2545797 112.58387535 -93.1875 109.625 C-107.08853167 94.32028109 -111.0184202 75.6834025 -110.375 55.49609375 C-109.24606604 34.8895211 -99.12791992 19.49584592 -84.6015625 5.7265625 C-62.57637694 -13.3716881 -24.15235541 -17.37579526 0 0 Z " fill="#323332" transform="translate(278,58)"/>
<path d="M0 0 C8.93265882 6.43390836 15.13797648 14.69782609 17.58203125 25.4921875 C18.32233547 32.55126412 18.14604986 39.68163614 18.11328125 46.76953125 C18.1159795 48.82931196 18.11986469 50.88909142 18.12487793 52.9488678 C18.13074802 57.24476365 18.12228436 61.54032491 18.10351562 65.83618164 C18.08062666 71.34322657 18.09392771 76.84949591 18.11780548 82.35651302 C18.13224498 86.60042697 18.12766768 90.84415619 18.11729431 95.08807564 C18.11462713 97.11947281 18.11789647 99.15088677 18.12721252 101.18226433 C18.13735865 104.01380987 18.1219088 106.8440863 18.09960938 109.67553711 C18.1077063 110.51349319 18.11580322 111.35144928 18.12414551 112.21479797 C18.07156652 115.81406418 17.88771661 118.05466604 15.79968262 121.04322815 C13.58203125 122.4921875 13.58203125 122.4921875 9.58203125 122.4921875 C9.58203125 127.7721875 9.58203125 133.0521875 9.58203125 138.4921875 C11.56203125 138.8221875 13.54203125 139.1521875 15.58203125 139.4921875 C17.8340658 142.87023933 17.84905277 144.07218571 17.90328979 148.03521729 C17.92338104 149.1893512 17.94347229 150.34348511 17.96417236 151.53259277 C17.97583435 152.80090942 17.98749634 154.06922607 17.99951172 155.37597656 C18.01859655 156.7251278 18.03837922 158.07426932 18.05880737 159.42340088 C18.12166693 163.86808632 18.16220771 168.31284631 18.19921875 172.7578125 C18.20911072 173.89874375 18.20911072 173.89874375 18.21920252 175.06272411 C18.28091285 182.26704956 18.33423322 189.47139321 18.36804008 196.67590714 C18.41147466 205.8208315 18.49448653 214.96334964 18.63491523 224.10731339 C18.73068138 230.56978287 18.77807867 237.03162038 18.79243386 243.49477553 C18.80218319 247.33382574 18.83067595 251.17017197 18.91192245 255.00843048 C19.33953852 276.22444384 15.90492512 292.61725898 7.1377964 311.98019409 C4.54429024 317.83479015 2.29129196 323.81383051 -0.0078125 329.7890625 C-1.33925689 333.15615609 -2.67938926 336.51966073 -4.02075195 339.8828125 C-4.92947717 342.17000091 -5.83156724 344.45983417 -6.7277832 346.75195312 C-8.05572532 350.14566175 -9.40434028 353.530469 -10.7578125 356.9140625 C-11.15371078 357.93876648 -11.54960907 358.96347046 -11.95750427 360.01922607 C-14.76203491 366.9384682 -14.76203491 366.9384682 -17.98266602 369.65722656 C-21.50022333 370.86324621 -23.86507139 370.47910343 -27.41796875 369.4921875 C-30.54716023 366.21222089 -31.96422175 362.08233974 -33.58837891 357.92553711 C-33.88957138 357.16899338 -34.19076385 356.41244965 -34.50108337 355.63298035 C-35.49223817 353.13910191 -36.47469161 350.64189365 -37.45703125 348.14453125 C-38.14486718 346.40845429 -38.83321888 344.6725816 -39.52206421 342.93690491 C-41.33219219 338.3715977 -43.1348451 333.8033736 -44.93609619 329.23455811 C-46.4090514 325.50201571 -47.88716388 321.77152662 -49.36557961 318.04114437 C-52.41787026 310.33936911 -55.46679966 302.63625717 -58.50634766 294.92944336 C-58.92869438 293.86101196 -58.92869438 293.86101196 -59.35957336 292.77099609 C-62.54167406 284.69293527 -62.54167406 284.69293527 -62.55218983 280.10887146 C-62.55664767 279.20748255 -62.56110551 278.30609364 -62.56569844 277.37738991 C-62.56551408 276.38587614 -62.56532972 275.39436237 -62.56513977 274.37280273 C-62.56881646 273.32036062 -62.57249315 272.26791851 -62.57628125 271.18358421 C-62.58733829 267.63931169 -62.59116539 264.09506846 -62.5949707 260.55078125 C-62.60123392 258.0164938 -62.6078806 255.48220727 -62.61488342 252.94792175 C-62.63412723 245.32873491 -62.64471528 237.7095532 -62.65361121 230.09034824 C-62.65799548 226.50047787 -62.66336204 222.91060896 -62.66860008 219.32073975 C-62.68561454 207.38299872 -62.70010699 195.44525861 -62.70734882 183.50750732 C-62.70925867 180.40946451 -62.711179 177.3114217 -62.71313477 174.21337891 C-62.71361851 173.4433916 -62.71410225 172.67340429 -62.71460065 171.88008404 C-62.72289443 159.41696366 -62.74821932 146.95393947 -62.78071544 134.49086106 C-62.81382252 121.68880055 -62.831801 108.88678885 -62.83499306 96.08468533 C-62.83715511 88.89948503 -62.84585855 81.71442486 -62.87145424 74.52926636 C-62.89549176 67.76591742 -62.89896404 61.00286372 -62.88869286 54.23946571 C-62.8881976 51.76073684 -62.89451501 49.28199554 -62.9082489 46.80330467 C-62.92598862 43.41105015 -62.9188504 40.01969731 -62.90571594 36.62744141 C-62.92216981 35.16693942 -62.92216981 35.16693942 -62.93895608 33.67693233 C-62.8360437 22.61619065 -59.0521164 13.48914613 -51.41796875 5.4921875 C-37.63784493 -7.66275112 -16.31305228 -10.17259803 0 0 Z " fill="#323232" transform="translate(446.41796875,21.5078125)"/>
<path d="M0 0 C1.4217881 -0.01913956 1.4217881 -0.01913956 2.87229919 -0.03866577 C4.40516319 -0.04200424 4.40516319 -0.04200424 5.96899414 -0.04541016 C7.02067276 -0.05206696 8.07235138 -0.05872375 9.15589905 -0.06558228 C11.38093312 -0.07571112 13.60599758 -0.08039922 15.83105469 -0.08007812 C19.23756874 -0.08445137 22.64278752 -0.12076992 26.04907227 -0.15869141 C28.20987512 -0.16455943 30.37068414 -0.16852892 32.53149414 -0.17041016 C33.55137924 -0.18478119 34.57126434 -0.19915222 35.62205505 -0.21395874 C42.62638825 -0.16863909 42.62638825 -0.16863909 45.99072266 2.06933594 C47.31665039 4.29052734 47.31665039 4.29052734 47.31665039 8.29052734 C52.59665039 8.29052734 57.87665039 8.29052734 63.31665039 8.29052734 C63.28410156 10.85455322 63.25155273 13.4185791 63.21801758 16.06030273 C63.11784458 24.66955991 63.08640326 33.27817038 63.08605576 41.88797855 C63.08384465 47.09277975 63.06067509 52.29547498 62.98413086 57.49975586 C62.63438954 82.49882519 63.76676309 103.09053218 74.67877197 125.79336548 C77.40711843 131.61887065 79.65751549 137.62554767 81.97680664 143.62255859 C82.87751928 145.88375524 83.78176807 148.14354679 84.68969727 150.40185547 C86.05802253 153.8075814 87.4233132 157.21429418 88.77734375 160.62573242 C90.12649229 164.02419066 91.48766158 167.41759704 92.85180664 170.81005859 C93.46113792 172.35485649 93.46113792 172.35485649 94.08277893 173.93086243 C94.46425583 174.87173203 94.84573273 175.81260162 95.23876953 176.78198242 C95.56897598 177.60781326 95.89918243 178.4336441 96.23939514 179.28450012 C97.28519282 181.60943864 97.28519282 181.60943864 100.31665039 183.29052734 C104.48959648 183.44872391 104.48959648 183.44872391 108.31665039 182.29052734 C109.56060523 180.70099879 109.56060523 180.70099879 110.37678528 178.69282532 C110.70686396 177.96882853 111.03694263 177.24483173 111.3770237 176.49889565 C111.68710051 175.77013411 111.99717731 175.04137257 112.31665039 174.29052734 C112.58511969 173.6664266 112.85358898 173.04232586 113.13019371 172.39931297 C113.91669701 170.51798093 114.67087217 168.62645277 115.41699219 166.72875977 C115.69882355 166.02039978 115.98065491 165.31203979 116.27102661 164.58221436 C117.18939017 162.27148051 118.10270278 159.95878814 119.01586914 157.64599609 C119.65765637 156.02782484 120.29973574 154.40976943 120.9420929 152.79182434 C122.28141293 149.41634269 123.61845079 146.03997007 124.95361328 142.6628418 C126.66550416 138.332849 128.38121194 134.00438222 130.09837627 129.67647839 C131.73874722 125.54179566 133.37745111 121.40645301 135.01586914 117.27099609 C135.48445123 116.08868943 135.48445123 116.08868943 135.96249962 114.88249779 C136.84407383 112.65713137 137.72448591 110.4313091 138.60449219 108.20532227 C138.86578415 107.54607254 139.12707611 106.88682281 139.39628601 106.20759583 C141.66608746 100.45934654 142.47931718 95.84539921 142.52197266 89.68823242 C142.53187225 88.80997299 142.54177185 87.93171356 142.55197144 87.02684021 C142.58358158 84.12127384 142.608342 81.21569112 142.63305664 78.31005859 C142.65362658 76.2965197 142.67462307 74.28298513 142.69602966 72.26945496 C142.75124616 66.96765638 142.80065734 61.66581885 142.84887695 56.36395264 C142.89909502 50.95467662 142.9547795 45.54545722 143.01000977 40.13623047 C143.11758619 29.52104445 143.21903235 18.90580929 143.31665039 8.29052734 C148.59665039 8.29052734 153.87665039 8.29052734 159.31665039 8.29052734 C159.31665039 76.93052734 159.31665039 145.57052734 159.31665039 216.29052734 C143.47665039 216.29052734 127.63665039 216.29052734 111.31665039 216.29052734 C110.98665039 212.66052734 110.65665039 209.03052734 110.31665039 205.29052734 C108.85346129 202.48877904 108.85346129 202.48877904 106.31665039 201.29052734 C102.83877365 200.71088122 101.0742785 200.8605222 98.00415039 202.60302734 C96.09010806 205.65131698 95.97383335 207.40879724 95.71118164 210.95849609 C95.63359619 211.95518311 95.55601074 212.95187012 95.47607422 213.97875977 C95.42346436 214.74164307 95.37085449 215.50452637 95.31665039 216.29052734 C62.27814916 216.62121761 31.73788816 215.79207077 0.31665039 204.29052734 C1.31665039 201.29052734 1.31665039 201.29052734 3.56665039 199.47802734 C6.31665039 198.29052734 6.31665039 198.29052734 8.56665039 198.79052734 C10.19690368 199.67975641 11.81189505 200.59982165 13.38696289 201.58349609 C17.07395911 203.81444127 19.66267066 205.22402093 24.00415039 205.66552734 C27.60821426 204.16950083 28.11668051 203.51995696 30.12524414 200.36474609 C30.64352783 199.55360352 31.16181152 198.74246094 31.69580078 197.90673828 C32.23068115 197.04338867 32.76556152 196.18003906 33.31665039 195.29052734 C34.11220337 194.01483887 34.11220337 194.01483887 34.92382812 192.71337891 C36.54564323 190.06968944 38.12253079 187.40327941 39.69165039 184.72802734 C40.23692383 183.8340625 40.78219727 182.94009766 41.34399414 182.01904297 C44.54903922 176.52869631 46.41851711 172.67714339 45.31665039 166.29052734 C43.60875483 164.17951012 43.60875483 164.17951012 41.12915039 162.97802734 C40.31188477 162.49205078 39.49461914 162.00607422 38.65258789 161.50537109 C36.23382995 160.20199032 36.23382995 160.20199032 33.25415039 159.04052734 C30.86330331 156.88105256 30.6480639 155.75948712 30.19165039 152.60302734 C30.28149414 149.93896484 30.28149414 149.93896484 31.31665039 147.29052734 C35.34051968 143.9382129 39.66510054 141.65645509 44.31665039 139.29052734 C45.66623142 138.13697015 45.66623142 138.13697015 45.82836914 135.05224609 C45.74457236 128.89112231 42.27842793 123.99080012 39.18261719 118.85327148 C38.13144835 117.1068452 37.1081203 115.3463266 36.08813477 113.58154297 C32.92736198 108.21902212 30.05935539 103.4166008 25.31665039 99.29052734 C19.34384912 98.93918609 15.43325085 101.89171903 10.74633789 105.20849609 C8.31665039 106.29052734 8.31665039 106.29052734 5.76196289 105.59130859 C4.95500977 105.16205078 4.14805664 104.73279297 3.31665039 104.29052734 C2.17196289 103.73365234 2.17196289 103.73365234 1.00415039 103.16552734 C0.44727539 102.87677734 -0.10959961 102.58802734 -0.68334961 102.29052734 C-0.73233398 101.09814453 -0.78131836 99.90576172 -0.83178711 98.67724609 C-0.90682564 97.11081667 -0.98237301 95.54441155 -1.05834961 93.97802734 C-1.08928711 93.19234375 -1.12022461 92.40666016 -1.15209961 91.59716797 C-1.19077148 90.83984375 -1.22944336 90.08251953 -1.26928711 89.30224609 C-1.30070801 88.60574951 -1.33212891 87.90925293 -1.36450195 87.19165039 C-1.60453214 84.96519995 -1.60453214 84.96519995 -3.68334961 82.29052734 C-7.44935911 81.03519084 -11.00326406 81.08936692 -14.92944336 81.05224609 C-16.14072655 81.04013847 -16.14072655 81.04013847 -17.3764801 81.02778625 C-19.0836473 81.01396583 -20.79084189 81.00323456 -22.49804688 80.99536133 C-25.1078705 80.97811312 -27.71643836 80.93420678 -30.32592773 80.89013672 C-31.98542364 80.88001228 -33.64493029 80.8714954 -35.30444336 80.86474609 C-36.08371689 80.84723801 -36.86299042 80.82972992 -37.6658783 80.81169128 C-41.18417087 80.82577619 -43.28099322 81.00439241 -46.18432617 83.0690918 C-48.79397381 86.93638558 -48.08009683 91.58512236 -47.90795898 96.09130859 C-47.92174954 98.34113857 -47.99445318 100.14532412 -48.68334961 102.29052734 C-50.92360051 104.40947931 -52.74036681 105.11397192 -55.68334961 106.29052734 C-58.50347045 105.7710314 -60.34060789 104.50603918 -62.74584961 102.99365234 C-66.43919163 100.77265613 -69.02836378 99.35713607 -73.37084961 98.91552734 C-81.04865553 102.10254112 -85.12198204 113.36961969 -89.05834961 120.35302734 C-89.87625977 121.79452148 -89.87625977 121.79452148 -90.71069336 123.26513672 C-92.03792251 125.60525127 -93.36207645 127.94704649 -94.68334961 130.29052734 C-95.67334961 130.29052734 -96.66334961 130.29052734 -97.68334961 130.29052734 C-99.37057797 128.21941584 -100.80730463 126.2154203 -102.24584961 123.97802734 C-102.67478516 123.31955811 -103.1037207 122.66108887 -103.5456543 121.98266602 C-107.05946379 116.47910129 -110.31094058 110.83656405 -113.43334961 105.10302734 C-113.88782471 104.28987061 -114.3422998 103.47671387 -114.81054688 102.63891602 C-115.21716553 101.87039307 -115.62378418 101.10187012 -116.04272461 100.31005859 C-116.40849609 99.63048096 -116.77426758 98.95090332 -117.15112305 98.25073242 C-117.68334961 96.29052734 -117.68334961 96.29052734 -116.93579102 94.11450195 C-115.14940943 91.51293142 -113.26129408 91.07909574 -110.30834961 90.04052734 C-98.51645545 85.41404256 -86.96914143 77.43978476 -79.37866211 67.17333984 C-76.20232673 63.776042 -73.36433264 62.84909997 -68.99584961 61.79052734 C-57.10155707 58.46688355 -47.54423813 52.85516309 -40.73803711 42.26318359 C-36.68347936 34.85810219 -35.03528775 28.34870101 -33.95996094 20.01147461 C-33.44859917 16.7316666 -33.00101589 14.64701231 -30.76538086 12.13818359 C-28.75805859 10.91247353 -26.90239251 10.04679308 -24.68334961 9.29052734 C-24.35334961 8.96052734 -24.02334961 8.63052734 -23.68334961 8.29052734 C-21.15285559 8.21739168 -18.65030124 8.19805207 -16.12084961 8.22802734 C-15.05447266 8.23479492 -15.05447266 8.23479492 -13.96655273 8.24169922 C-12.20544948 8.2535187 -10.44438925 8.27145471 -8.68334961 8.29052734 C-8.58022461 7.34177734 -8.47709961 6.39302734 -8.37084961 5.41552734 C-7.27313842 0.42593104 -4.60535582 0.04209817 0 0 Z " fill="#56B6EA" transform="translate(320.683349609375,207.70947265625)"/>
<path d="M0 0 C8.06078485 5.00041908 13.90101202 11.88308416 17.4296875 20.6796875 C17.77172651 21.52179087 18.11376553 22.36389423 18.46616936 23.23151588 C19.67324405 27.55131073 19.70062577 31.44393198 19.67019653 35.90512085 C19.67190538 36.82496313 19.67361423 37.74480541 19.67537487 38.69252169 C19.67866468 41.76954075 19.66767434 44.84634093 19.65673828 47.92333984 C19.65617406 50.13109329 19.65649094 52.33884711 19.65762329 54.54660034 C19.65819737 60.53782237 19.64643404 66.5289644 19.63247538 72.52016783 C19.61997727 78.78220941 19.61879824 85.0442528 19.61642456 91.30630493 C19.61091361 101.81603283 19.59841911 112.32573598 19.58056641 122.83544922 C19.56219971 133.65901544 19.54804707 144.48257368 19.53955078 155.30615234 C19.53902533 155.97366301 19.53849989 156.64117368 19.53795852 157.32891195 C19.53534838 160.67772005 19.53282098 164.02652821 19.53033471 167.37533641 C19.50942667 195.14347388 19.47424548 222.91157862 19.4296875 250.6796875 C18.48818848 250.05191406 17.54668945 249.42414063 16.57666016 248.77734375 C1.4740816 238.71052025 -13.31108157 233.5980152 -31.69140625 236.10546875 C-42.13091235 238.36528216 -51.70882341 243.4733225 -59.5703125 250.6796875 C-59.9003125 250.6796875 -60.2303125 250.6796875 -60.5703125 250.6796875 C-60.68720672 221.68101384 -60.7753307 192.6823756 -60.82937336 163.68351364 C-60.83447244 161.00092296 -60.83967904 158.3183325 -60.8449707 155.63574219 C-60.84628226 154.9689922 -60.84759381 154.30224222 -60.8489451 153.61528769 C-60.87066707 142.83715716 -60.91007071 132.05916077 -60.95607648 121.28110966 C-61.00293081 110.211457 -61.03025284 99.1418781 -61.04075497 88.0721314 C-61.0472631 81.85873218 -61.06251773 75.64563662 -61.09896278 69.4323349 C-61.13302011 63.5784117 -61.14334562 57.72491588 -61.13585091 51.87090302 C-61.13722109 49.72799351 -61.14709498 47.58506901 -61.16633987 45.44224548 C-61.29523678 30.34356198 -60.24511553 18.34871238 -49.5703125 6.6796875 C-35.91747281 -7.16635275 -17.09602669 -8.78184958 0 0 Z " fill="#57B6EA" transform="translate(92.5703125,149.3203125)"/>
<path d="M0 0 C1.20348083 -0.00006042 1.20348083 -0.00006042 2.43127441 -0.00012207 C4.12239443 0.00522359 5.8135146 0.02276578 7.50439453 0.05175781 C10.08573724 0.09362006 12.66446867 0.09282315 15.24609375 0.0859375 C16.89324721 0.09643096 18.54038728 0.10936992 20.1875 0.125 C21.3392572 0.12530212 21.3392572 0.12530212 22.51428223 0.12561035 C27.02599744 0.22473308 30.01087988 0.78722566 33.59375 3.59375 C35.24872356 6.90369713 34.69459335 10.58498 34.65625 14.21875 C34.65173828 15.02054687 34.64722656 15.82234375 34.64257812 16.6484375 C34.63078168 18.63024006 34.61284605 20.61200433 34.59375 22.59375 C38.21348402 23.91001692 40.68942131 24.59375 44.59375 24.59375 C46.40102304 23.63891202 48.16977207 22.60948736 49.90625 21.53125 C53.54304231 19.4849482 55.2940773 18.60802013 59.53125 18.40625 C66.38542094 21.06398975 69.75213297 29.56861245 73.30419922 35.63989258 C73.99674229 36.81663028 74.69695686 37.98888691 75.40478516 39.15649414 C82.84397558 51.43029532 82.84397558 51.43029532 81.59375 58.59375 C79.59375 60.78125 79.59375 60.78125 76.59375 62.59375 C75.91957031 63.03847656 75.24539063 63.48320312 74.55078125 63.94140625 C68.9654422 67.59375 68.9654422 67.59375 66.59375 67.59375 C66.59375 70.89375 66.59375 74.19375 66.59375 77.59375 C67.32078125 77.86058594 68.0478125 78.12742187 68.796875 78.40234375 C71.57120971 79.58414834 73.85777797 80.95861474 76.34375 82.65625 C77.12234375 83.18347656 77.9009375 83.71070313 78.703125 84.25390625 C80.59375 85.59375 80.59375 85.59375 81.59375 86.59375 C82.93056576 94.98935807 78.56247563 100.82219706 74.34375 107.78125 C73.65344061 108.95419233 72.96462543 110.1280154 72.27734375 111.30273438 C64.21229442 124.91935649 64.21229442 124.91935649 59.59375 126.84375 C54.50678447 127.33923366 50.45130365 123.70627712 46.4609375 120.96484375 C43.69609188 119.25754445 43.69609188 119.25754445 40.9765625 120.31640625 C40.19023437 120.73792969 39.40390625 121.15945313 38.59375 121.59375 C37.26698492 121.95233516 35.93539079 122.2956076 34.59375 122.59375 C34.62855469 123.69074219 34.66335938 124.78773438 34.69921875 125.91796875 C34.72736865 127.37238045 34.75466752 128.8268088 34.78125 130.28125 C34.80638672 131.00248047 34.83152344 131.72371094 34.85742188 132.46679688 C34.92005162 137.0387683 34.52708041 140.01768519 31.59375 143.59375 C27.8240619 144.8503127 24.27657257 144.77550362 20.34765625 144.796875 C19.54013412 144.80257507 18.732612 144.80827515 17.90061951 144.81414795 C16.19344388 144.82358834 14.48625011 144.83012812 12.77905273 144.83398438 C10.16943625 144.8437009 7.56060393 144.8747369 4.95117188 144.90625 C3.29167134 144.91277933 1.63216518 144.91803007 -0.02734375 144.921875 C-1.19625404 144.9403952 -1.19625404 144.9403952 -2.38877869 144.95928955 C-5.62902164 144.94598287 -7.99008795 144.81914875 -10.86743164 143.26074219 C-14.24465348 139.60221915 -13.52166328 135.06668917 -13.46875 130.40625 C-13.46423828 129.65666016 -13.45972656 128.90707031 -13.45507812 128.13476562 C-13.44331354 126.28772617 -13.42537865 124.44072787 -13.40625 122.59375 C-15.06322379 121.90334426 -16.7318261 121.2406865 -18.40625 120.59375 C-19.04949219 120.3153125 -19.69273437 120.036875 -20.35546875 119.75 C-23.64818937 119.49912605 -25.53061888 121.29936209 -28.21875 123.09375 C-34.86882646 127.16489437 -34.86882646 127.16489437 -38.46875 126.71875 C-43.12128041 124.93692984 -43.12128041 124.93692984 -44.40625 122.59375 C-44.96862363 115.50784226 -44.96862363 115.50784226 -43.23828125 112.6953125 C-42.12008571 110.50716576 -42.12008571 110.50716576 -43.2421875 107.83203125 C-45.81572253 102.29468696 -45.81572253 102.29468696 -50.453125 98.796875 C-52.43412436 98.66282241 -54.42097842 98.62577051 -56.40625 98.59375 C-58.90625 97.03125 -58.90625 97.03125 -60.40625 94.59375 C-61.0116822 91.78569781 -61.05627483 89.39698207 -60.40625 86.59375 C-56.77254315 82.49117775 -51.22263325 80.15409317 -46.40625 77.59375 C-45.63102626 74.02628519 -45.36847613 71.12320866 -46.40625 67.59375 C-50.07891347 64.55525515 -54.14256623 62.67244347 -58.40625 60.59375 C-60.40625 58.59375 -60.40625 58.59375 -60.984375 55.29296875 C-60.80802267 48.55965448 -56.54371903 42.99409296 -53.15625 37.40625 C-52.46594061 36.23330767 -51.77712543 35.0594846 -51.08984375 33.88476562 C-43.02479442 20.26814351 -43.02479442 20.26814351 -38.40625 18.34375 C-33.31928447 17.84826634 -29.26380365 21.48122288 -25.2734375 24.22265625 C-22.50859188 25.92995555 -22.50859188 25.92995555 -19.7890625 24.87109375 C-19.00273437 24.44957031 -18.21640625 24.02804687 -17.40625 23.59375 C-16.07948492 23.23516484 -14.74789079 22.8918924 -13.40625 22.59375 C-13.46425781 21.42457031 -13.52226562 20.25539063 -13.58203125 19.05078125 C-13.62894449 17.5026442 -13.67444298 15.95446383 -13.71875 14.40625 C-13.76064453 13.63732422 -13.80253906 12.86839844 -13.84570312 12.07617188 C-13.86181641 11.32529297 -13.87792969 10.57441406 -13.89453125 9.80078125 C-13.92071533 9.1147583 -13.94689941 8.42873535 -13.97387695 7.72192383 C-12.08173014 0.62779746 -6.38347934 -0.13630324 0 0 Z " fill="#333333" transform="translate(285.40625,287.40625)"/>
<path d="M0 0 C5.28 0 10.56 0 16 0 C16.22786458 3.25520833 16.45572917 6.51041667 16.68359375 9.765625 C17.01369529 13.46196844 17.01369529 13.46196844 18 17 C19.98421259 17.71228144 21.98967123 18.36515933 24 19 C32.85618729 23.85618729 32.85618729 23.85618729 35 26 C39.72402693 26.4072437 42.69222098 26.48459072 46.75 23.9375 C50 22 50 22 51.9921875 22.078125 C54.84307559 23.38709307 55.77391995 25.14533494 57.375 27.8125 C57.91898437 28.68519531 58.46296875 29.55789063 59.0234375 30.45703125 C60 33 60 33 59.44921875 35.12890625 C57.68938473 37.40103696 55.88433683 38.62469234 53.4375 40.125 C50.12890878 42.01471763 50.12890878 42.01471763 48 45 C47.67988211 48.59707151 47.67567668 52.20293799 47.625 55.8125 C47.58761719 56.81087891 47.55023438 57.80925781 47.51171875 58.83789062 C47.40558206 64.87903247 47.40558206 64.87903247 50.28515625 70.0546875 C53.45659025 72.33574457 53.45659025 72.33574457 56.8125 74.3125 C57.864375 74.869375 58.91625 75.42625 60 76 C59.44010697 79.99012371 58.24330232 82.5255052 55.9375 85.8125 C55.38964844 86.60269531 54.84179688 87.39289063 54.27734375 88.20703125 C53.85582031 88.79871094 53.43429687 89.39039063 53 90 C50.04945782 89.49601021 48.1979918 89.13377824 45.6875 87.4375 C42.05055865 85.49215928 38.97329497 85.10280436 35 86 C32.54759082 87.32180698 30.36195747 88.82202848 28.11328125 90.46484375 C25.07585904 92.67132606 21.84074832 95 18 95 C16.84429296 98.46712111 16.67164707 101.5414956 16.4375 105.1875 C16.293125 107.435625 16.14875 109.68375 16 112 C10.72 112 5.44 112 0 112 C-0.22786458 108.45182292 -0.45572917 104.90364583 -0.68359375 101.35546875 C-0.87184547 98.00818107 -0.87184547 98.00818107 -2 95 C-2.804375 94.731875 -3.60875 94.46375 -4.4375 94.1875 C-9.42365313 92.52544896 -15.22575783 89.77424217 -19 86 C-25.84755172 85.33342417 -29.73076456 86.94230481 -35.5 90.5 C-36.59054688 91.14388672 -36.59054688 91.14388672 -37.703125 91.80078125 C-39.47801145 92.85170086 -41.24037399 93.9237239 -43 95 C-45.77292224 92.36250741 -47.39115867 89.70558919 -49.1875 86.3125 C-49.71730469 85.31863281 -50.24710938 84.32476562 -50.79296875 83.30078125 C-51.19128906 82.54152344 -51.58960938 81.78226562 -52 81 C-51.50072998 80.71801758 -51.00145996 80.43603516 -50.48706055 80.14550781 C-48.21538258 78.85585592 -45.95147962 77.55311519 -43.6875 76.25 C-42.50897461 75.58484375 -42.50897461 75.58484375 -41.30664062 74.90625 C-40.54931641 74.46796875 -39.79199219 74.0296875 -39.01171875 73.578125 C-38.31522217 73.18012695 -37.61872559 72.78212891 -36.90112305 72.37207031 C-33.90719589 70.21130614 -32.22652658 68.29159661 -31.58007812 64.60571289 C-31.52724989 61.75695027 -31.49260397 58.91182107 -31.5 56.0625 C-31.45746094 54.5784668 -31.45746094 54.5784668 -31.4140625 53.06445312 C-31.38307992 47.08292385 -31.38307992 47.08292385 -34.29296875 41.984375 C-35.18628906 41.32953125 -36.07960937 40.6746875 -37 40 C-37.66644531 39.47792969 -38.33289063 38.95585937 -39.01953125 38.41796875 C-39.61121094 38.01191406 -40.20289063 37.60585938 -40.8125 37.1875 C-41.864375 36.465625 -42.91625 35.74375 -44 35 C-42.35821735 30.22390502 -39.73453298 26.20617096 -37 22 C-34.05895956 22.42014863 -32.1736222 22.88268771 -29.6875 24.5625 C-26.05055865 26.50784072 -22.97329497 26.89719564 -19 26 C-16.54759082 24.67819302 -14.36195747 23.17797152 -12.11328125 21.53515625 C-9.07585904 19.32867394 -5.84074832 17 -2 17 C-0.95117609 13.43928688 -0.69613047 9.94472103 -0.4375 6.25 C-0.293125 4.1875 -0.14875 2.125 0 0 Z " fill="#F9BA04" transform="translate(288,304)"/>
<path d="M0 0 C3.69338152 1.73624889 5.89917375 1.27922684 9.80859375 0.3203125 C10.79859375 -0.3396875 11.78859375 -0.9996875 12.80859375 -1.6796875 C21.43957325 5.43420772 21.43957325 5.43420772 23.80859375 10.3203125 C23.29296875 10.8359375 22.77734375 11.3515625 22.24609375 11.8828125 C20.63383819 14.61663714 20.56769826 16.11878786 21.15625 19.20703125 C21.96505125 21.82715986 23.07713329 24.21517384 24.24609375 26.6953125 C30.45114276 39.91242557 30.52556433 54.54811097 25.7734375 68.3203125 C23.26274981 74.77867312 20.25077996 80.02670727 15.80859375 85.3203125 C15.12796875 86.2278125 14.44734375 87.1353125 13.74609375 88.0703125 C11.64649221 90.50855945 9.33527933 92.33993732 6.80859375 94.3203125 C5.66044378 96.61661244 5.50089566 98.39729336 5.24609375 100.9453125 C5.12041016 102.17121094 5.12041016 102.17121094 4.9921875 103.421875 C4.93160156 104.04835938 4.87101562 104.67484375 4.80859375 105.3203125 C2.49859375 105.3203125 0.18859375 105.3203125 -2.19140625 105.3203125 C-1.66979052 97.1941927 -0.87791861 89.10974192 0 81.015625 C0.11000336 80.00095154 0.22000671 78.98627808 0.33334351 77.94085693 C0.7950707 73.69852882 1.25959524 69.45651763 1.72729492 65.21484375 C2.07144618 62.08628252 2.41099057 58.95724697 2.75 55.828125 C2.85623184 54.87696808 2.96246368 53.92581116 3.07191467 52.9458313 C4.45612539 44.10748932 4.45612539 44.10748932 2.37109375 35.8203125 C-1.60173335 33.49475517 -4.91702354 34.27087785 -9.19140625 35.3203125 C-13.01003009 36.56207541 -16.77693865 37.86820866 -20.54296875 39.26171875 C-27.82829492 41.37555536 -32.96166533 40.00098358 -39.75390625 37.3203125 C-46.74910195 34.45051347 -46.74910195 34.45051347 -54.19140625 34.3203125 C-56.48882429 35.89297138 -56.48882429 35.89297138 -58.19140625 38.3203125 C-58.55464213 41.28230939 -58.55464213 41.28230939 -58.1015625 44.6328125 C-58.04138443 45.27597412 -57.98120636 45.91913574 -57.91920471 46.58178711 C-57.70061943 48.83108382 -57.44701465 51.07493227 -57.19140625 53.3203125 C-57.00177396 55.09628303 -56.81284244 56.87232848 -56.62451172 58.6484375 C-55.87772572 65.56663082 -55.07472193 72.47816971 -54.27270508 79.39013672 C-53.92858217 82.36650221 -53.58914443 85.34337628 -53.25 88.3203125 C-53.14376816 89.22144775 -53.03753632 90.12258301 -52.92808533 91.05102539 C-52.38295929 95.84521043 -52.08036828 100.4952824 -52.19140625 105.3203125 C-54.50140625 105.3203125 -56.81140625 105.3203125 -59.19140625 105.3203125 C-59.2171875 104.72863281 -59.24296875 104.13695312 -59.26953125 103.52734375 C-59.64924468 98.23724534 -60.24561019 95.15650312 -64.19140625 91.3203125 C-64.95453125 90.7634375 -65.71765625 90.2065625 -66.50390625 89.6328125 C-75.0422356 82.28587794 -81.67100443 69.50371256 -83.19140625 58.3203125 C-84.16223488 40.22929446 -80.99145871 25.19806272 -68.94140625 10.9453125 C-50.63435753 -8.23350044 -23.14099987 -12.17947361 0 0 Z " fill="#F7DF09" transform="translate(267.19140625,70.6796875)"/>
<path d="M0 0 C1.61129533 0.46946229 3.22152783 0.94257349 4.83129883 1.41723633 C6.1765136 1.81184807 6.1765136 1.81184807 7.54890442 2.21443176 C16.73051389 5.15710802 23.94768605 12.7163143 28.3125 21.125 C31.19100007 27.19459743 32.29162048 32.64403958 32.24050903 39.3522644 C32.24221788 40.17818498 32.24392673 41.00410555 32.24568737 41.85505402 C32.24897372 44.61423319 32.23799266 47.37316756 32.22705078 50.13232422 C32.22648648 52.11347956 32.22680359 54.09463531 32.22793579 56.07579041 C32.22850958 61.44926736 32.21675102 66.822655 32.20278788 72.1961112 C32.19028487 77.81352632 32.18911035 83.43094348 32.18673706 89.04837036 C32.18052104 99.68360527 32.16410853 110.31879905 32.14403808 120.95401585 C32.12168292 133.06274595 32.11068661 145.17147801 32.10064721 157.28022361 C32.07974244 182.18683854 32.04456404 207.09341696 32 232 C22.9414197 220.89983453 17.86966477 207.4107856 12.82373047 194.14550781 C12.16855382 192.43901927 11.48215789 190.74452427 10.78515625 189.0546875 C8.38139355 183.05010759 6.90393703 176.84785293 5.4375 170.5625 C5.23938721 169.72348145 5.04127441 168.88446289 4.8371582 168.02001953 C4.16639647 165.0227868 3.58110187 162.01602495 3 159 C2.74667908 157.72609909 2.49335815 156.45219818 2.23236084 155.13969421 C-0.56548691 139.79374827 -0.39442116 124.43729113 -0.30418181 108.90397739 C-0.28514653 105.06171389 -0.28364382 101.21943962 -0.28010559 97.37713623 C-0.27086258 90.13517023 -0.24635638 82.89334367 -0.21605712 75.65143847 C-0.18226857 67.392385 -0.1659663 59.13332409 -0.15097082 50.87421846 C-0.11979775 33.91606563 -0.06719188 16.95804766 0 0 Z " fill="#A9E0F8" transform="translate(80,145)"/>
<path d="M0 0 C5.28 0 10.56 0 16 0 C16.04898437 1.83046875 16.09796875 3.6609375 16.1484375 5.546875 C16.22347053 7.94793196 16.29901813 10.34897288 16.375 12.75 C16.4059375 13.9565625 16.436875 15.163125 16.46875 16.40625 C16.50742187 17.56640625 16.54609375 18.7265625 16.5859375 19.921875 C16.63306885 21.52434082 16.63306885 21.52434082 16.68115234 23.15917969 C17.003952 26.03521088 17.28691974 27.67645205 19 30 C20.65 30.66 22.3 31.32 24 32 C24 37.28 24 42.56 24 48 C22.02 48.99 20.04 49.98 18 51 C16.7250249 53.54995019 16.86089403 55.35783454 16.84178162 58.21377563 C16.82709839 59.8712809 16.82709839 59.8712809 16.81211853 61.56227112 C16.80636307 62.78002731 16.8006076 63.99778351 16.79467773 65.25244141 C16.77982834 67.1694561 16.77982834 67.1694561 16.76467896 69.12519836 C16.73760125 72.63527845 16.71660724 76.14537201 16.69667697 79.65549898 C16.67483506 83.32173919 16.6474376 86.9879377 16.62062073 90.65414429 C16.57066952 97.59912607 16.52573972 104.54413097 16.48259836 111.48915803 C16.43324671 119.39476467 16.37832091 127.30032947 16.32291877 135.20589566 C16.20906146 151.47055881 16.10242834 167.73526082 16 184 C10.72 184 5.44 184 0 184 C0 123.28 0 62.56 0 0 Z " fill="#A0D41C" transform="translate(432,112)"/>
<path d="M0 0 C5.28 0 10.56 0 16 0 C16 60.72 16 121.44 16 184 C10.72 184 5.44 184 0 184 C0 123.28 0 62.56 0 0 Z " fill="#7AB92D" transform="translate(400,112)"/>
<path d="M0 0 C4.24454258 0.8842797 5.42738756 2.10795675 8 5.625 C8.75754825 9.65398884 8.71044341 13.59876396 8.625 17.6875 C8.61098145 18.81333496 8.59696289 19.93916992 8.58251953 21.09912109 C8.34503523 29.24329682 7.54804113 35.68772127 3 42.625 C2.58878906 43.30046875 2.17757812 43.9759375 1.75390625 44.671875 C-2.56329523 50.66727646 -10.04930777 54.27745825 -17.05993652 56.18569946 C-21.35355988 56.82724719 -25.60744759 56.79816463 -29.94335938 56.81787109 C-30.94067581 56.82604858 -31.93799225 56.83422607 -32.9655304 56.84265137 C-36.25826423 56.86741959 -39.55095536 56.88399477 -42.84375 56.8984375 C-43.9692778 56.90376118 -45.0948056 56.90908485 -46.25444031 56.91456985 C-52.20591551 56.94125741 -58.15737 56.96065091 -64.10888672 56.97509766 C-69.03648321 56.98846505 -73.96366837 57.01637591 -78.89111328 57.05712891 C-84.84265531 57.10634832 -90.79382281 57.13120468 -96.74555969 57.13832474 C-99.01341341 57.14504897 -101.28125838 57.16030122 -103.54899597 57.18421555 C-106.71865781 57.21574845 -109.88686386 57.21592197 -113.05664062 57.20849609 C-113.99393509 57.22490143 -114.93122955 57.24130676 -115.89692688 57.25820923 C-120.42576002 57.21472224 -122.379316 57.09799779 -126.08239746 54.27603149 C-128 51.625 -128 51.625 -128.625 48.625 C-127.75792842 44.4630564 -126.37767663 43.20175734 -123 40.625 C-119.69028239 39.90047233 -116.44950625 39.96504437 -113.07250977 40.01318359 C-112.07679962 40.00751877 -111.08108948 40.00185394 -110.0552063 39.99601746 C-106.76688911 39.98252344 -103.4796752 40.00345653 -100.19140625 40.0234375 C-97.90363306 40.01793773 -95.61586481 40.0098135 -93.32810974 39.99917603 C-87.30513274 39.97627536 -81.28251845 39.98051615 -75.25952148 39.99298096 C-65.62269896 40.01127711 -55.9860893 40.00133891 -46.34931755 39.96712112 C-42.98455065 39.96101579 -39.62023953 39.97427997 -36.25550842 39.98910522 C-34.18929934 39.98615694 -32.12309111 39.98250209 -30.05688477 39.97802734 C-28.65633598 39.99196281 -28.65633598 39.99196281 -27.22749329 40.00617981 C-22.06033655 39.97454403 -18.46383409 39.52436564 -14 36.625 C-10.0359119 32.33949935 -8.88975836 29.23420952 -8.859375 23.4765625 C-8.83037109 21.96835937 -8.83037109 21.96835937 -8.80078125 20.4296875 C-8.7670549 18.31789896 -8.74870768 16.20580622 -8.74609375 14.09375 C-8.55866941 6.37975867 -8.55866941 6.37975867 -5.640625 2.4375 C-3 0.625 -3 0.625 0 0 Z " fill="#323233" transform="translate(424,407.375)"/>
<path d="M0 0 C-0.26554687 0.91136719 -0.53109375 1.82273437 -0.8046875 2.76171875 C-3.32537688 11.87562364 -4.65841014 20.60709093 -4.96435547 30.07885742 C-5.10827578 32.52435318 -5.26389549 34.6623708 -6 37 C-9.0078125 38.98046875 -9.0078125 38.98046875 -12 40 C-16.95780909 49.91561817 -10.32558283 72.34629645 -9.08129883 83.06982422 C-8.73717592 86.04618971 -8.39773818 89.02306378 -8.05859375 92 C-7.95236191 92.90113525 -7.84613007 93.80227051 -7.73667908 94.73071289 C-7.19155304 99.52489793 -6.88896203 104.1749699 -7 109 C-9.31 109 -11.62 109 -14 109 C-14.02578125 108.40832031 -14.0515625 107.81664062 -14.078125 107.20703125 C-14.45783843 101.91693284 -15.05420394 98.83619062 -19 95 C-19.763125 94.443125 -20.52625 93.88625 -21.3125 93.3125 C-29.85082935 85.96556544 -36.47959818 73.18340006 -38 62 C-38.97082863 43.90898196 -35.80005246 28.87775022 -23.75 14.625 C-19.09747759 9.7338867 -13.8726227 6.272669 -8 3 C-7.35289062 2.6390625 -6.70578125 2.278125 -6.0390625 1.90625 C-3.93717193 0.79891253 -2.40553777 0 0 0 Z " fill="#F8B904" transform="translate(222,67)"/>
<path d="M0 0 C5.28 0 10.56 0 16 0 C16.22786458 3.25520833 16.45572917 6.51041667 16.68359375 9.765625 C17.01369529 13.46196844 17.01369529 13.46196844 18 17 C19.98421259 17.71228144 21.98967123 18.36515933 24 19 C32.85618729 23.85618729 32.85618729 23.85618729 35 26 C39.72402693 26.4072437 42.69222098 26.48459072 46.75 23.9375 C50 22 50 22 51.9921875 22.078125 C54.84307559 23.38709307 55.77391995 25.14533494 57.375 27.8125 C57.91898437 28.68519531 58.46296875 29.55789063 59.0234375 30.45703125 C60 33 60 33 59.44921875 35.12890625 C57.68938473 37.40103696 55.88433683 38.62469234 53.4375 40.125 C50.12890878 42.01471763 50.12890878 42.01471763 48 45 C47.67988211 48.59707151 47.67567668 52.20293799 47.625 55.8125 C47.58761719 56.81087891 47.55023438 57.80925781 47.51171875 58.83789062 C47.40558206 64.87903247 47.40558206 64.87903247 50.28515625 70.0546875 C53.45659025 72.33574457 53.45659025 72.33574457 56.8125 74.3125 C57.864375 74.869375 58.91625 75.42625 60 76 C59.505 77.98 59.505 77.98 59 80 C48.01525998 79.29522686 37.87674874 76.91343309 28 72 C28.47573464 69.30417039 29.03233334 66.92011763 30.0625 64.375 C31.78626889 58.16943199 32.11106566 51.6657305 29.4375 45.6875 C26.05094098 39.84777986 20.36560822 35.16190468 14 33 C7.21800954 32.32647819 1.95784502 32.42529299 -4 36 C-5.32 36 -6.64 36 -8 36 C-8.86580287 34.06767179 -9.71729941 32.12892806 -10.5625 30.1875 C-11.03816406 29.10855469 -11.51382812 28.02960938 -12.00390625 26.91796875 C-13 24 -13 24 -12 21 C-10.22265625 19.83203125 -10.22265625 19.83203125 -8.0625 18.8125 C-7.35222656 18.46832031 -6.64195312 18.12414062 -5.91015625 17.76953125 C-4 17 -4 17 -2 17 C-0.95117609 13.43928688 -0.69613047 9.94472103 -0.4375 6.25 C-0.2209375 3.15625 -0.2209375 3.15625 0 0 Z " fill="#F6DE09" transform="translate(288,304)"/>
<path d="M0 0 C6.21859524 3.64269177 11.57723728 9.67325234 13.75 16.5625 C14.91799552 24.56634299 13.36092605 30.94227872 8.75 37.5625 C4.28317587 42.59165591 -1.06763217 46.05459626 -7.85546875 46.87890625 C-14.18396585 47.14950406 -19.15446332 46.46458104 -24.25 42.5625 C-29.42895097 37.63191791 -33.71774606 33.0495245 -34.5859375 25.73046875 C-34.69244394 17.60402713 -33.84487158 12.33174968 -28.15625 6.3671875 C-20.19363365 -1.03804571 -10.66278676 -4.62406 0 0 Z " fill="#323334" transform="translate(194.25,409.4375)"/>
<path d="M0 0 C6.06343563 3.8805988 10.95667407 9.08758162 13.1875 16 C14.13757005 23.29123523 13.37764424 29.86043036 9.1875 36 C3.79463459 42.0383435 -1.01864162 45.40917892 -9.1875 46.2421875 C-15.26635125 46.55724991 -19.88255487 45.66166049 -24.8125 42 C-30.95363437 36.20415029 -34.90485316 30.73209923 -35.25 22.125 C-35.02618613 15.15233713 -33.53760694 10.85729496 -28.71875 5.8046875 C-20.54144386 -1.80020721 -10.69057161 -5.44614025 0 0 Z " fill="#343431" transform="translate(306.8125,338)"/>
<path d="M0 0 C21.12 0 42.24 0 64 0 C62.94897492 9.45922574 60.92887368 17.83253472 53.6875 24.5 C46.1728132 30.14851181 37.50365791 32.56109499 28.1796875 32.47265625 C20.69168484 31.35957477 12.53716234 27.20536284 7.375 21.625 C2.27359957 14.59291571 0.97168122 8.74513094 0 0 Z " fill="#646A75" transform="translate(208,224)"/>
<path d="M0 0 C0.82175217 -0.00554901 1.64350433 -0.01109802 2.49015808 -0.01681519 C5.19911515 -0.02859978 7.90639499 -0.00434938 10.61523438 0.02148438 C12.50183028 0.02319588 14.38842856 0.02312939 16.27502441 0.0213623 C20.22606199 0.02301487 24.17653173 0.04170121 28.12744141 0.07324219 C33.1883391 0.11291954 38.24849319 0.11728702 43.30951691 0.10977936 C47.20435379 0.10670774 51.09902394 0.11883701 54.99382019 0.13591003 C56.85970514 0.14293428 58.72560898 0.14606527 60.59150696 0.1452179 C63.20067401 0.14701848 65.80895517 0.16842221 68.41796875 0.1953125 C69.18694992 0.1923819 69.95593109 0.18945129 70.74821472 0.18643188 C75.20870465 0.25725177 78.22342646 0.74282828 81.70898438 3.61523438 C82.88079351 7.57009021 83.11379767 9.68416379 81.45898438 13.49023438 C79.70898438 15.61523438 79.70898438 15.61523438 76.70898438 16.61523438 C74.00737602 16.72178953 71.33118471 16.77248352 68.62915039 16.77636719 C67.39455078 16.78381454 67.39455078 16.78381454 66.13500977 16.79141235 C63.41096157 16.80602344 60.68697157 16.81283351 57.96289062 16.81835938 C56.07103982 16.82411081 54.17918903 16.82986855 52.28733826 16.83563232 C48.32038094 16.8461387 44.35344388 16.85198404 40.38647461 16.85546875 C35.30084772 16.86095881 30.21548785 16.88499928 25.1299448 16.9134407 C21.22233799 16.93205228 17.31479576 16.93727185 13.40714836 16.93880463 C11.53203811 16.94183403 9.65692907 16.9498722 7.78186226 16.96298981 C5.16043802 16.98002266 2.53966984 16.97817716 -0.08178711 16.97167969 C-1.24536491 16.98550186 -1.24536491 16.98550186 -2.43244934 16.99960327 C-5.66902358 16.97444159 -7.91420473 16.8301842 -10.75502014 15.20965576 C-12.54413618 13.35248566 -13.00267359 12.28013304 -13.35351562 9.74023438 C-13.46824219 9.0828125 -13.58296875 8.42539063 -13.70117188 7.74804688 C-12.33925311 0.66606928 -6.07710471 -0.10481678 0 0 Z " fill="#929899" transform="translate(205.291015625,191.384765625)"/>
<path d="M0 0 C5.83183705 4.00140645 9.53988305 8.96689512 12.140625 15.46875 C12.140625 20.08875 12.140625 24.70875 12.140625 29.46875 C-3.699375 29.46875 -19.539375 29.46875 -35.859375 29.46875 C-35.859375 11.64785448 -35.859375 11.64785448 -29.765625 5.28125 C-21.05627325 -2.8474783 -11.13714369 -5.60863351 0 0 Z " fill="#A8DFF7" transform="translate(435.859375,34.53125)"/>
<path d="M0 0 C1.15858521 0.34587158 1.15858521 0.34587158 2.34057617 0.69873047 C11.0744516 3.26977533 16.71889049 3.82205054 25 0 C25.99 0 26.98 0 28 0 C28.35138151 9.08050414 27.39260421 17.93533101 26.34594727 26.93603516 C26.06072694 29.39025653 25.78451599 31.84536775 25.50976562 34.30078125 C25.33124643 35.87505874 25.15222793 37.44927971 24.97265625 39.0234375 C24.89032242 39.75057953 24.80798859 40.47772156 24.72315979 41.22689819 C24.29688854 44.8757844 23.72210607 48.38946963 23 52 C17.06 52 11.12 52 5 52 C4.28159226 46.36306498 3.56747575 40.72590346 2.86376953 35.0871582 C2.6236887 33.17344005 2.38122505 31.26001913 2.13623047 29.34692383 C-0.47322408 8.9452496 -0.47322408 8.9452496 0 0 Z " fill="#F5DD09" transform="translate(226,124)"/>
<path d="M0 0 C5.75 1.875 5.75 1.875 8 3 C8.4921875 5.5546875 8.4921875 5.5546875 8.875 8.875 C10.76121928 22.13657251 16.14532629 34.61927136 27 43 C31.2450257 45.53011485 35.56936937 47.80800379 40 50 C36.36336151 58.38947295 26.02252883 62.71611153 18 66 C16.01116812 66.39453626 14.01165352 66.74630482 12 67 C9.03010354 60.15052575 6.93743548 53.41870965 5.375 46.125 C5.16262695 45.15103271 4.95025391 44.17706543 4.73144531 43.17358398 C4.14410435 40.45109928 3.57120364 37.72590471 3 35 C2.64035156 33.37384766 2.64035156 33.37384766 2.2734375 31.71484375 C1.32175643 26.89251951 0.89637558 22.07303527 0.6640625 17.16796875 C0.61411133 16.11536865 0.56416016 15.06276855 0.51269531 13.97827148 C0.31399337 9.31969748 0.14571522 4.66051769 0 0 Z " fill="#56B5E8" transform="translate(184,219)"/>
<path d="M0 0 C1.05026367 -0.0038269 2.10052734 -0.00765381 3.18261719 -0.01159668 C5.40170247 -0.01431696 7.62081974 -0.00694777 9.83984375 0.00976562 C13.23770595 0.03117255 16.63345361 0.00996675 20.03125 -0.015625 C22.18750467 -0.01298175 24.34375802 -0.00785682 26.5 0 C27.51674805 -0.00809692 28.53349609 -0.01619385 29.58105469 -0.02453613 C36.60245557 0.06887166 36.60245557 0.06887166 39.90014648 2.42358398 C41.51464475 4.94446724 41.67693897 6.14329206 41.3125 9.09375 C41.24160156 9.85816406 41.17070312 10.62257812 41.09765625 11.41015625 C39.82409984 14.59698175 38.3813662 15.11752442 35.25 16.53125 C31.85202305 16.971863 28.48121017 16.95165923 25.05859375 16.9296875 C23.58520287 16.93399277 23.58520287 16.93399277 22.08204651 16.93838501 C20.01017682 16.94042246 17.93828775 16.93491497 15.86645508 16.92236328 C12.69503849 16.90628821 9.52489299 16.92223197 6.35351562 16.94140625 C4.33853886 16.9394241 2.32356288 16.93558101 0.30859375 16.9296875 C-0.6393959 16.93576019 -1.58738556 16.94183289 -2.56410217 16.9480896 C-3.44859543 16.93863312 -4.33308868 16.92917664 -5.24438477 16.91943359 C-6.40756981 16.91585342 -6.40756981 16.91585342 -7.59425354 16.91220093 C-10.32537096 16.4295738 -11.71580271 15.38456763 -13.75 13.53125 C-14.5 11.41015625 -14.5 11.41015625 -14.75 9.09375 C-14.9046875 7.95099609 -14.9046875 7.95099609 -15.0625 6.78515625 C-14.75 4.53125 -14.75 4.53125 -13.40234375 2.42358398 C-9.21666557 -0.56271863 -5.0184391 -0.03996459 0 0 Z " fill="#323232" transform="translate(326.75,207.46875)"/>
<path d="M0 0 C3.89768789 2.21605289 7.31341925 4.76413375 10.8125 7.5625 C22.65814267 16.82749702 35.65532187 24.13592705 49 31 C49 34.96 49 38.92 49 43 C43.72 43 38.44 43 33 43 C32.77213542 39.45182292 32.54427083 35.90364583 32.31640625 32.35546875 C32.12815453 29.00818107 32.12815453 29.00818107 31 26 C30.195625 25.731875 29.39125 25.46375 28.5625 25.1875 C23.57634687 23.52544896 17.77424217 20.77424217 14 17 C7.15244828 16.33342417 3.26923544 17.94230481 -2.5 21.5 C-3.22703125 21.92925781 -3.9540625 22.35851562 -4.703125 22.80078125 C-6.47801145 23.85170086 -8.24037399 24.9237239 -10 26 C-12.77292224 23.36250741 -14.39115867 20.70558919 -16.1875 17.3125 C-16.71730469 16.31863281 -17.24710938 15.32476562 -17.79296875 14.30078125 C-18.19128906 13.54152344 -18.58960938 12.78226562 -19 12 C-18.49549316 11.70754395 -17.99098633 11.41508789 -17.47119141 11.11376953 C-15.18724699 9.78738762 -12.90610626 8.45625654 -10.625 7.125 C-9.8309375 6.66480469 -9.036875 6.20460938 -8.21875 5.73046875 C-7.45820313 5.28574219 -6.69765625 4.84101563 -5.9140625 4.3828125 C-5.2123291 3.97434082 -4.5105957 3.56586914 -3.78759766 3.14501953 C-1.85322855 1.99591948 -1.85322855 1.99591948 0 0 Z " fill="#E2962F" transform="translate(255,373)"/>
<path d="M0 0 C15.84 0 31.68 0 48 0 C48 5.28 48 10.56 48 16 C32.16 16 16.32 16 0 16 C0 10.72 0 5.44 0 0 Z " fill="#CFD7D9" transform="translate(400,80)"/>
<path d="M0 0 C10.34430764 -0.06952787 20.68855963 -0.12282548 31.0330534 -0.15543652 C35.83649134 -0.17108864 40.63976934 -0.1923187 45.44311523 -0.22631836 C50.07911055 -0.25892789 54.71495208 -0.27685643 59.35105324 -0.28463173 C61.11928541 -0.29017237 62.88750923 -0.30099191 64.65567589 -0.31719017 C67.1335096 -0.33898578 69.61070881 -0.34196606 72.08862305 -0.34057617 C72.81870575 -0.351362 73.54878845 -0.36214783 74.30099487 -0.3732605 C78.67547353 -0.34673084 81.64635646 0.09527074 85 3 C85.8125 5.6875 85.8125 5.6875 86 8 C76.06415163 8.09276894 66.12840667 8.16379998 56.19221306 8.20724869 C51.57818149 8.22810426 46.96444671 8.25638462 42.35058594 8.30175781 C37.89612037 8.34528828 33.44193988 8.36915238 28.98727798 8.37950897 C27.28962849 8.38688745 25.59199421 8.40129606 23.8944664 8.42292023 C21.51247457 8.4520508 19.13165364 8.4559521 16.74951172 8.45410156 C15.7018589 8.47567322 15.7018589 8.47567322 14.63304138 8.49768066 C9.63028595 8.45575588 6.83568136 7.15239771 3 4 C1.125 1.75 1.125 1.75 0 0 Z " fill="#CFD7D9" transform="translate(202,192)"/>
<path d="M0 0 C-3.34618211 9.78266183 -6.72891233 15.54214847 -16.0625 20.375 C-21.65760039 23.06813713 -26.37062752 24.14444108 -32.5625 24.1875 C-33.95662109 24.20876953 -33.95662109 24.20876953 -35.37890625 24.23046875 C-38.07488389 23.99341557 -39.69407875 23.37270136 -42 22 C-39.95268516 14.72065833 -34.30580184 9.55469159 -28.0625 5.6875 C-26.38802883 4.76754353 -24.70118913 3.86955687 -23 3 C-22.37609375 2.65839844 -21.7521875 2.31679687 -21.109375 1.96484375 C-14.55353701 -1.09929792 -7.06416862 -0.24834968 0 0 Z " fill="#919798" transform="translate(271,232)"/>
<path d="M0 0 C2.58401549 2.48065487 4.93531058 5.08466235 7.25 7.8125 C12.19204077 13.49690741 17.46294233 18.23384048 24 22 C23.85820962 24.22942748 23.71140302 26.45853628 23.5625 28.6875 C23.48128906 29.92886719 23.40007812 31.17023438 23.31640625 32.44921875 C23 36 23 36 22 41 C16.06 41 10.12 41 4 41 C3.42715023 36.12566218 2.85642269 31.25117014 2.29101562 26.37597656 C2.09823843 24.71925708 1.90424378 23.06267877 1.70898438 21.40625 C1.42774613 19.01859472 1.15096093 16.63045778 0.875 14.2421875 C0.78750488 13.50757294 0.70000977 12.77295837 0.60986328 12.01608276 C0.1491878 7.98777923 -0.08922151 4.05400238 0 0 Z " fill="#FABB04" transform="translate(227,135)"/>
<path d="M0 0 C1.46373047 0.02707031 1.46373047 0.02707031 2.95703125 0.0546875 C3.69308594 0.07789062 4.42914063 0.10109375 5.1875 0.125 C4.23230469 0.28935547 4.23230469 0.28935547 3.2578125 0.45703125 C2.57460938 0.67746094 1.89140625 0.89789063 1.1875 1.125 C-0.03398021 3.8697571 -0.03398021 3.8697571 -0.8125 7.125 C-1.31523437 8.40697266 -1.31523437 8.40697266 -1.828125 9.71484375 C-3.1110939 14.15941457 -3.27056561 18.39783244 -3.4375 23 C-3.56125 26.01125 -3.685 29.0225 -3.8125 32.125 C-10.4125 32.125 -17.0125 32.125 -23.8125 32.125 C-24.4390625 15.834375 -24.4390625 15.834375 -19.8125 10.125 C-13.83272877 3.87747782 -8.92693441 -0.21510685 0 0 Z " fill="#57B5E8" transform="translate(423.8125,31.875)"/>
<path d="M0 0 C13.2 0 26.4 0 40 0 C38.02 5.28 36.04 10.56 34 16 C24.76 16 15.52 16 6 16 C5.01 13.73125 4.02 11.4625 3 9.125 C2.68675781 8.41230957 2.37351562 7.69961914 2.05078125 6.96533203 C0 2.22222222 0 2.22222222 0 0 Z " fill="#E4962F" transform="translate(404,312)"/>
<path d="M0 0 C6.6 0 13.2 0 20 0 C20 5.28 20 10.56 20 16 C13.4 16 6.8 16 0 16 C0 10.72 0 5.44 0 0 Z " fill="#93999A" transform="translate(400,80)"/>
<path d="M0 0 C2.5 1.5 2.5 1.5 4 4 C4.791013 8.02098277 4.62153384 10.96411027 2.5 14.5 C-1.02640809 16.61584485 -3.98821239 16.80730018 -8 16 C-11.06458538 13.95694308 -11.82153128 12.55920198 -12.9375 9.0625 C-13.01221891 5.40127319 -12.21363944 3.8695326 -10 1 C-6.79158965 -0.60420518 -3.4806013 -0.47462745 0 0 Z " fill="#313131" transform="translate(161,160)"/>
<path d="M0 0 C2.5 1.5 2.5 1.5 4 4 C4.791013 8.02098277 4.62153384 10.96411027 2.5 14.5 C-1.02640809 16.61584485 -3.98821239 16.80730018 -8 16 C-11.06458538 13.95694308 -11.82153128 12.55920198 -12.9375 9.0625 C-13.01221891 5.40127319 -12.21363944 3.8695326 -10 1 C-6.79158965 -0.60420518 -3.4806013 -0.47462745 0 0 Z " fill="#303030" transform="translate(161,64)"/>
<path d="M0 0 C2.23918419 1.8057937 2.84945187 3.08353828 3.3125 5.90234375 C3.52133602 9.40687323 3.32891469 11.45180884 1.5 14.5 C-2.03588973 16.62153384 -4.97901723 16.791013 -9 16 C-11.5 14.5 -11.5 14.5 -13 12 C-13.54719708 9.21841484 -13.58180519 6.7778346 -13 4 C-9.07078336 -1.10798163 -6.1704023 -1.40728474 0 0 Z " fill="#313131" transform="translate(197,29)"/>
<path d="M0 0 C2.40887363 2.32857784 3.80787201 4.63776015 4 8 C1.6185567 14.69072165 1.6185567 14.69072165 -1 16 C-8.0521327 16.56872038 -8.0521327 16.56872038 -11.5 14.5 C-13.61417965 10.97636725 -13.69200659 8.01199061 -13 4 C-9.94476151 -1.67401434 -5.84796656 -1.35756367 0 0 Z " fill="#313131" transform="translate(293,29)"/>
<path d="M0 0 C3.06458538 2.04305692 3.82153128 3.44079802 4.9375 6.9375 C5.01221891 10.59872681 4.21363944 12.1304674 2 15 C-1.20841035 16.60420518 -4.5193987 16.47462745 -8 16 C-10.5 14.5 -10.5 14.5 -12 12 C-12.791013 7.97901723 -12.62153384 5.03588973 -10.5 1.5 C-6.97359191 -0.61584485 -4.01178761 -0.80730018 0 0 Z " fill="#313131" transform="translate(327,160)"/>
<path d="M0 0 C3.06458538 2.04305692 3.82153128 3.44079802 4.9375 6.9375 C5.01221891 10.59872681 4.21363944 12.1304674 2 15 C-1.20841035 16.60420518 -4.5193987 16.47462745 -8 16 C-10.5 14.5 -10.5 14.5 -12 12 C-12.791013 7.97901723 -12.62153384 5.03588973 -10.5 1.5 C-6.97359191 -0.61584485 -4.01178761 -0.80730018 0 0 Z " fill="#313131" transform="translate(327,64)"/>
<path d="M0 0 C2.5 1.5 2.5 1.5 4 4 C4.791013 8.02098277 4.62153384 10.96411027 2.5 14.5 C-1.03588973 16.62153384 -3.97901723 16.791013 -8 16 C-10.5 14.5 -10.5 14.5 -12 12 C-12.791013 7.97901723 -12.62153384 5.03588973 -10.5 1.5 C-6.96411027 -0.62153384 -4.02098277 -0.791013 0 0 Z " fill="#313131" transform="translate(340,112)"/>
<path d="M0 0 C2.5 1.5 2.5 1.5 4 4 C4.791013 8.02098277 4.62153384 10.96411027 2.5 14.5 C-1.03588973 16.62153384 -3.97901723 16.791013 -8 16 C-10.5 14.5 -10.5 14.5 -12 12 C-12.791013 7.97901723 -12.62153384 5.03588973 -10.5 1.5 C-6.96411027 -0.62153384 -4.02098277 -0.791013 0 0 Z " fill="#313131" transform="translate(148,112)"/>
<path d="M0 0 C2.5 1.5 2.5 1.5 4 4 C4.791013 8.02098277 4.62153384 10.96411027 2.5 14.5 C-1.03588973 16.62153384 -3.97901723 16.791013 -8 16 C-10.5 14.5 -10.5 14.5 -12 12 C-12.791013 7.97901723 -12.62153384 5.03588973 -10.5 1.5 C-6.96411027 -0.62153384 -4.02098277 -0.791013 0 0 Z " fill="#313131" transform="translate(244,16)"/>
<path d="M0 0 C4.0743356 0.84881992 5.54405875 2.30225596 8 5.625 C8.625 8.625 8.625 8.625 8 11.625 C5.54405875 14.94774404 4.0743356 16.40118008 0 17.25 C-4.0743356 16.40118008 -5.54405875 14.94774404 -8 11.625 C-8.625 8.625 -8.625 8.625 -8 5.625 C-5.54405875 2.30225596 -4.0743356 0.84881992 0 0 Z " fill="#F4B606" transform="translate(184,423.375)"/>
<path d="M0 0 C1.8046875 0.640625 1.8046875 0.640625 3.8046875 2.328125 C5.10888306 5.34407723 5.21189969 7.38292747 4.8046875 10.640625 C3.8046875 12.953125 3.8046875 12.953125 1.8046875 14.640625 C-1.89512811 15.78748929 -4.99215762 16.10337688 -8.6328125 14.703125 C-11.01371087 11.56033915 -11.62081384 8.5537177 -11.1953125 4.640625 C-8.1181485 -0.22327939 -5.38557002 -1.09743691 0 0 Z " fill="#55B1E3" transform="translate(299.1953125,352.359375)"/>
<path d="M0 0 C4.62 0 9.24 0 14 0 C12.12270561 5.72127814 10.14779635 11.37481909 8 17 C7.34 17 6.68 17 6 17 C4.99580363 14.5433053 3.99649499 12.08481647 3 9.625 C2.71382813 8.92632812 2.42765625 8.22765625 2.1328125 7.5078125 C0 2.2265625 0 2.2265625 0 0 Z " fill="#636974" transform="translate(417,344)"/>
<path d="M0 0 C3.96 0 7.92 0 12 0 C10.02 5.28 8.04 10.56 6 16 C5.01 16 4.02 16 3 16 C2.49411853 14.08487728 1.99551609 12.16783078 1.5 10.25 C1.2215625 9.18265625 0.943125 8.1153125 0.65625 7.015625 C0 4 0 4 0 0 Z " fill="#FABA05" transform="translate(432,312)"/>
<path d="M0 0 C0.33 0.66 0.66 1.32 1 2 C4.02934491 2.65772428 4.02934491 2.65772428 7 3 C6.67 6.3 6.34 9.6 6 13 C3.69 13 1.38 13 -1 13 C-0.67 8.71 -0.34 4.42 0 0 Z " fill="#F3B606" transform="translate(266,163)"/>
<path d="M0 0 C0.556875 0.7425 1.11375 1.485 1.6875 2.25 C3.93727787 4.92541152 6.2309174 6.88675275 9 9 C9.66 9.66 10.32 10.32 11 11 C6.98313013 11.46707789 5.43498188 11.32150834 2.125 8.875 C-0.32150834 5.56501812 -0.46707789 4.01686987 0 0 Z " fill="#D58E2F" transform="translate(176,429)"/>
</svg>
