<?xml version="1.0" encoding="UTF-8"?>
<svg version="1.1" xmlns="http://www.w3.org/2000/svg" width="1024" height="1024">
<path d="M0 0 C337.92 0 675.84 0 1024 0 C1024 337.92 1024 675.84 1024 1024 C686.08 1024 348.16 1024 0 1024 C0 686.08 0 348.16 0 0 Z " fill="#FEFEFE" transform="translate(0,0)"/>
<path d="M0 0 C3.3 0 6.6 0 10 0 C10 24.09 10 48.18 10 73 C6.7 73 3.4 73 0 73 C-0.33 71.35 -0.66 69.7 -1 68 C-1.5775 68.61875 -2.155 69.2375 -2.75 69.875 C-7.51348582 74.37384771 -11.71189741 74.43272085 -18.0859375 74.31640625 C-23.29934499 73.75033922 -25.86260217 71.26377537 -29.25 67.5 C-33.67097479 61.18432173 -33.40574423 55.38854212 -33.42553711 47.89306641 C-33.43738853 45.76996869 -33.48655063 43.64982461 -33.53710938 41.52734375 C-33.62832596 33.8849144 -33.40273315 27.80593694 -28 22 C-23.01597232 17.3719743 -19.10268997 16.70434181 -12.5078125 16.78125 C-9.08851906 17.07950613 -6.8233537 18.07185601 -4 20 C-3.01 21.32 -2.02 22.64 -1 24 C-0.67 16.08 -0.34 8.16 0 0 Z " fill="#050505" transform="translate(589,475)"/>
<path d="M0 0 C4.15738263 2.82945039 6.90813398 6.65731182 8.87109375 11.2734375 C9.11160278 13.34893799 9.11160278 13.34893799 9.09814453 15.58300781 C9.09799347 16.42357727 9.09784241 17.26414673 9.09768677 18.13018799 C9.0873642 19.02824158 9.07704163 19.92629517 9.06640625 20.8515625 C9.06357635 21.7781366 9.06074646 22.70471069 9.05783081 23.65936279 C9.04664986 26.61418659 9.02154902 29.56870555 8.99609375 32.5234375 C8.98606126 34.52864145 8.97693588 36.53385016 8.96875 38.5390625 C8.94671733 43.45063801 8.9122017 48.36198609 8.87109375 53.2734375 C5.57109375 53.2734375 2.27109375 53.2734375 -1.12890625 53.2734375 C-1.62390625 49.8084375 -1.62390625 49.8084375 -2.12890625 46.2734375 C-2.85078125 47.2221875 -3.57265625 48.1709375 -4.31640625 49.1484375 C-6.55785972 52.09434777 -8.58810888 53.18983141 -12.12890625 54.2734375 C-19.20447464 55.13410203 -25.68659493 55.24206319 -31.5390625 50.8125 C-35.74859703 46.73742235 -37.34655267 43.08742148 -37.62890625 37.2109375 C-37.36755216 31.27189122 -35.01748074 28.11096943 -30.81640625 24.0234375 C-24.60503099 19.97882105 -18.36880839 20.00652689 -11.19140625 20.1484375 C-10.31677734 20.15746094 -9.44214844 20.16648437 -8.54101562 20.17578125 C-6.40352561 20.1991418 -4.26617839 20.23500503 -2.12890625 20.2734375 C-2.80274093 13.62189285 -2.80274093 13.62189285 -6.19140625 8.1484375 C-10.91480734 6.74146696 -15.63935814 6.40846223 -20.34375 8.04296875 C-22.60706296 9.31286234 -22.60706296 9.31286234 -23.12890625 13.2734375 C-26.75890625 13.2734375 -30.38890625 13.2734375 -34.12890625 13.2734375 C-33.75374081 8.02112134 -32.01254238 4.73853641 -28.12890625 1.2734375 C-20.10983778 -4.86882771 -8.73934492 -4.52200967 0 0 Z " fill="#0B0B0B" transform="translate(414.12890625,494.7265625)"/>
<path d="M0 0 C5.42411618 3.09571509 8.5071535 6.95896051 10.5 12.9375 C10.5 18.2175 10.5 23.4975 10.5 28.9375 C-0.72 28.9375 -11.94 28.9375 -23.5 28.9375 C-23.14506888 37.54588506 -23.14506888 37.54588506 -19.5 43.9375 C-15.31698003 46.02900999 -10.04300645 45.51380581 -5.5 44.9375 C-3.79319053 43.31196717 -2.12339805 41.64634005 -0.5 39.9375 C2.87149376 39.49181264 6.11902784 39.64207525 9.5 39.9375 C9.04415663 44.83781625 8.14058402 47.56330017 4.5 50.9375 C-2.70541715 55.19146743 -10.28210987 56.09424096 -18.5 54.9375 C-23.77740539 53.27281508 -27.44714563 51.20092524 -31 46.9375 C-34.44807687 40.04134627 -34.83560195 34.77174445 -34.8125 27.125 C-34.82861328 26.06990234 -34.84472656 25.01480469 -34.86132812 23.92773438 C-34.86585833 16.65674799 -34.46937745 10.50323778 -29.6328125 4.6953125 C-28.97023438 4.15648437 -28.30765625 3.61765625 -27.625 3.0625 C-26.96757813 2.50820313 -26.31015625 1.95390625 -25.6328125 1.3828125 C-18.06259558 -3.74718798 -8.20600229 -3.74006701 0 0 Z " fill="#070707" transform="translate(648.5,494.0625)"/>
<path d="M0 0 C14.19 0 28.38 0 43 0 C43 2.97 43 5.94 43 9 C32.11 9 21.22 9 10 9 C10 15.93 10 22.86 10 30 C19.57 30 29.14 30 39 30 C39 33.3 39 36.6 39 40 C29.43 40 19.86 40 10 40 C10 47.92 10 55.84 10 64 C20.89 64 31.78 64 43 64 C43 66.97 43 69.94 43 73 C28.81 73 14.62 73 0 73 C0 48.91 0 24.82 0 0 Z " fill="#050505" transform="translate(204,475)"/>
<path d="M0 0 C5.13731797 2.47692116 8.41925317 6.03864986 11.09716797 11.05541992 C12.39227665 15.27940742 12.24609194 19.28340926 12.1953125 23.67578125 C12.1924826 24.6009404 12.18965271 25.52609955 12.18673706 26.47929382 C12.17557392 29.42382942 12.15047637 32.36805688 12.125 35.3125 C12.11496521 37.31314664 12.10584023 39.31379806 12.09765625 41.31445312 C12.07564722 46.2097535 12.04114391 51.10482457 12 56 C8.37 56 4.74 56 1 56 C0.970271 54.21384277 0.970271 54.21384277 0.93994141 52.39160156 C0.86383005 47.97081468 0.77512106 43.55035457 0.68261719 39.12988281 C0.64435032 37.21718805 0.60949342 35.30442189 0.578125 33.39160156 C0.53242473 30.64101658 0.47443855 27.89092217 0.4140625 25.140625 C0.40251129 24.28631897 0.39096008 23.43201294 0.37905884 22.55181885 C0.35918915 21.75129089 0.33931946 20.95076294 0.31884766 20.12597656 C0.30552399 19.42426331 0.29220032 18.72255005 0.2784729 17.99957275 C-0.15209708 14.90786799 -1.13673212 12.66405222 -3.625 10.75 C-7.10710092 9.65038918 -10.41692017 9.40282003 -14 10 C-16.8100346 11.79363911 -18.50940468 13.01880935 -20 16 C-20.15733249 18.98763355 -20.25861415 21.95541151 -20.31640625 24.9453125 C-20.33718735 25.8303244 -20.35796844 26.7153363 -20.37937927 27.62716675 C-20.44486598 30.45969741 -20.50375562 33.29232225 -20.5625 36.125 C-20.60568606 38.04297857 -20.64930037 39.96094754 -20.69335938 41.87890625 C-20.80054647 46.58584051 -20.9018164 51.29286967 -21 56 C-24.63 56 -28.26 56 -32 56 C-32 37.85 -32 19.7 -32 1 C-28.7 1 -25.4 1 -22 1 C-21.67 3.31 -21.34 5.62 -21 8 C-20.2575 7.05125 -19.515 6.1025 -18.75 5.125 C-13.86543215 -1.11639225 -7.41647792 -0.80527441 0 0 Z " fill="#0C0C0C" transform="translate(470,492)"/>
<path d="M0 0 C14.19 0 28.38 0 43 0 C43 10.12765957 43 10.12765957 39.25 14.25 C38.43273437 15.16910156 37.61546875 16.08820313 36.7734375 17.03515625 C35.85026118 18.02465463 34.92572125 19.01288211 34 20 C32.99103004 21.10180577 31.98325001 22.20470219 30.9765625 23.30859375 C28.93167628 25.54181202 26.87518802 27.76342488 24.80859375 29.9765625 C20.29900861 34.81398013 15.96925649 39.70765802 12 45 C22.23 45.33 32.46 45.66 43 46 C43 48.97 43 51.94 43 55 C28.48 55 13.96 55 -1 55 C-1 44 -1 44 0.72265625 41.01953125 C1.49480469 40.29121094 2.26695312 39.56289063 3.0625 38.8125 C3.89265625 37.98878906 4.7228125 37.16507813 5.578125 36.31640625 C6.37734375 35.55199219 7.1765625 34.78757812 8 34 C9.12115502 32.76521441 10.22664271 31.51593759 11.3125 30.25 C11.8590625 29.62351562 12.405625 28.99703125 12.96875 28.3515625 C16.29876748 24.49642688 19.60857073 20.62387508 22.91333008 16.74707031 C24.88872576 14.43462972 26.848509 12.151491 29 10 C19.43 9.67 9.86 9.34 0 9 C0 6.03 0 3.06 0 0 Z " fill="#050505" transform="translate(321,493)"/>
<path d="M0 0 C3.63 0 7.26 0 11 0 C14.19926583 7.71411761 16.94986088 15.5389623 19.57421875 23.46191406 C20.25849678 25.52562541 20.94928701 27.58708184 21.640625 29.6484375 C22.07851059 30.96341333 22.51602475 32.27851291 22.953125 33.59375 C23.34661133 34.77646484 23.74009766 35.95917969 24.14550781 37.17773438 C25 40 25 40 25 42 C25.66 42 26.32 42 27 42 C27.21398437 40.86691406 27.42796875 39.73382812 27.6484375 38.56640625 C29.36327535 30.84963594 32.09040578 23.41423333 34.625 15.9375 C35.14625345 14.38881321 35.66709036 12.83998616 36.1875 11.29101562 C37.45353377 7.52570844 38.72519962 3.7623477 40 0 C43.96 0 47.92 0 52 0 C49.82403652 6.59087666 47.56123357 13.14570807 45.2421875 19.6875 C44.7194072 21.16307373 44.7194072 21.16307373 44.18606567 22.66845703 C43.45543394 24.72918062 42.72429713 26.7897252 41.99267578 28.85009766 C40.86874945 32.01761567 39.74882261 35.1865311 38.62890625 38.35546875 C37.91691284 40.36206653 37.20468188 42.36858005 36.4921875 44.375 C36.15677948 45.32592529 35.82137146 46.27685059 35.47579956 47.2565918 C35.16522614 48.12840088 34.85465271 49.00020996 34.53466797 49.8984375 C34.26169891 50.66849121 33.98872986 51.43854492 33.70748901 52.23193359 C33 54 33 54 32 55 C29.81360547 55.07258946 27.62499611 55.08373783 25.4375 55.0625 C23.64119141 55.04896484 23.64119141 55.04896484 21.80859375 55.03515625 C20.88175781 55.02355469 19.95492187 55.01195312 19 55 C18.56655273 53.78530029 18.13310547 52.57060059 17.68652344 51.3190918 C16.06169181 46.76591367 14.43642554 42.21289079 12.81103516 37.65991211 C12.11072324 35.69803967 11.41052555 33.73612644 10.71044922 31.77416992 C9.69789977 28.93657594 8.68489406 26.09914511 7.671875 23.26171875 C7.34682983 22.35026093 7.02178467 21.4388031 6.68688965 20.49972534 C4.69866357 14.93112207 2.68209696 9.37440513 0.60253906 3.83911133 C0 2 0 2 0 0 Z " fill="#070707" transform="translate(670,493)"/>
<path d="M0 0 C4.36775158 3.14884416 7.96773395 6.77820184 9.6875 11.9375 C9.82031695 15.60856043 9.73073297 19.26269714 9.6875 22.9375 C6.0575 22.9375 2.4275 22.9375 -1.3125 22.9375 C-1.374375 21.555625 -1.43625 20.17375 -1.5 18.75 C-1.91053534 15.27960793 -2.3382469 13.89807505 -4.3125 10.875 C-7.84404682 8.59420935 -10.01777157 8.21678115 -14.15625 8.4375 C-17.60621778 9.23749253 -19.22177996 11.19342995 -21.3125 13.9375 C-22.97599319 17.26448637 -22.55628057 21.00179385 -22.62890625 24.6640625 C-22.64968735 25.52687836 -22.67046844 26.38969421 -22.69187927 27.27865601 C-22.75736034 30.03985493 -22.81625298 32.80115038 -22.875 35.5625 C-22.9181866 37.43230172 -22.96180093 39.30209362 -23.00585938 41.171875 C-23.11304024 45.76031728 -23.21431175 50.34885683 -23.3125 54.9375 C-26.9425 54.9375 -30.5725 54.9375 -34.3125 54.9375 C-34.3125 36.7875 -34.3125 18.6375 -34.3125 -0.0625 C-31.0125 -0.0625 -27.7125 -0.0625 -24.3125 -0.0625 C-23.9825 2.2475 -23.6525 4.5575 -23.3125 6.9375 C-22.57 5.98875 -21.8275 5.04 -21.0625 4.0625 C-15.84279203 -2.60712685 -7.59900094 -2.43741539 0 0 Z " fill="#080808" transform="translate(297.3125,493.0625)"/>
<path d="M0 0 C3.3 0 6.6 0 10 0 C9.27238584 4.40992814 7.8521176 8.49790578 6.33203125 12.68359375 C5.92477562 13.81757095 5.92477562 13.81757095 5.5092926 14.97445679 C4.61406036 17.46348816 3.71347958 19.95054382 2.8125 22.4375 C2.18622585 24.17337259 1.56008847 25.90929452 0.93408203 27.64526367 C-3.54495904 40.04917195 -8.07226627 52.43546858 -12.625 64.8125 C-12.91805023 65.61001678 -13.21110046 66.40753357 -13.51303101 67.22921753 C-16.56664151 75.53258205 -19.65768877 83.80726149 -23 92 C-26.3 92 -29.6 92 -33 92 C-32.40622127 86.26650316 -30.86579941 81.31039036 -28.859375 75.921875 C-28.38122597 74.6127565 -28.38122597 74.6127565 -27.89341736 73.27719116 C-26.85234063 70.43227329 -25.80142907 67.59110635 -24.75 64.75 C-24.0266031 62.78126961 -23.30370737 60.812355 -22.58129883 58.84326172 C-20.74842914 53.8529467 -18.90690848 48.86587007 -17.06329346 43.8795166 C-15.72856456 40.26492274 -14.40052831 36.64789339 -13.07302856 33.03063965 C-11.89170554 29.81366943 -10.70677342 26.59804008 -9.52038574 23.38293457 C-8.96932638 21.88902501 -8.4191016 20.39480731 -7.86975098 18.90026855 C-7.10810051 16.83062471 -6.34186077 14.76274028 -5.57421875 12.6953125 C-5.14713623 11.54047363 -4.72005371 10.38563477 -4.2800293 9.19580078 C-3.01250951 6.03123203 -1.56906911 3.02485629 0 0 Z " fill="#080808" transform="translate(818,466)"/>
<path d="M0 0 C0 3.3 0 6.6 0 10 C-10.93828426 15.79565808 -21.89511733 21.52907901 -33 27 C-30.15076205 29.25905924 -27.30540132 30.95945841 -24.04296875 32.55859375 C-23.09486328 33.02716797 -22.14675781 33.49574219 -21.16992188 33.97851562 C-20.18572266 34.45998047 -19.20152344 34.94144531 -18.1875 35.4375 C-12.02008397 38.46603233 -5.91958234 41.5076941 0 45 C0 48.3 0 51.6 0 55 C-5.21623064 53.45143962 -9.83642883 51.17776077 -14.64453125 48.68359375 C-15.45492355 48.26707047 -16.26531586 47.85054718 -17.1002655 47.42140198 C-18.80315604 46.54508257 -20.50498753 45.66670244 -22.20581055 44.78637695 C-24.81899413 43.4341395 -27.43556126 42.08863763 -30.05273438 40.74414062 C-31.70853464 39.89101559 -33.36414059 39.0375133 -35.01953125 38.18359375 C-35.80487747 37.77942734 -36.59022369 37.37526093 -37.39936829 36.95884705 C-42.88366333 34.11633667 -42.88366333 34.11633667 -44 33 C-44.07226502 31.14712498 -44.0838122 29.29166122 -44.0625 27.4375 C-44.05347656 26.42558594 -44.04445312 25.41367187 -44.03515625 24.37109375 C-44.02355469 23.58863281 -44.01195312 22.80617188 -44 22 C-38.65081576 19.17872663 -33.29891561 16.3626832 -27.9453125 13.54980469 C-24.85739169 11.92496041 -21.77249266 10.29445844 -18.6875 8.6640625 C-16.60427216 7.5675079 -14.52094066 6.4711502 -12.4375 5.375 C-11.43259521 4.84229492 -10.42769043 4.30958984 -9.39233398 3.76074219 C-8.45719971 3.26993164 -7.52206543 2.77912109 -6.55859375 2.2734375 C-5.31033813 1.61480713 -5.31033813 1.61480713 -4.03686523 0.94287109 C-2 0 -2 0 0 0 Z " fill="#070808" transform="translate(187,487)"/>
<path d="M0 0 C7.87831294 3.38147814 15.52523513 7.1862093 23.18603516 11.02783203 C25.38945698 12.13224623 27.59500883 13.23232057 29.80078125 14.33203125 C31.20846182 15.03620155 32.61601845 15.74061966 34.0234375 16.4453125 C34.67968109 16.77242218 35.33592468 17.09953186 36.01205444 17.43655396 C38.7971318 18.8362722 41.40189162 20.26792775 44 22 C44.29296875 24.6015625 44.29296875 24.6015625 44.1875 27.625 C44.14689453 29.12933594 44.14689453 29.12933594 44.10546875 30.6640625 C44.07066406 31.43492187 44.03585937 32.20578125 44 33 C43.40276123 33.31114746 42.80552246 33.62229492 42.19018555 33.94287109 C40.38799705 34.88195966 38.58592474 35.82127123 36.78393555 36.76074219 C34.70880763 37.84256398 32.63344707 38.92393965 30.55786133 40.00488281 C25.46602962 42.65918122 20.38014147 45.32320057 15.3125 48.0234375 C14.44536377 48.48443848 13.57822754 48.94543945 12.68481445 49.42041016 C11.04349848 50.29425968 9.40395202 51.17144246 7.76635742 52.05224609 C2.22212057 55 2.22212057 55 0 55 C0 51.7 0 48.4 0 45 C3.43383073 43.09746602 6.87272624 41.20426468 10.3125 39.3125 C11.26962891 38.78205078 12.22675781 38.25160156 13.21289062 37.70507812 C19.68232949 34.15451066 26.23773728 30.95461155 33 28 C30.14997334 25.7440205 27.29486741 24.02439624 24.04296875 22.40625 C23.09486328 21.93316406 22.14675781 21.46007812 21.16992188 20.97265625 C20.18572266 20.48667969 19.20152344 20.00070312 18.1875 19.5 C16.72860352 18.77103516 16.72860352 18.77103516 15.24023438 18.02734375 C10.21598617 15.53052711 5.18615837 13.1410082 0 11 C0 7.37 0 3.74 0 0 Z " fill="#070707" transform="translate(843,487)"/>
<path d="M0 0 C4.25762024 1.79766188 6.12252651 3.81260126 8 8 C8.46991449 11.81715734 8.46399586 15.59559977 8.4375 19.4375 C8.4674707 20.97374023 8.4674707 20.97374023 8.49804688 22.54101562 C8.49408223 28.66639147 8.15305951 32.38131718 4 37 C-0.03160965 39.68773977 -3.26423878 39.67415933 -8 39 C-12.12804059 36.62857243 -13.52287983 34.42691378 -15 30 C-15.42421435 26.36138158 -15.37018597 22.72357128 -15.375 19.0625 C-15.39949219 18.08603516 -15.42398438 17.10957031 -15.44921875 16.10351562 C-15.47374238 10.07478933 -15.05607054 6.56124901 -11 2 C-7.28612182 -0.47591878 -4.30417439 -0.53907468 0 0 Z " fill="#F9F9F9" transform="translate(581,501)"/>
<path d="M0 0 C0.88365234 0.01804687 1.76730469 0.03609375 2.67773438 0.0546875 C4.84812543 0.10161487 7.01795519 0.17335269 9.1875 0.25 C9.64540104 8.98403831 9.64540104 8.98403831 8.125 13.1875 C4.52836884 17.01617189 0.21110733 18.39551849 -4.9375 18.6875 C-9.25438106 18.2001102 -10.82588449 17.32711901 -13.8125 14.25 C-15.37950442 11.11599115 -15.66414561 7.61844905 -14.8125 4.25 C-10.57170533 -0.72794712 -6.0440262 -0.2343694 0 0 Z " fill="#FAFAFA" transform="translate(402.8125,522.75)"/>
<path d="M0 0 C3.53536291 2.02020738 5.76937948 4.08438925 7 8 C7 10.31 7 12.62 7 15 C-1.25 15 -9.5 15 -18 15 C-18 6.91428571 -18 6.91428571 -14 2 C-9.54422653 -0.97051564 -5.22557394 -0.62737491 0 0 Z " fill="#EFEFEF" transform="translate(642,501)"/>
<path d="M0 0 C3.74785043 2.08213913 4.79482295 3.2947039 6 7.4375 C6 11.40316899 5.44976383 12.93779521 3 16 C-0.76499581 18.5099972 -2.54293606 18.61476744 -7 18 C-10.22980084 15.113795 -11.77566051 13.22140391 -12.5625 8.9375 C-11.87020639 5.32218892 -10.54408967 3.61891584 -8 1 C-5.14675563 -0.42662219 -3.16545451 -0.31033868 0 0 Z " fill="#0A0A0A" transform="translate(522,531)"/>
</svg>
